<svg width="149" height="265" viewBox="0 0 149 265" fill="none" xmlns="http://www.w3.org/2000/svg">
<g clip-path="url(#clip0_12_2976)">
<path d="M-80.6335 106.745C-81.39 109.232 -81.9788 111.766 -82.3957 114.331C-82.7235 116.514 -83.2663 119.376 -83.484 121.559C-83.7018 123.743 -83.9943 126.892 -83.9711 129.176C-84.1086 134.08 -83.7961 138.986 -83.0377 143.831C-82.3229 148.667 -81.2228 153.437 -79.7477 158.097C-79.0191 160.199 -78.077 163.017 -77.238 165.066C-76.3989 167.114 -75.2355 169.769 -74.2202 171.786C-72.0458 176.211 -69.5332 180.462 -66.7048 184.501C-60.9107 192.789 -53.9235 200.177 -45.9682 206.426C-41.9058 209.652 -37.5978 212.558 -33.0833 215.117C-28.5038 217.815 -23.7068 220.127 -18.7418 222.029C-11.1522 224.94 -3.26606 227.015 4.77683 228.218C9.94064 228.847 15.1346 229.203 20.337 229.286C25.4334 229.252 30.5207 228.834 35.5554 228.035C50.324 225.784 64.3594 220.089 76.5225 211.412C80.4786 208.585 84.1958 205.439 87.6367 202.005C89.1021 200.468 91.1104 198.473 92.4772 196.901C94.6456 194.227 97.4062 190.525 99.3342 187.695C101.876 183.624 104.137 179.384 106.102 175.007C87.8151 217.467 37.7935 239.482 -10.9588 224.666C-63.538 208.692 -94.726 155.924 -80.6011 106.811C-79.582 103.275 -78.346 99.8036 -76.9 96.4178C-78.1698 99.4173 -79.616 103.678 -80.6335 106.745Z" fill="url(#paint0_linear_12_2976)"/>
<path d="M-76.9324 96.3517L-74.0109 89.4552C-75.4687 92.83 -76.7085 96.2943 -77.7227 99.8268C-91.8369 148.961 -60.6817 201.718 -8.08038 217.682C40.6939 232.487 90.7155 210.472 108.98 168.022L106.059 174.918C87.7719 217.379 37.7503 239.394 -11.0019 224.578C-63.5811 208.604 -94.7692 155.835 -80.6443 106.723C-79.6208 103.194 -78.3812 99.7301 -76.9324 96.3517Z" fill="url(#paint1_linear_12_2976)"/>
<path d="M43.1161 39.7629C37.9687 38.1782 32.7034 37.0018 27.3692 36.2445C22.1645 35.4761 16.9065 35.1184 11.6441 35.1749C9.35624 35.2571 6.25454 35.3554 4.03197 35.515C1.4853 35.7179 -1.04985 36.0476 -3.56404 36.5029C-7.93712 37.3606 -13.7004 38.7352 -17.9665 39.923C-20.3413 40.6256 -22.673 41.4666 -24.9497 42.4417C-27.0359 43.3269 -29.828 44.4486 -31.8171 45.5322C-35.5743 47.5912 -40.4832 50.5423 -44.0673 52.899C-48.0431 55.6627 -51.7592 58.7818 -55.1696 62.2177C-58.632 65.6218 -61.7995 69.3125 -64.6382 73.2502C-66.5883 76.0909 -69.0431 80.0261 -70.7968 83.044C-71.8696 84.9358 -72.9715 87.607 -73.924 89.5766C-75.3818 92.9514 -76.6217 96.4158 -77.6358 99.9482C-91.75 149.082 -60.5948 201.84 -7.9935 217.803C40.7808 232.608 90.8024 210.593 109.067 168.143C110.305 165.078 111.739 160.905 112.79 157.739C112.904 157.355 111.689 156.666 110.012 156.148C96.352 203.694 44.0179 229.711 -6.86157 214.243C-57.741 198.775 -87.9222 147.727 -74.2623 100.181C-60.6024 52.6361 -8.29044 26.63 42.6111 42.0871C93.5127 57.5442 123.66 108.636 110.012 156.148C111.689 156.666 112.947 157.443 112.79 157.739C114.252 152.802 115.248 147.739 115.765 142.618C116.057 138.294 116.264 132.454 116.061 128.181C115.993 125.919 115.58 122.951 115.171 120.774C114.434 115.942 113.334 111.174 111.881 106.508C111.12 104.394 110.277 101.555 109.372 99.5391C107.45 95.0188 105.288 90.6047 102.894 86.3154C101.747 84.3635 100.131 81.8483 98.8827 80.0823C97.6342 78.3164 95.7537 75.9309 94.385 74.0872C93.0163 72.2435 90.8917 70.0869 89.3571 68.3518C85.8703 64.6509 82.1163 61.2105 78.1251 58.0583C76.2797 56.6394 73.757 54.7324 71.8659 53.4998C69.9749 52.2672 67.2082 50.5891 65.2072 49.3557C63.2062 48.1223 60.3045 46.7836 58.2034 45.6812C53.3219 43.3532 48.2801 41.3755 43.1161 39.7629Z" fill="url(#paint2_linear_12_2976)"/>
<path d="M106.419 165.971C125.968 120.573 102.15 66.7955 53.219 45.8552C4.28829 24.9149 -51.2257 44.7414 -70.775 90.1389C-90.3242 135.536 -66.5059 189.314 -17.5752 210.254C31.3555 231.195 86.8695 211.368 106.419 165.971Z" fill="url(#paint3_linear_12_2976)"/>
<path d="M106.228 157.483C103.056 167.774 97.8704 177.338 90.9717 185.619C84.0729 193.901 75.5986 200.735 66.0403 205.724C55.0086 211.511 42.941 215.056 30.5362 216.155C18.1315 217.254 5.63604 215.885 -6.22662 212.128C-55.3627 197.2 -84.635 147.783 -71.4858 101.991C-71.3611 101.575 -71.2143 101.148 -71.1003 100.709C-67.917 90.4199 -62.7232 80.8593 -55.8194 72.5806C-48.9156 64.3019 -40.4389 57.4695 -30.8796 52.4787C-19.8458 46.7034 -7.77929 43.1669 4.62277 42.0734C17.0248 40.9799 29.5165 42.3512 41.3761 46.108C90.5121 61.0362 119.774 110.431 106.635 156.245C106.467 156.573 106.343 156.989 106.228 157.483Z" fill="url(#paint4_linear_12_2976)"/>
<path style="mix-blend-mode:multiply" d="M20.3577 101.165C17.3736 103.429 14.7692 106.153 12.6424 109.235C10.422 112.381 8.3713 115.408 6.49028 118.315L3.25333 123.617C2.33839 125.141 1.27968 126.575 0.0916516 127.898C-0.836102 128.92 -1.95737 129.748 -3.20718 130.334C-4.36693 130.846 -5.67907 130.892 -6.86992 130.461C-7.73832 130.214 -8.51646 129.722 -9.11099 129.044C-9.70553 128.365 -10.0912 127.53 -10.2219 126.638C-10.537 124.498 -10.34 122.313 -9.64711 120.262C-9.00316 117.983 -7.62925 115.975 -5.7357 114.548C-4.79152 113.89 -3.69959 113.475 -2.55698 113.339C-1.41437 113.204 -0.256468 113.352 0.81379 113.772L8.43231 89.7358C1.92815 87.3598 -5.22297 87.4249 -11.6914 89.919C-18.034 92.766 -23.2073 97.7025 -26.3438 103.901L-35.1914 101.047L-41.3274 120.449L-32.7645 123.169C-33.8852 130.054 -32.7173 137.113 -29.4395 143.265C-25.9676 149.034 -20.3961 153.236 -13.8882 154.996C-9.69815 156.522 -5.17725 156.919 -0.780796 156.145C2.77682 155.425 6.12782 153.914 9.02356 151.725C11.8969 149.509 14.4195 146.873 16.5057 143.907C18.6885 140.87 20.6395 137.919 22.4138 135.055L25.7828 129.743C26.716 128.213 27.7892 126.773 28.9887 125.44C29.9478 124.381 31.1261 123.543 32.4417 122.984C33.658 122.51 35.0018 122.481 36.2359 122.901C37.3265 123.215 38.31 123.82 39.0797 124.652C39.8494 125.484 40.3759 126.511 40.6023 127.622C41.2611 130.078 41.1802 132.674 40.3695 135.087C39.6241 137.631 38.0575 139.859 35.9137 141.423C34.8161 142.223 33.5365 142.737 32.1909 142.919C30.8453 143.101 29.4761 142.945 28.2072 142.465L20.3289 167.257C27.4047 169.815 35.1952 169.585 42.1173 166.614C48.9986 163.338 54.5768 157.842 57.9499 151.016L67.0281 153.893L73.1518 134.633L63.9199 131.722C65.0551 124.534 63.8947 117.176 60.6034 110.692C58.7906 107.552 56.3688 104.806 53.4795 102.613C50.5901 100.42 47.2911 98.8248 43.7751 97.9205C39.521 96.3741 34.9323 95.9734 30.4699 96.7587C26.8168 97.4672 23.364 98.9718 20.3577 101.165Z" fill="url(#paint5_radial_12_2976)"/>
<path d="M-4.53451 110.625C-5.62661 111.721 -6.44493 113.058 -6.92304 114.528L-8.55973 119.183C-7.93616 117.236 -6.70257 115.539 -5.0411 114.344C-4.12195 113.73 -3.06706 113.35 -1.96801 113.235C-0.868958 113.121 0.241 113.276 1.26541 113.687L2.90206 109.032C1.8764 108.627 0.767558 108.475 -0.330345 108.59C-1.42825 108.704 -2.48279 109.081 -3.40444 109.689C-3.80525 109.971 -4.18312 110.284 -4.53451 110.625Z" fill="url(#paint6_radial_12_2976)"/>
<path d="M43.9026 158.907C37.1811 161.638 29.6883 161.784 22.8751 159.315L30.0459 136.154L28.4632 140.919L21.2925 164.08C28.1091 166.528 35.5942 166.383 42.3199 163.672C48.849 160.724 54.1541 155.604 57.3287 149.188L66.166 151.965L67.8027 147.31L58.9654 144.533C55.7668 150.924 50.4407 156.007 43.9026 158.907Z" fill="url(#paint7_radial_12_2976)"/>
<path d="M40.6255 120.232C40.526 120.096 40.4169 119.966 40.2991 119.845L40.2127 119.669C40.0535 119.506 39.8861 119.351 39.7112 119.204L39.6572 119.094C39.4994 118.974 39.3352 118.863 39.1654 118.761L38.9794 118.661L38.4979 118.405L38.3119 118.305L37.5777 118.036C36.392 117.636 35.1049 117.65 33.9267 118.075C32.6631 118.577 31.5285 119.357 30.6073 120.357C29.482 121.578 28.4691 122.897 27.5806 124.299L24.5121 129.218C22.8605 131.885 20.9993 134.628 18.9177 137.424C16.9483 140.189 14.5592 142.632 11.8367 144.663C9.04503 146.704 5.83057 148.091 2.43143 148.724C-1.8329 149.407 -6.19939 148.998 -10.2578 147.533C-16.5476 145.858 -21.974 141.884 -25.4626 136.398C-25.7325 135.847 -26.0024 135.296 -26.2831 134.723C-26.5638 134.15 -26.5746 134.128 -26.7257 133.82C-26.8768 133.511 -27.0819 133.092 -27.2547 132.74C-27.4274 132.387 -27.5569 132.123 -27.7081 131.814C-27.8592 131.506 -28.0643 131.087 -28.0932 130.636C-28.1221 130.186 -28.2742 129.987 -28.3591 129.646C-28.444 129.305 -28.5607 128.843 -28.6559 128.425C-28.751 128.007 -28.8035 127.732 -28.8555 127.403C-28.9075 127.073 -28.9904 126.512 -29.0521 126.051C-29.1139 125.589 -29.1453 125.413 -29.1752 125.072C-29.2051 124.732 -29.2325 124.117 -29.283 123.622C-29.3335 123.128 -29.3104 123.007 -29.3074 122.678C-29.3044 122.348 -29.3082 121.558 -29.3032 121.009L-29.2957 120.185C-29.2549 119.318 -29.2032 118.473 -29.0961 117.573L-37.4072 114.976L-31.8109 96.8772L-33.4475 101.532L-39.0547 119.609L-30.7327 122.228C-30.8399 123.128 -30.8915 123.973 -30.9432 124.818L-30.9507 125.641C-30.9449 126.212 -30.9719 126.772 -30.9548 127.31C-30.9377 127.849 -30.9167 127.948 -30.9197 128.277C-30.9226 128.606 -30.8516 129.255 -30.8119 129.727C-30.7722 130.2 -30.73 130.398 -30.6888 130.705C-30.6476 131.013 -30.6393 131.31 -30.5761 131.607C-30.5128 131.904 -30.4465 131.871 -30.3817 132.003C-30.317 132.136 -30.2449 132.674 -30.1821 133.026C-30.1193 133.378 -30.0026 133.84 -29.8853 134.247C-29.7681 134.654 -29.7156 134.929 -29.6194 135.237C-29.5233 135.545 -29.2524 135.986 -29.2343 136.415C-29.2162 136.843 -28.932 137.032 -28.7917 137.318C-28.6513 137.605 -28.4246 138.068 -28.2519 138.42C-28.0792 138.773 -27.9496 139.038 -27.8093 139.324L-27.5934 139.765C-27.3991 140.162 -27.194 140.58 -26.9888 140.999C-23.5002 146.485 -18.0738 150.459 -11.784 152.134C-7.72323 153.588 -3.35946 153.997 0.905197 153.324C4.30434 152.692 7.5188 151.304 10.3104 149.264C13.0254 147.224 15.4133 144.783 17.3915 142.024C19.4515 139.184 21.3019 136.42 22.9859 133.819L26.0544 128.9C26.9338 127.491 27.9474 126.171 29.081 124.958C30.0023 123.958 31.1369 123.178 32.4005 122.676C33.5787 122.251 34.8658 122.237 36.0514 122.637L36.7857 122.905L36.8613 123.06L37.332 123.294L37.5288 123.416C37.6986 123.518 37.8627 123.629 38.0205 123.749C38.0205 123.749 38.0205 123.749 38.0745 123.859C38.2665 123.989 38.4423 124.141 38.5982 124.313C38.5982 124.313 38.6522 124.423 38.6846 124.489C38.769 124.63 38.8412 124.777 38.9004 124.93C38.9004 124.93 38.9652 125.062 39.0084 125.151C39.0948 125.299 39.1705 125.454 39.2351 125.613C39.2732 125.667 39.3024 125.727 39.3215 125.79L39.559 126.275C39.6093 126.35 39.6492 126.431 39.6777 126.517C39.8178 126.748 39.9371 126.992 40.034 127.244C40.1587 127.663 40.2576 128.089 40.3303 128.52L40.4274 128.719C40.6001 129.071 40.5304 129.488 40.5598 129.883C40.5837 129.953 40.6164 130.02 40.6569 130.082C40.6647 130.433 40.6504 130.795 40.6362 131.158L40.701 131.29C40.6694 131.696 40.6106 132.099 40.525 132.497C40.5265 132.597 40.5107 132.697 40.4783 132.793C40.4032 133.223 40.3002 133.647 40.1699 134.064L40.0118 134.524L41.6485 129.869L41.8174 129.431C41.9477 129.015 42.0507 128.59 42.1258 128.16L42.2054 127.875C42.2736 127.472 42.3213 127.065 42.3484 126.657L42.2836 126.525C42.2979 126.163 42.3122 125.8 42.3044 125.449C42.2638 125.387 42.2312 125.321 42.2072 125.251C42.1778 124.855 42.1372 124.493 42.0857 124.108C42.0857 124.108 42.0857 124.108 42.0317 123.998C41.9564 123.567 41.8575 123.141 41.7354 122.722C41.6059 122.457 41.4871 122.215 41.4788 121.918L41.0686 121.081C41.0544 121.025 41.0287 120.972 40.993 120.926C40.9259 120.759 40.8465 120.597 40.7555 120.442C40.7555 120.442 40.6907 120.309 40.6255 120.232Z" fill="url(#paint8_radial_12_2976)"/>
<path d="M-4.53451 110.625C-5.62661 111.721 -6.44493 113.058 -6.92304 114.528L-8.55973 119.183C-7.93616 117.236 -6.70257 115.539 -5.0411 114.344C-4.12195 113.73 -3.06706 113.35 -1.96801 113.235C-0.868958 113.121 0.241 113.276 1.26541 113.687L2.90206 109.032C1.8764 108.627 0.767558 108.475 -0.330345 108.59C-1.42825 108.704 -2.48279 109.081 -3.40444 109.689C-3.80525 109.971 -4.18312 110.284 -4.53451 110.625Z" fill="url(#paint9_radial_12_2976)"/>
<path d="M43.9026 158.907C37.1811 161.638 29.6883 161.784 22.8751 159.315L30.0459 136.154L28.4632 140.919L21.2925 164.08C28.1091 166.528 35.5942 166.383 42.3199 163.672C48.849 160.724 54.1541 155.604 57.3287 149.188L66.166 151.965L67.8027 147.31L58.9654 144.533C55.7668 150.924 50.4407 156.007 43.9026 158.907Z" fill="url(#paint10_radial_12_2976)"/>
<path d="M40.6255 120.232C40.526 120.096 40.4169 119.966 40.2991 119.845L40.2127 119.669C40.0535 119.506 39.8861 119.351 39.7112 119.204L39.6572 119.094C39.4994 118.974 39.3352 118.863 39.1654 118.761L38.9794 118.661L38.4979 118.405L38.3119 118.305L37.5777 118.036C36.392 117.636 35.1049 117.65 33.9267 118.075C32.6631 118.577 31.5285 119.357 30.6073 120.357C29.482 121.578 28.4691 122.897 27.5806 124.299L24.5121 129.218C22.8605 131.885 20.9993 134.628 18.9177 137.424C16.9483 140.189 14.5592 142.632 11.8367 144.663C9.04503 146.704 5.83057 148.091 2.43143 148.724C-1.8329 149.407 -6.19939 148.998 -10.2578 147.533C-16.5476 145.858 -21.974 141.884 -25.4626 136.398C-25.7325 135.847 -26.0024 135.296 -26.2831 134.723C-26.5638 134.15 -26.5746 134.128 -26.7257 133.82C-26.8768 133.511 -27.0819 133.092 -27.2547 132.74C-27.4274 132.387 -27.5569 132.123 -27.7081 131.814C-27.8592 131.506 -28.0643 131.087 -28.0932 130.636C-28.1221 130.186 -28.2742 129.987 -28.3591 129.646C-28.444 129.305 -28.5607 128.843 -28.6559 128.425C-28.751 128.007 -28.8035 127.732 -28.8555 127.403C-28.9075 127.073 -28.9904 126.512 -29.0521 126.051C-29.1139 125.589 -29.1453 125.413 -29.1752 125.072C-29.2051 124.732 -29.2325 124.117 -29.283 123.622C-29.3335 123.128 -29.3104 123.007 -29.3074 122.678C-29.3044 122.348 -29.3082 121.558 -29.3032 121.009L-29.2957 120.185C-29.2549 119.318 -29.2032 118.473 -29.0961 117.573L-37.4072 114.976L-31.8109 96.8772L-33.4475 101.532L-39.0547 119.609L-30.7327 122.228C-30.8399 123.128 -30.8915 123.973 -30.9432 124.818L-30.9507 125.641C-30.9449 126.212 -30.9719 126.772 -30.9548 127.31C-30.9377 127.849 -30.9167 127.948 -30.9197 128.277C-30.9226 128.606 -30.8516 129.255 -30.8119 129.727C-30.7722 130.2 -30.73 130.398 -30.6888 130.705C-30.6476 131.013 -30.6393 131.31 -30.5761 131.607C-30.5128 131.904 -30.4465 131.871 -30.3817 132.003C-30.317 132.136 -30.2449 132.674 -30.1821 133.026C-30.1193 133.378 -30.0026 133.84 -29.8853 134.247C-29.7681 134.654 -29.7156 134.929 -29.6194 135.237C-29.5233 135.545 -29.2524 135.986 -29.2343 136.415C-29.2162 136.843 -28.932 137.032 -28.7917 137.318C-28.6513 137.605 -28.4246 138.068 -28.2519 138.42C-28.0792 138.773 -27.9496 139.038 -27.8093 139.324L-27.5934 139.765C-27.3991 140.162 -27.194 140.58 -26.9888 140.999C-23.5002 146.485 -18.0738 150.459 -11.784 152.134C-7.72323 153.588 -3.35946 153.997 0.905197 153.324C4.30434 152.692 7.5188 151.304 10.3104 149.264C13.0254 147.224 15.4133 144.783 17.3915 142.024C19.4515 139.184 21.3019 136.42 22.9859 133.819L26.0544 128.9C26.9338 127.491 27.9474 126.171 29.081 124.958C30.0023 123.958 31.1369 123.178 32.4005 122.676C33.5787 122.251 34.8658 122.237 36.0514 122.637L36.7857 122.905L36.8613 123.06L37.332 123.294L37.5288 123.416C37.6986 123.518 37.8627 123.629 38.0205 123.749C38.0205 123.749 38.0205 123.749 38.0745 123.859C38.2665 123.989 38.4423 124.141 38.5982 124.313C38.5982 124.313 38.6522 124.423 38.6846 124.489C38.769 124.63 38.8412 124.777 38.9004 124.93C38.9004 124.93 38.9652 125.062 39.0084 125.151C39.0948 125.299 39.1705 125.454 39.2351 125.613C39.2732 125.667 39.3024 125.727 39.3215 125.79L39.559 126.275C39.6093 126.35 39.6492 126.431 39.6777 126.517C39.8178 126.748 39.9371 126.992 40.034 127.244C40.1587 127.663 40.2576 128.089 40.3303 128.52L40.4274 128.719C40.6001 129.071 40.5304 129.488 40.5598 129.883C40.5837 129.953 40.6164 130.02 40.6569 130.082C40.6647 130.433 40.6504 130.795 40.6362 131.158L40.701 131.29C40.6694 131.696 40.6106 132.099 40.525 132.497C40.5265 132.597 40.5107 132.697 40.4783 132.793C40.4032 133.223 40.3002 133.647 40.1699 134.064L40.0118 134.524L41.6485 129.869L41.8174 129.431C41.9477 129.015 42.0507 128.59 42.1258 128.16L42.2054 127.875C42.2736 127.472 42.3213 127.065 42.3484 126.657L42.2836 126.525C42.2979 126.163 42.3122 125.8 42.3044 125.449C42.2638 125.387 42.2312 125.321 42.2072 125.251C42.1778 124.855 42.1372 124.493 42.0857 124.108C42.0857 124.108 42.0857 124.108 42.0317 123.998C41.9564 123.567 41.8575 123.141 41.7354 122.722C41.6059 122.457 41.4871 122.215 41.4788 121.918L41.0686 121.081C41.0544 121.025 41.0287 120.972 40.993 120.926C40.9259 120.759 40.8465 120.597 40.7555 120.442C40.7555 120.442 40.6907 120.309 40.6255 120.232Z" fill="url(#paint11_radial_12_2976)"/>
<path d="M-4.53451 110.625C-5.62661 111.721 -6.44493 113.058 -6.92304 114.528L-8.55973 119.183C-7.93616 117.236 -6.70257 115.539 -5.0411 114.344C-4.12195 113.73 -3.06706 113.35 -1.96801 113.235C-0.868958 113.121 0.241 113.276 1.26541 113.687L2.90206 109.032C1.8764 108.627 0.767558 108.475 -0.330345 108.59C-1.42825 108.704 -2.48279 109.081 -3.40444 109.689C-3.80525 109.971 -4.18312 110.284 -4.53451 110.625Z" fill="url(#paint12_radial_12_2976)"/>
<path d="M43.9026 158.907C37.1811 161.638 29.6883 161.784 22.8751 159.315L30.0459 136.154L28.4632 140.919L21.2925 164.08C28.1091 166.528 35.5942 166.383 42.3199 163.672C48.849 160.724 54.1541 155.604 57.3287 149.188L66.166 151.965L67.8027 147.31L58.9654 144.533C55.7668 150.924 50.4407 156.007 43.9026 158.907Z" fill="url(#paint13_radial_12_2976)"/>
<path d="M40.6255 120.232C40.526 120.096 40.4169 119.966 40.2991 119.845L40.2127 119.669C40.0535 119.506 39.8861 119.351 39.7112 119.204L39.6572 119.094C39.4994 118.974 39.3352 118.863 39.1654 118.761L38.9794 118.661L38.4979 118.405L38.3119 118.305L37.5777 118.036C36.392 117.636 35.1049 117.65 33.9267 118.075C32.6631 118.577 31.5285 119.357 30.6073 120.357C29.482 121.578 28.4691 122.897 27.5806 124.299L24.5121 129.218C22.8605 131.885 20.9993 134.628 18.9177 137.424C16.9483 140.189 14.5592 142.632 11.8367 144.663C9.04503 146.704 5.83057 148.091 2.43143 148.724C-1.8329 149.407 -6.19939 148.998 -10.2578 147.533C-16.5476 145.858 -21.974 141.884 -25.4626 136.398C-25.7325 135.847 -26.0024 135.296 -26.2831 134.723C-26.5638 134.15 -26.5746 134.128 -26.7257 133.82C-26.8768 133.511 -27.0819 133.092 -27.2547 132.74C-27.4274 132.387 -27.5569 132.123 -27.7081 131.814C-27.8592 131.506 -28.0643 131.087 -28.0932 130.636C-28.1221 130.186 -28.2742 129.987 -28.3591 129.646C-28.444 129.305 -28.5607 128.843 -28.6559 128.425C-28.751 128.007 -28.8035 127.732 -28.8555 127.403C-28.9075 127.073 -28.9904 126.512 -29.0521 126.051C-29.1139 125.589 -29.1453 125.413 -29.1752 125.072C-29.2051 124.732 -29.2325 124.117 -29.283 123.622C-29.3335 123.128 -29.3104 123.007 -29.3074 122.678C-29.3044 122.348 -29.3082 121.558 -29.3032 121.009L-29.2957 120.185C-29.2549 119.318 -29.2032 118.473 -29.0961 117.573L-37.4072 114.976L-31.8109 96.8772L-33.4475 101.532L-39.0547 119.609L-30.7327 122.228C-30.8399 123.128 -30.8915 123.973 -30.9432 124.818L-30.9507 125.641C-30.9449 126.212 -30.9719 126.772 -30.9548 127.31C-30.9377 127.849 -30.9167 127.948 -30.9197 128.277C-30.9226 128.606 -30.8516 129.255 -30.8119 129.727C-30.7722 130.2 -30.73 130.398 -30.6888 130.705C-30.6476 131.013 -30.6393 131.31 -30.5761 131.607C-30.5128 131.904 -30.4465 131.871 -30.3817 132.003C-30.317 132.136 -30.2449 132.674 -30.1821 133.026C-30.1193 133.378 -30.0026 133.84 -29.8853 134.247C-29.7681 134.654 -29.7156 134.929 -29.6194 135.237C-29.5233 135.545 -29.2524 135.986 -29.2343 136.415C-29.2162 136.843 -28.932 137.032 -28.7917 137.318C-28.6513 137.605 -28.4246 138.068 -28.2519 138.42C-28.0792 138.773 -27.9496 139.038 -27.8093 139.324L-27.5934 139.765C-27.3991 140.162 -27.194 140.58 -26.9888 140.999C-23.5002 146.485 -18.0738 150.459 -11.784 152.134C-7.72323 153.588 -3.35946 153.997 0.905197 153.324C4.30434 152.692 7.5188 151.304 10.3104 149.264C13.0254 147.224 15.4133 144.783 17.3915 142.024C19.4515 139.184 21.3019 136.42 22.9859 133.819L26.0544 128.9C26.9338 127.491 27.9474 126.171 29.081 124.958C30.0023 123.958 31.1369 123.178 32.4005 122.676C33.5787 122.251 34.8658 122.237 36.0514 122.637L36.7857 122.905L36.8613 123.06L37.332 123.294L37.5288 123.416C37.6986 123.518 37.8627 123.629 38.0205 123.749C38.0205 123.749 38.0205 123.749 38.0745 123.859C38.2665 123.989 38.4423 124.141 38.5982 124.313C38.5982 124.313 38.6522 124.423 38.6846 124.489C38.769 124.63 38.8412 124.777 38.9004 124.93C38.9004 124.93 38.9652 125.062 39.0084 125.151C39.0948 125.299 39.1705 125.454 39.2351 125.613C39.2732 125.667 39.3024 125.727 39.3215 125.79L39.559 126.275C39.6093 126.35 39.6492 126.431 39.6777 126.517C39.8178 126.748 39.9371 126.992 40.034 127.244C40.1587 127.663 40.2576 128.089 40.3303 128.52L40.4274 128.719C40.6001 129.071 40.5304 129.488 40.5598 129.883C40.5837 129.953 40.6164 130.02 40.6569 130.082C40.6647 130.433 40.6504 130.795 40.6362 131.158L40.701 131.29C40.6694 131.696 40.6106 132.099 40.525 132.497C40.5265 132.597 40.5107 132.697 40.4783 132.793C40.4032 133.223 40.3002 133.647 40.1699 134.064L40.0118 134.524L41.6485 129.869L41.8174 129.431C41.9477 129.015 42.0507 128.59 42.1258 128.16L42.2054 127.875C42.2736 127.472 42.3213 127.065 42.3484 126.657L42.2836 126.525C42.2979 126.163 42.3122 125.8 42.3044 125.449C42.2638 125.387 42.2312 125.321 42.2072 125.251C42.1778 124.855 42.1372 124.493 42.0857 124.108C42.0857 124.108 42.0857 124.108 42.0317 123.998C41.9564 123.567 41.8575 123.141 41.7354 122.722C41.6059 122.457 41.4871 122.215 41.4788 121.918L41.0686 121.081C41.0544 121.025 41.0287 120.972 40.993 120.926C40.9259 120.759 40.8465 120.597 40.7555 120.442C40.7555 120.442 40.6907 120.309 40.6255 120.232Z" fill="url(#paint14_radial_12_2976)"/>
<path d="M-7.51008 121.046C-7.8538 119.054 -7.69924 117.007 -7.0601 115.087C-6.46887 112.946 -5.16883 111.066 -3.37206 109.755C-2.45041 109.147 -1.39587 108.77 -0.297967 108.656C0.799937 108.542 1.90878 108.693 2.93444 109.098L9.84643 86.5837C3.57761 84.2979 -3.30096 84.2907 -9.58279 86.5633C-15.5968 89.1333 -20.5191 93.7303 -23.4894 99.551L-31.9321 96.9093L-37.5285 115.008L-29.2173 117.605C-30.1588 124.117 -28.9121 130.753 -25.6722 136.474C-22.1836 141.959 -16.7572 145.933 -10.4674 147.609C-6.40899 149.073 -2.04254 149.483 2.22179 148.799C5.62093 148.167 8.83543 146.779 11.627 144.739C14.3496 142.707 16.7387 140.265 18.7081 137.499C20.7681 134.659 22.6293 131.916 24.3025 129.293L27.371 124.374C28.2595 122.972 29.2724 121.653 30.3977 120.432C31.3189 119.433 32.4535 118.653 33.7171 118.15C34.8953 117.725 36.1824 117.711 37.3681 118.111C38.4188 118.41 39.3708 118.981 40.1268 119.768C40.8827 120.555 41.4155 121.529 41.6707 122.589C42.3191 124.855 42.2781 127.262 41.5528 129.506C40.869 131.884 39.3912 133.958 37.365 135.383C36.2961 136.111 35.0675 136.571 33.7837 136.724C32.4998 136.878 31.1984 136.719 29.9899 136.263L22.8192 159.424C29.6323 161.893 37.1251 161.748 43.8467 159.017C50.3828 156.078 55.6909 150.956 58.8554 144.533L67.6927 147.309L73.266 129.331L64.308 126.531C65.277 119.738 64.029 112.817 60.7488 106.795C57.0467 100.772 51.1457 96.4225 44.2885 94.6631C40.1649 93.1839 35.732 92.7702 31.4015 93.4604C27.9058 94.1505 24.6061 95.608 21.7415 97.7275C18.9306 99.8206 16.4693 102.345 14.4493 105.207C12.3775 108.135 10.4387 110.943 8.67668 113.664L5.60817 118.583C4.73405 119.978 3.72013 121.28 2.58204 122.47C1.68904 123.415 0.621683 124.179 -0.561195 124.72C-1.69559 125.186 -2.96244 125.212 -4.11346 124.793C-4.98699 124.573 -5.77541 124.1 -6.37973 123.433C-6.98404 122.767 -7.3773 121.936 -7.51008 121.046Z" fill="url(#paint15_radial_12_2976)"/>
<path d="M-4.53451 110.625C-5.62661 111.721 -6.44493 113.058 -6.92304 114.528L-8.55973 119.183C-7.93616 117.236 -6.70257 115.539 -5.0411 114.344C-4.12195 113.73 -3.06706 113.35 -1.96801 113.235C-0.868958 113.121 0.241 113.276 1.26541 113.687L2.90206 109.032C1.8764 108.627 0.767558 108.475 -0.330345 108.59C-1.42825 108.704 -2.48279 109.081 -3.40444 109.689C-3.80525 109.971 -4.18312 110.284 -4.53451 110.625Z" fill="url(#paint16_linear_12_2976)"/>
<path d="M43.9026 158.907C37.1811 161.638 29.6883 161.784 22.8751 159.315L30.0459 136.154L28.4632 140.919L21.2925 164.08C28.1091 166.528 35.5942 166.383 42.3199 163.672C48.849 160.724 54.1541 155.604 57.3287 149.188L66.166 151.965L67.8027 147.31L58.9654 144.533C55.7668 150.924 50.4407 156.007 43.9026 158.907Z" fill="url(#paint17_linear_12_2976)"/>
<path d="M40.6255 120.232C40.526 120.096 40.4169 119.966 40.2991 119.845L40.2127 119.669C40.0535 119.506 39.8861 119.351 39.7112 119.204L39.6572 119.094C39.4994 118.974 39.3352 118.863 39.1654 118.761L38.9794 118.661L38.4979 118.405L38.3119 118.305L37.5777 118.036C36.392 117.636 35.1049 117.65 33.9267 118.075C32.6631 118.577 31.5285 119.357 30.6073 120.357C29.482 121.578 28.4691 122.897 27.5806 124.299L24.5121 129.218C22.8605 131.885 20.9993 134.628 18.9177 137.424C16.9483 140.189 14.5592 142.632 11.8367 144.663C9.04503 146.704 5.83057 148.091 2.43143 148.724C-1.8329 149.407 -6.19939 148.998 -10.2578 147.533C-16.5476 145.858 -21.974 141.884 -25.4626 136.398C-25.7325 135.847 -26.0024 135.296 -26.2831 134.723C-26.5638 134.15 -26.5746 134.128 -26.7257 133.82C-26.8768 133.511 -27.0819 133.092 -27.2547 132.74C-27.4274 132.387 -27.5569 132.123 -27.7081 131.814C-27.8592 131.506 -28.0643 131.087 -28.0932 130.636C-28.1221 130.186 -28.2742 129.987 -28.3591 129.646C-28.444 129.305 -28.5607 128.843 -28.6559 128.425C-28.751 128.007 -28.8035 127.732 -28.8555 127.403C-28.9075 127.073 -28.9904 126.512 -29.0521 126.051C-29.1139 125.589 -29.1453 125.413 -29.1752 125.072C-29.2051 124.732 -29.2325 124.117 -29.283 123.622C-29.3335 123.128 -29.3104 123.007 -29.3074 122.678C-29.3044 122.348 -29.3082 121.558 -29.3032 121.009L-29.2957 120.185C-29.2549 119.318 -29.2032 118.473 -29.0961 117.573L-37.4072 114.976L-31.8109 96.8772L-33.4475 101.532L-39.0547 119.609L-30.7327 122.228C-30.8399 123.128 -30.8915 123.973 -30.9432 124.818L-30.9507 125.641C-30.9449 126.212 -30.9719 126.772 -30.9548 127.31C-30.9377 127.849 -30.9167 127.948 -30.9197 128.277C-30.9226 128.606 -30.8516 129.255 -30.8119 129.727C-30.7722 130.2 -30.73 130.398 -30.6888 130.705C-30.6476 131.013 -30.6393 131.31 -30.5761 131.607C-30.5128 131.904 -30.4465 131.871 -30.3817 132.003C-30.317 132.136 -30.2449 132.674 -30.1821 133.026C-30.1193 133.378 -30.0026 133.84 -29.8853 134.247C-29.7681 134.654 -29.7156 134.929 -29.6194 135.237C-29.5233 135.545 -29.2524 135.986 -29.2343 136.415C-29.2162 136.843 -28.932 137.032 -28.7917 137.318C-28.6513 137.605 -28.4246 138.068 -28.2519 138.42C-28.0792 138.773 -27.9496 139.038 -27.8093 139.324L-27.5934 139.765C-27.3991 140.162 -27.194 140.58 -26.9888 140.999C-23.5002 146.485 -18.0738 150.459 -11.784 152.134C-7.72323 153.588 -3.35946 153.997 0.905197 153.324C4.30434 152.692 7.5188 151.304 10.3104 149.264C13.0254 147.224 15.4133 144.783 17.3915 142.024C19.4515 139.184 21.3019 136.42 22.9859 133.819L26.0544 128.9C26.9338 127.491 27.9474 126.171 29.081 124.958C30.0023 123.958 31.1369 123.178 32.4005 122.676C33.5787 122.251 34.8658 122.237 36.0514 122.637L36.7857 122.905L36.8613 123.06L37.332 123.294L37.5288 123.416C37.6986 123.518 37.8627 123.629 38.0205 123.749C38.0205 123.749 38.0205 123.749 38.0745 123.859C38.2665 123.989 38.4423 124.141 38.5982 124.313C38.5982 124.313 38.6522 124.423 38.6846 124.489C38.769 124.63 38.8412 124.777 38.9004 124.93C38.9004 124.93 38.9652 125.062 39.0084 125.151C39.0948 125.299 39.1705 125.454 39.2351 125.613C39.2732 125.667 39.3024 125.727 39.3215 125.79L39.559 126.275C39.6093 126.35 39.6492 126.431 39.6777 126.517C39.8178 126.748 39.9371 126.992 40.034 127.244C40.1587 127.663 40.2576 128.089 40.3303 128.52L40.4274 128.719C40.6001 129.071 40.5304 129.488 40.5598 129.883C40.5837 129.953 40.6164 130.02 40.6569 130.082C40.6647 130.433 40.6504 130.795 40.6362 131.158L40.701 131.29C40.6694 131.696 40.6106 132.099 40.525 132.497C40.5265 132.597 40.5107 132.697 40.4783 132.793C40.4032 133.223 40.3002 133.647 40.1699 134.064L40.0118 134.524L41.6485 129.869L41.8174 129.431C41.9477 129.015 42.0507 128.59 42.1258 128.16L42.2054 127.875C42.2736 127.472 42.3213 127.065 42.3484 126.657L42.2836 126.525C42.2979 126.163 42.3122 125.8 42.3044 125.449C42.2638 125.387 42.2312 125.321 42.2072 125.251C42.1778 124.855 42.1372 124.493 42.0857 124.108C42.0857 124.108 42.0857 124.108 42.0317 123.998C41.9564 123.567 41.8575 123.141 41.7354 122.722C41.6059 122.457 41.4871 122.215 41.4788 121.918L41.0686 121.081C41.0544 121.025 41.0287 120.972 40.993 120.926C40.9259 120.759 40.8465 120.597 40.7555 120.442C40.7555 120.442 40.6907 120.309 40.6255 120.232Z" fill="url(#paint18_linear_12_2976)"/>
<path d="M-4.53451 110.625C-5.62661 111.721 -6.44493 113.058 -6.92304 114.528L-8.55973 119.183C-7.93616 117.236 -6.70257 115.539 -5.0411 114.344C-4.12195 113.73 -3.06706 113.35 -1.96801 113.235C-0.868958 113.121 0.241 113.276 1.26541 113.687L2.90206 109.032C1.8764 108.627 0.767558 108.475 -0.330345 108.59C-1.42825 108.704 -2.48279 109.081 -3.40444 109.689C-3.80525 109.971 -4.18312 110.284 -4.53451 110.625Z" fill="url(#paint19_linear_12_2976)"/>
<path d="M43.9026 158.907C37.1811 161.638 29.6883 161.784 22.8751 159.315L30.0459 136.154L28.4632 140.919L21.2925 164.08C28.1091 166.528 35.5942 166.383 42.3199 163.672C48.849 160.724 54.1541 155.604 57.3287 149.188L66.166 151.965L67.8027 147.31L58.9654 144.533C55.7668 150.924 50.4407 156.007 43.9026 158.907Z" fill="url(#paint20_linear_12_2976)"/>
<path d="M40.6255 120.232C40.526 120.096 40.4169 119.966 40.2991 119.845L40.2127 119.669C40.0535 119.506 39.8861 119.351 39.7112 119.204L39.6572 119.094C39.4994 118.974 39.3352 118.863 39.1654 118.761L38.9794 118.661L38.4979 118.405L38.3119 118.305L37.5777 118.036C36.392 117.636 35.1049 117.65 33.9267 118.075C32.6631 118.577 31.5285 119.357 30.6073 120.357C29.482 121.578 28.4691 122.897 27.5806 124.299L24.5121 129.218C22.8605 131.885 20.9993 134.628 18.9177 137.424C16.9483 140.189 14.5592 142.632 11.8367 144.663C9.04503 146.704 5.83057 148.091 2.43143 148.724C-1.8329 149.407 -6.19939 148.998 -10.2578 147.533C-16.5476 145.858 -21.974 141.884 -25.4626 136.398C-25.7325 135.847 -26.0024 135.296 -26.2831 134.723C-26.5638 134.15 -26.5746 134.128 -26.7257 133.82C-26.8768 133.511 -27.0819 133.092 -27.2547 132.74C-27.4274 132.387 -27.5569 132.123 -27.7081 131.814C-27.8592 131.506 -28.0643 131.087 -28.0932 130.636C-28.1221 130.186 -28.2742 129.987 -28.3591 129.646C-28.444 129.305 -28.5607 128.843 -28.6559 128.425C-28.751 128.007 -28.8035 127.732 -28.8555 127.403C-28.9075 127.073 -28.9904 126.512 -29.0521 126.051C-29.1139 125.589 -29.1453 125.413 -29.1752 125.072C-29.2051 124.732 -29.2325 124.117 -29.283 123.622C-29.3335 123.128 -29.3104 123.007 -29.3074 122.678C-29.3044 122.348 -29.3082 121.558 -29.3032 121.009L-29.2957 120.185C-29.2549 119.318 -29.2032 118.473 -29.0961 117.573L-37.4072 114.976L-31.8109 96.8772L-33.4475 101.532L-39.0547 119.609L-30.7327 122.228C-30.8399 123.128 -30.8915 123.973 -30.9432 124.818L-30.9507 125.641C-30.9449 126.212 -30.9719 126.772 -30.9548 127.31C-30.9377 127.849 -30.9167 127.948 -30.9197 128.277C-30.9226 128.606 -30.8516 129.255 -30.8119 129.727C-30.7722 130.2 -30.73 130.398 -30.6888 130.705C-30.6476 131.013 -30.6393 131.31 -30.5761 131.607C-30.5128 131.904 -30.4465 131.871 -30.3817 132.003C-30.317 132.136 -30.2449 132.674 -30.1821 133.026C-30.1193 133.378 -30.0026 133.84 -29.8853 134.247C-29.7681 134.654 -29.7156 134.929 -29.6194 135.237C-29.5233 135.545 -29.2524 135.986 -29.2343 136.415C-29.2162 136.843 -28.932 137.032 -28.7917 137.318C-28.6513 137.605 -28.4246 138.068 -28.2519 138.42C-28.0792 138.773 -27.9496 139.038 -27.8093 139.324L-27.5934 139.765C-27.3991 140.162 -27.194 140.58 -26.9888 140.999C-23.5002 146.485 -18.0738 150.459 -11.784 152.134C-7.72323 153.588 -3.35946 153.997 0.905197 153.324C4.30434 152.692 7.5188 151.304 10.3104 149.264C13.0254 147.224 15.4133 144.783 17.3915 142.024C19.4515 139.184 21.3019 136.42 22.9859 133.819L26.0544 128.9C26.9338 127.491 27.9474 126.171 29.081 124.958C30.0023 123.958 31.1369 123.178 32.4005 122.676C33.5787 122.251 34.8658 122.237 36.0514 122.637L36.7857 122.905L36.8613 123.06L37.332 123.294L37.5288 123.416C37.6986 123.518 37.8627 123.629 38.0205 123.749C38.0205 123.749 38.0205 123.749 38.0745 123.859C38.2665 123.989 38.4423 124.141 38.5982 124.313C38.5982 124.313 38.6522 124.423 38.6846 124.489C38.769 124.63 38.8412 124.777 38.9004 124.93C38.9004 124.93 38.9652 125.062 39.0084 125.151C39.0948 125.299 39.1705 125.454 39.2351 125.613C39.2732 125.667 39.3024 125.727 39.3215 125.79L39.559 126.275C39.6093 126.35 39.6492 126.431 39.6777 126.517C39.8178 126.748 39.9371 126.992 40.034 127.244C40.1587 127.663 40.2576 128.089 40.3303 128.52L40.4274 128.719C40.6001 129.071 40.5304 129.488 40.5598 129.883C40.5837 129.953 40.6164 130.02 40.6569 130.082C40.6647 130.433 40.6504 130.795 40.6362 131.158L40.701 131.29C40.6694 131.696 40.6106 132.099 40.525 132.497C40.5265 132.597 40.5107 132.697 40.4783 132.793C40.4032 133.223 40.3002 133.647 40.1699 134.064L40.0118 134.524L41.6485 129.869L41.8174 129.431C41.9477 129.015 42.0507 128.59 42.1258 128.16L42.2054 127.875C42.2736 127.472 42.3213 127.065 42.3484 126.657L42.2836 126.525C42.2979 126.163 42.3122 125.8 42.3044 125.449C42.2638 125.387 42.2312 125.321 42.2072 125.251C42.1778 124.855 42.1372 124.493 42.0857 124.108C42.0857 124.108 42.0857 124.108 42.0317 123.998C41.9564 123.567 41.8575 123.141 41.7354 122.722C41.6059 122.457 41.4871 122.215 41.4788 121.918L41.0686 121.081C41.0544 121.025 41.0287 120.972 40.993 120.926C40.9259 120.759 40.8465 120.597 40.7555 120.442C40.7555 120.442 40.6907 120.309 40.6255 120.232Z" fill="url(#paint21_linear_12_2976)"/>
<path d="M-7.51008 121.046C-7.8538 119.054 -7.69924 117.007 -7.0601 115.087C-6.46887 112.946 -5.16883 111.066 -3.37206 109.755C-2.45041 109.147 -1.39587 108.77 -0.297967 108.656C0.799937 108.542 1.90878 108.693 2.93444 109.098L9.84643 86.5837C3.57761 84.2979 -3.30096 84.2907 -9.58279 86.5633C-15.5968 89.1333 -20.5191 93.7303 -23.4894 99.551L-31.9321 96.9093L-37.5285 115.008L-29.2173 117.605C-30.1588 124.117 -28.9121 130.753 -25.6722 136.474C-22.1836 141.959 -16.7572 145.933 -10.4674 147.609C-6.40899 149.073 -2.04254 149.483 2.22179 148.799C5.62093 148.167 8.83543 146.779 11.627 144.739C14.3496 142.707 16.7387 140.265 18.7081 137.499C20.7681 134.659 22.6293 131.916 24.3025 129.293L27.371 124.374C28.2595 122.972 29.2724 121.653 30.3977 120.432C31.3189 119.433 32.4535 118.653 33.7171 118.15C34.8953 117.725 36.1824 117.711 37.3681 118.111C38.4188 118.41 39.3708 118.981 40.1268 119.768C40.8827 120.555 41.4155 121.529 41.6707 122.589C42.3191 124.855 42.2781 127.262 41.5528 129.506C40.869 131.884 39.3912 133.958 37.365 135.383C36.2961 136.111 35.0675 136.571 33.7837 136.724C32.4998 136.878 31.1984 136.719 29.9899 136.263L22.8192 159.424C29.6323 161.893 37.1251 161.748 43.8467 159.017C50.3828 156.078 55.6909 150.956 58.8554 144.533L67.6927 147.309L73.266 129.331L64.308 126.531C65.277 119.738 64.029 112.817 60.7488 106.795C57.0467 100.772 51.1457 96.4225 44.2885 94.6631C40.1649 93.1839 35.732 92.7702 31.4015 93.4604C27.9058 94.1505 24.6061 95.608 21.7415 97.7275C18.9306 99.8206 16.4693 102.345 14.4493 105.207C12.3775 108.135 10.4387 110.943 8.67668 113.664L5.60817 118.583C4.73405 119.978 3.72013 121.28 2.58204 122.47C1.68904 123.415 0.621683 124.179 -0.561195 124.72C-1.69559 125.186 -2.96244 125.212 -4.11346 124.793C-4.98699 124.573 -5.77541 124.1 -6.37973 123.433C-6.98404 122.767 -7.3773 121.936 -7.51008 121.046Z" fill="url(#paint22_linear_12_2976)"/>
<path d="M100.201 156.472C97.225 166.129 92.3606 175.103 85.8895 182.874C79.4184 190.646 71.4693 197.06 62.5029 201.746C52.1867 207.15 40.9041 210.462 29.3067 211.49C17.7093 212.518 6.0271 211.241 -5.0651 207.733C-51.0103 193.784 -78.3761 147.532 -66.056 104.633C-63.1885 94.722 -58.3351 85.4925 -51.7906 77.5047C-45.2461 69.5169 -37.1468 62.9375 -27.9844 58.1657C-17.6772 52.7799 -6.40846 49.4819 5.17278 48.4617C16.754 47.4415 28.4188 48.7193 39.4952 52.2215C85.4404 66.1712 112.806 112.422 100.464 155.332C100.439 155.673 100.336 156.078 100.201 156.472ZM-62.0089 104.564L-62.338 105.681C-74.0791 146.575 -47.8925 190.699 -3.94296 204.041C6.66151 207.409 17.8336 208.64 28.9258 207.663C40.018 206.686 50.8097 203.521 60.6755 198.35C69.1995 193.909 76.7569 187.821 82.908 180.44C89.0592 173.06 93.6813 164.534 96.5053 155.359L96.8564 154.23C108.598 113.336 82.411 69.2127 38.4615 55.8705C27.857 52.503 16.6849 51.272 5.59268 52.2488C-5.49953 53.2256 -16.2912 56.3908 -26.157 61.561C-34.6837 66.0045 -42.2441 72.0943 -48.3988 79.4766C-54.5535 86.8589 -59.1798 95.3865 -62.0089 104.564Z" fill="url(#paint23_linear_12_2976)"/>
<path d="M-4.53451 110.625C-5.62661 111.721 -6.44493 113.058 -6.92304 114.528L-8.55973 119.183C-7.93616 117.236 -6.70257 115.539 -5.0411 114.344C-4.12195 113.73 -3.06706 113.35 -1.96801 113.235C-0.868958 113.121 0.241 113.276 1.26541 113.687L2.90206 109.032C1.8764 108.627 0.767558 108.475 -0.330345 108.59C-1.42825 108.704 -2.48279 109.081 -3.40444 109.689C-3.80525 109.971 -4.18312 110.284 -4.53451 110.625Z" fill="url(#paint24_radial_12_2976)"/>
<path d="M43.9026 158.907C37.1811 161.638 29.6883 161.784 22.8751 159.315L30.0459 136.154L28.4632 140.919L21.2925 164.08C28.1091 166.528 35.5942 166.383 42.3199 163.672C48.849 160.724 54.1541 155.604 57.3287 149.188L66.166 151.965L67.8027 147.31L58.9654 144.533C55.7668 150.924 50.4407 156.007 43.9026 158.907Z" fill="url(#paint25_radial_12_2976)"/>
<path d="M40.6255 120.232C40.526 120.096 40.4169 119.966 40.2991 119.845L40.2127 119.669C40.0535 119.506 39.8861 119.351 39.7112 119.204L39.6572 119.094C39.4994 118.974 39.3352 118.863 39.1654 118.761L38.9794 118.661L38.4979 118.405L38.3119 118.305L37.5777 118.036C36.392 117.636 35.1049 117.65 33.9267 118.075C32.6631 118.577 31.5285 119.357 30.6073 120.357C29.482 121.578 28.4691 122.897 27.5806 124.299L24.5121 129.218C22.8605 131.885 20.9993 134.628 18.9177 137.424C16.9483 140.189 14.5592 142.632 11.8367 144.663C9.04503 146.704 5.83057 148.091 2.43143 148.724C-1.8329 149.407 -6.19939 148.998 -10.2578 147.533C-16.5476 145.858 -21.974 141.884 -25.4626 136.398C-25.7325 135.847 -26.0024 135.296 -26.2831 134.723C-26.5638 134.15 -26.5746 134.128 -26.7257 133.82C-26.8768 133.511 -27.0819 133.092 -27.2547 132.74C-27.4274 132.387 -27.5569 132.123 -27.7081 131.814C-27.8592 131.506 -28.0643 131.087 -28.0932 130.636C-28.1221 130.186 -28.2742 129.987 -28.3591 129.646C-28.444 129.305 -28.5607 128.843 -28.6559 128.425C-28.751 128.007 -28.8035 127.732 -28.8555 127.403C-28.9075 127.073 -28.9904 126.512 -29.0521 126.051C-29.1139 125.589 -29.1453 125.413 -29.1752 125.072C-29.2051 124.732 -29.2325 124.117 -29.283 123.622C-29.3335 123.128 -29.3104 123.007 -29.3074 122.678C-29.3044 122.348 -29.3082 121.558 -29.3032 121.009L-29.2957 120.185C-29.2549 119.318 -29.2032 118.473 -29.0961 117.573L-37.4072 114.976L-31.8109 96.8772L-33.4475 101.532L-39.0547 119.609L-30.7327 122.228C-30.8399 123.128 -30.8915 123.973 -30.9432 124.818L-30.9507 125.641C-30.9449 126.212 -30.9719 126.772 -30.9548 127.31C-30.9377 127.849 -30.9167 127.948 -30.9197 128.277C-30.9226 128.606 -30.8516 129.255 -30.8119 129.727C-30.7722 130.2 -30.73 130.398 -30.6888 130.705C-30.6476 131.013 -30.6393 131.31 -30.5761 131.607C-30.5128 131.904 -30.4465 131.871 -30.3817 132.003C-30.317 132.136 -30.2449 132.674 -30.1821 133.026C-30.1193 133.378 -30.0026 133.84 -29.8853 134.247C-29.7681 134.654 -29.7156 134.929 -29.6194 135.237C-29.5233 135.545 -29.2524 135.986 -29.2343 136.415C-29.2162 136.843 -28.932 137.032 -28.7917 137.318C-28.6513 137.605 -28.4246 138.068 -28.2519 138.42C-28.0792 138.773 -27.9496 139.038 -27.8093 139.324L-27.5934 139.765C-27.3991 140.162 -27.194 140.58 -26.9888 140.999C-23.5002 146.485 -18.0738 150.459 -11.784 152.134C-7.72323 153.588 -3.35946 153.997 0.905197 153.324C4.30434 152.692 7.5188 151.304 10.3104 149.264C13.0254 147.224 15.4133 144.783 17.3915 142.024C19.4515 139.184 21.3019 136.42 22.9859 133.819L26.0544 128.9C26.9338 127.491 27.9474 126.171 29.081 124.958C30.0023 123.958 31.1369 123.178 32.4005 122.676C33.5787 122.251 34.8658 122.237 36.0514 122.637L36.7857 122.905L36.8613 123.06L37.332 123.294L37.5288 123.416C37.6986 123.518 37.8627 123.629 38.0205 123.749C38.0205 123.749 38.0205 123.749 38.0745 123.859C38.2665 123.989 38.4423 124.141 38.5982 124.313C38.5982 124.313 38.6522 124.423 38.6846 124.489C38.769 124.63 38.8412 124.777 38.9004 124.93C38.9004 124.93 38.9652 125.062 39.0084 125.151C39.0948 125.299 39.1705 125.454 39.2351 125.613C39.2732 125.667 39.3024 125.727 39.3215 125.79L39.559 126.275C39.6093 126.35 39.6492 126.431 39.6777 126.517C39.8178 126.748 39.9371 126.992 40.034 127.244C40.1587 127.663 40.2576 128.089 40.3303 128.52L40.4274 128.719C40.6001 129.071 40.5304 129.488 40.5598 129.883C40.5837 129.953 40.6164 130.02 40.6569 130.082C40.6647 130.433 40.6504 130.795 40.6362 131.158L40.701 131.29C40.6694 131.696 40.6106 132.099 40.525 132.497C40.5265 132.597 40.5107 132.697 40.4783 132.793C40.4032 133.223 40.3002 133.647 40.1699 134.064L40.0118 134.524L41.6485 129.869L41.8174 129.431C41.9477 129.015 42.0507 128.59 42.1258 128.16L42.2054 127.875C42.2736 127.472 42.3213 127.065 42.3484 126.657L42.2836 126.525C42.2979 126.163 42.3122 125.8 42.3044 125.449C42.2638 125.387 42.2312 125.321 42.2072 125.251C42.1778 124.855 42.1372 124.493 42.0857 124.108C42.0857 124.108 42.0857 124.108 42.0317 123.998C41.9564 123.567 41.8575 123.141 41.7354 122.722C41.6059 122.457 41.4871 122.215 41.4788 121.918L41.0686 121.081C41.0544 121.025 41.0287 120.972 40.993 120.926C40.9259 120.759 40.8465 120.597 40.7555 120.442C40.7555 120.442 40.6907 120.309 40.6255 120.232Z" fill="url(#paint26_radial_12_2976)"/>
<path d="M-4.53451 110.625C-5.62661 111.721 -6.44493 113.058 -6.92304 114.528L-8.55973 119.183C-7.93616 117.236 -6.70257 115.539 -5.0411 114.344C-4.12195 113.73 -3.06706 113.35 -1.96801 113.235C-0.868958 113.121 0.241 113.276 1.26541 113.687L2.90206 109.032C1.8764 108.627 0.767558 108.475 -0.330345 108.59C-1.42825 108.704 -2.48279 109.081 -3.40444 109.689C-3.80525 109.971 -4.18312 110.284 -4.53451 110.625Z" fill="url(#paint27_radial_12_2976)"/>
<path d="M43.9026 158.907C37.1811 161.638 29.6883 161.784 22.8751 159.315L30.0459 136.154L28.4632 140.919L21.2925 164.08C28.1091 166.528 35.5942 166.383 42.3199 163.672C48.849 160.724 54.1541 155.604 57.3287 149.188L66.166 151.965L67.8027 147.31L58.9654 144.533C55.7668 150.924 50.4407 156.007 43.9026 158.907Z" fill="url(#paint28_radial_12_2976)"/>
<path d="M40.6255 120.232C40.526 120.096 40.4169 119.966 40.2991 119.845L40.2127 119.669C40.0535 119.506 39.8861 119.351 39.7112 119.204L39.6572 119.094C39.4994 118.974 39.3352 118.863 39.1654 118.761L38.9794 118.661L38.4979 118.405L38.3119 118.305L37.5777 118.036C36.392 117.636 35.1049 117.65 33.9267 118.075C32.6631 118.577 31.5285 119.357 30.6073 120.357C29.482 121.578 28.4691 122.897 27.5806 124.299L24.5121 129.218C22.8605 131.885 20.9993 134.628 18.9177 137.424C16.9483 140.189 14.5592 142.632 11.8367 144.663C9.04503 146.704 5.83057 148.091 2.43143 148.724C-1.8329 149.407 -6.19939 148.998 -10.2578 147.533C-16.5476 145.858 -21.974 141.884 -25.4626 136.398C-25.7325 135.847 -26.0024 135.296 -26.2831 134.723C-26.5638 134.15 -26.5746 134.128 -26.7257 133.82C-26.8768 133.511 -27.0819 133.092 -27.2547 132.74C-27.4274 132.387 -27.5569 132.123 -27.7081 131.814C-27.8592 131.506 -28.0643 131.087 -28.0932 130.636C-28.1221 130.186 -28.2742 129.987 -28.3591 129.646C-28.444 129.305 -28.5607 128.843 -28.6559 128.425C-28.751 128.007 -28.8035 127.732 -28.8555 127.403C-28.9075 127.073 -28.9904 126.512 -29.0521 126.051C-29.1139 125.589 -29.1453 125.413 -29.1752 125.072C-29.2051 124.732 -29.2325 124.117 -29.283 123.622C-29.3335 123.128 -29.3104 123.007 -29.3074 122.678C-29.3044 122.348 -29.3082 121.558 -29.3032 121.009L-29.2957 120.185C-29.2549 119.318 -29.2032 118.473 -29.0961 117.573L-37.4072 114.976L-31.8109 96.8772L-33.4475 101.532L-39.0547 119.609L-30.7327 122.228C-30.8399 123.128 -30.8915 123.973 -30.9432 124.818L-30.9507 125.641C-30.9449 126.212 -30.9719 126.772 -30.9548 127.31C-30.9377 127.849 -30.9167 127.948 -30.9197 128.277C-30.9226 128.606 -30.8516 129.255 -30.8119 129.727C-30.7722 130.2 -30.73 130.398 -30.6888 130.705C-30.6476 131.013 -30.6393 131.31 -30.5761 131.607C-30.5128 131.904 -30.4465 131.871 -30.3817 132.003C-30.317 132.136 -30.2449 132.674 -30.1821 133.026C-30.1193 133.378 -30.0026 133.84 -29.8853 134.247C-29.7681 134.654 -29.7156 134.929 -29.6194 135.237C-29.5233 135.545 -29.2524 135.986 -29.2343 136.415C-29.2162 136.843 -28.932 137.032 -28.7917 137.318C-28.6513 137.605 -28.4246 138.068 -28.2519 138.42C-28.0792 138.773 -27.9496 139.038 -27.8093 139.324L-27.5934 139.765C-27.3991 140.162 -27.194 140.58 -26.9888 140.999C-23.5002 146.485 -18.0738 150.459 -11.784 152.134C-7.72323 153.588 -3.35946 153.997 0.905197 153.324C4.30434 152.692 7.5188 151.304 10.3104 149.264C13.0254 147.224 15.4133 144.783 17.3915 142.024C19.4515 139.184 21.3019 136.42 22.9859 133.819L26.0544 128.9C26.9338 127.491 27.9474 126.171 29.081 124.958C30.0023 123.958 31.1369 123.178 32.4005 122.676C33.5787 122.251 34.8658 122.237 36.0514 122.637L36.7857 122.905L36.8613 123.06L37.332 123.294L37.5288 123.416C37.6986 123.518 37.8627 123.629 38.0205 123.749C38.0205 123.749 38.0205 123.749 38.0745 123.859C38.2665 123.989 38.4423 124.141 38.5982 124.313C38.5982 124.313 38.6522 124.423 38.6846 124.489C38.769 124.63 38.8412 124.777 38.9004 124.93C38.9004 124.93 38.9652 125.062 39.0084 125.151C39.0948 125.299 39.1705 125.454 39.2351 125.613C39.2732 125.667 39.3024 125.727 39.3215 125.79L39.559 126.275C39.6093 126.35 39.6492 126.431 39.6777 126.517C39.8178 126.748 39.9371 126.992 40.034 127.244C40.1587 127.663 40.2576 128.089 40.3303 128.52L40.4274 128.719C40.6001 129.071 40.5304 129.488 40.5598 129.883C40.5837 129.953 40.6164 130.02 40.6569 130.082C40.6647 130.433 40.6504 130.795 40.6362 131.158L40.701 131.29C40.6694 131.696 40.6106 132.099 40.525 132.497C40.5265 132.597 40.5107 132.697 40.4783 132.793C40.4032 133.223 40.3002 133.647 40.1699 134.064L40.0118 134.524L41.6485 129.869L41.8174 129.431C41.9477 129.015 42.0507 128.59 42.1258 128.16L42.2054 127.875C42.2736 127.472 42.3213 127.065 42.3484 126.657L42.2836 126.525C42.2979 126.163 42.3122 125.8 42.3044 125.449C42.2638 125.387 42.2312 125.321 42.2072 125.251C42.1778 124.855 42.1372 124.493 42.0857 124.108C42.0857 124.108 42.0857 124.108 42.0317 123.998C41.9564 123.567 41.8575 123.141 41.7354 122.722C41.6059 122.457 41.4871 122.215 41.4788 121.918L41.0686 121.081C41.0544 121.025 41.0287 120.972 40.993 120.926C40.9259 120.759 40.8465 120.597 40.7555 120.442C40.7555 120.442 40.6907 120.309 40.6255 120.232Z" fill="url(#paint29_radial_12_2976)"/>
<path d="M-4.53451 110.625C-5.62661 111.721 -6.44493 113.058 -6.92304 114.528L-8.55973 119.183C-7.93616 117.236 -6.70257 115.539 -5.0411 114.344C-4.12195 113.73 -3.06706 113.35 -1.96801 113.235C-0.868958 113.121 0.241 113.276 1.26541 113.687L2.90206 109.032C1.8764 108.627 0.767558 108.475 -0.330345 108.59C-1.42825 108.704 -2.48279 109.081 -3.40444 109.689C-3.80525 109.971 -4.18312 110.284 -4.53451 110.625Z" fill="url(#paint30_radial_12_2976)"/>
<path d="M43.9026 158.907C37.1811 161.638 29.6883 161.784 22.8751 159.315L30.0459 136.154L28.4632 140.919L21.2925 164.08C28.1091 166.528 35.5942 166.383 42.3199 163.672C48.849 160.724 54.1541 155.604 57.3287 149.188L66.166 151.965L67.8027 147.31L58.9654 144.533C55.7668 150.924 50.4407 156.007 43.9026 158.907Z" fill="url(#paint31_radial_12_2976)"/>
<path d="M40.6255 120.232C40.526 120.096 40.4169 119.966 40.2991 119.845L40.2127 119.669C40.0535 119.506 39.8861 119.351 39.7112 119.204L39.6572 119.094C39.4994 118.974 39.3352 118.863 39.1654 118.761L38.9794 118.661L38.4979 118.405L38.3119 118.305L37.5777 118.036C36.392 117.636 35.1049 117.65 33.9267 118.075C32.6631 118.577 31.5285 119.357 30.6073 120.357C29.482 121.578 28.4691 122.897 27.5806 124.299L24.5121 129.218C22.8605 131.885 20.9993 134.628 18.9177 137.424C16.9483 140.189 14.5592 142.632 11.8367 144.663C9.04503 146.704 5.83057 148.091 2.43143 148.724C-1.8329 149.407 -6.19939 148.998 -10.2578 147.533C-16.5476 145.858 -21.974 141.884 -25.4626 136.398C-25.7325 135.847 -26.0024 135.296 -26.2831 134.723C-26.5638 134.15 -26.5746 134.128 -26.7257 133.82C-26.8768 133.511 -27.0819 133.092 -27.2547 132.74C-27.4274 132.387 -27.5569 132.123 -27.7081 131.814C-27.8592 131.506 -28.0643 131.087 -28.0932 130.636C-28.1221 130.186 -28.2742 129.987 -28.3591 129.646C-28.444 129.305 -28.5607 128.843 -28.6559 128.425C-28.751 128.007 -28.8035 127.732 -28.8555 127.403C-28.9075 127.073 -28.9904 126.512 -29.0521 126.051C-29.1139 125.589 -29.1453 125.413 -29.1752 125.072C-29.2051 124.732 -29.2325 124.117 -29.283 123.622C-29.3335 123.128 -29.3104 123.007 -29.3074 122.678C-29.3044 122.348 -29.3082 121.558 -29.3032 121.009L-29.2957 120.185C-29.2549 119.318 -29.2032 118.473 -29.0961 117.573L-37.4072 114.976L-31.8109 96.8772L-33.4475 101.532L-39.0547 119.609L-30.7327 122.228C-30.8399 123.128 -30.8915 123.973 -30.9432 124.818L-30.9507 125.641C-30.9449 126.212 -30.9719 126.772 -30.9548 127.31C-30.9377 127.849 -30.9167 127.948 -30.9197 128.277C-30.9226 128.606 -30.8516 129.255 -30.8119 129.727C-30.7722 130.2 -30.73 130.398 -30.6888 130.705C-30.6476 131.013 -30.6393 131.31 -30.5761 131.607C-30.5128 131.904 -30.4465 131.871 -30.3817 132.003C-30.317 132.136 -30.2449 132.674 -30.1821 133.026C-30.1193 133.378 -30.0026 133.84 -29.8853 134.247C-29.7681 134.654 -29.7156 134.929 -29.6194 135.237C-29.5233 135.545 -29.2524 135.986 -29.2343 136.415C-29.2162 136.843 -28.932 137.032 -28.7917 137.318C-28.6513 137.605 -28.4246 138.068 -28.2519 138.42C-28.0792 138.773 -27.9496 139.038 -27.8093 139.324L-27.5934 139.765C-27.3991 140.162 -27.194 140.58 -26.9888 140.999C-23.5002 146.485 -18.0738 150.459 -11.784 152.134C-7.72323 153.588 -3.35946 153.997 0.905197 153.324C4.30434 152.692 7.5188 151.304 10.3104 149.264C13.0254 147.224 15.4133 144.783 17.3915 142.024C19.4515 139.184 21.3019 136.42 22.9859 133.819L26.0544 128.9C26.9338 127.491 27.9474 126.171 29.081 124.958C30.0023 123.958 31.1369 123.178 32.4005 122.676C33.5787 122.251 34.8658 122.237 36.0514 122.637L36.7857 122.905L36.8613 123.06L37.332 123.294L37.5288 123.416C37.6986 123.518 37.8627 123.629 38.0205 123.749C38.0205 123.749 38.0205 123.749 38.0745 123.859C38.2665 123.989 38.4423 124.141 38.5982 124.313C38.5982 124.313 38.6522 124.423 38.6846 124.489C38.769 124.63 38.8412 124.777 38.9004 124.93C38.9004 124.93 38.9652 125.062 39.0084 125.151C39.0948 125.299 39.1705 125.454 39.2351 125.613C39.2732 125.667 39.3024 125.727 39.3215 125.79L39.559 126.275C39.6093 126.35 39.6492 126.431 39.6777 126.517C39.8178 126.748 39.9371 126.992 40.034 127.244C40.1587 127.663 40.2576 128.089 40.3303 128.52L40.4274 128.719C40.6001 129.071 40.5304 129.488 40.5598 129.883C40.5837 129.953 40.6164 130.02 40.6569 130.082C40.6647 130.433 40.6504 130.795 40.6362 131.158L40.701 131.29C40.6694 131.696 40.6106 132.099 40.525 132.497C40.5265 132.597 40.5107 132.697 40.4783 132.793C40.4032 133.223 40.3002 133.647 40.1699 134.064L40.0118 134.524L41.6485 129.869L41.8174 129.431C41.9477 129.015 42.0507 128.59 42.1258 128.16L42.2054 127.875C42.2736 127.472 42.3213 127.065 42.3484 126.657L42.2836 126.525C42.2979 126.163 42.3122 125.8 42.3044 125.449C42.2638 125.387 42.2312 125.321 42.2072 125.251C42.1778 124.855 42.1372 124.493 42.0857 124.108C42.0857 124.108 42.0857 124.108 42.0317 123.998C41.9564 123.567 41.8575 123.141 41.7354 122.722C41.6059 122.457 41.4871 122.215 41.4788 121.918L41.0686 121.081C41.0544 121.025 41.0287 120.972 40.993 120.926C40.9259 120.759 40.8465 120.597 40.7555 120.442C40.7555 120.442 40.6907 120.309 40.6255 120.232Z" fill="url(#paint32_radial_12_2976)"/>
<path d="M-4.53451 110.625C-5.62661 111.721 -6.44493 113.058 -6.92304 114.528L-8.55973 119.183C-7.93616 117.236 -6.70257 115.539 -5.0411 114.344C-4.12195 113.73 -3.06706 113.35 -1.96801 113.235C-0.868958 113.121 0.241 113.276 1.26541 113.687L2.90206 109.032C1.8764 108.627 0.767558 108.475 -0.330345 108.59C-1.42825 108.704 -2.48279 109.081 -3.40444 109.689C-3.80525 109.971 -4.18312 110.284 -4.53451 110.625Z" fill="url(#paint33_linear_12_2976)"/>
<path d="M43.9026 158.907C37.1811 161.638 29.6883 161.784 22.8751 159.315L30.0459 136.154L28.4632 140.919L21.2925 164.08C28.1091 166.528 35.5942 166.383 42.3199 163.672C48.849 160.724 54.1541 155.604 57.3287 149.188L66.166 151.965L67.8027 147.31L58.9654 144.533C55.7668 150.924 50.4407 156.007 43.9026 158.907Z" fill="url(#paint34_linear_12_2976)"/>
<path d="M40.6255 120.232C40.526 120.096 40.4169 119.966 40.2991 119.845L40.2127 119.669C40.0535 119.506 39.8861 119.351 39.7112 119.204L39.6572 119.094C39.4994 118.974 39.3352 118.863 39.1654 118.761L38.9794 118.661L38.4979 118.405L38.3119 118.305L37.5777 118.036C36.392 117.636 35.1049 117.65 33.9267 118.075C32.6631 118.577 31.5285 119.357 30.6073 120.357C29.482 121.578 28.4691 122.897 27.5806 124.299L24.5121 129.218C22.8605 131.885 20.9993 134.628 18.9177 137.424C16.9483 140.189 14.5592 142.632 11.8367 144.663C9.04503 146.704 5.83057 148.091 2.43143 148.724C-1.8329 149.407 -6.19939 148.998 -10.2578 147.533C-16.5476 145.858 -21.974 141.884 -25.4626 136.398C-25.7325 135.847 -26.0024 135.296 -26.2831 134.723C-26.5638 134.15 -26.5746 134.128 -26.7257 133.82C-26.8768 133.511 -27.0819 133.092 -27.2547 132.74C-27.4274 132.387 -27.5569 132.123 -27.7081 131.814C-27.8592 131.506 -28.0643 131.087 -28.0932 130.636C-28.1221 130.186 -28.2742 129.987 -28.3591 129.646C-28.444 129.305 -28.5607 128.843 -28.6559 128.425C-28.751 128.007 -28.8035 127.732 -28.8555 127.403C-28.9075 127.073 -28.9904 126.512 -29.0521 126.051C-29.1139 125.589 -29.1453 125.413 -29.1752 125.072C-29.2051 124.732 -29.2325 124.117 -29.283 123.622C-29.3335 123.128 -29.3104 123.007 -29.3074 122.678C-29.3044 122.348 -29.3082 121.558 -29.3032 121.009L-29.2957 120.185C-29.2549 119.318 -29.2032 118.473 -29.0961 117.573L-37.4072 114.976L-31.8109 96.8772L-33.4475 101.532L-39.0547 119.609L-30.7327 122.228C-30.8399 123.128 -30.8915 123.973 -30.9432 124.818L-30.9507 125.641C-30.9449 126.212 -30.9719 126.772 -30.9548 127.31C-30.9377 127.849 -30.9167 127.948 -30.9197 128.277C-30.9226 128.606 -30.8516 129.255 -30.8119 129.727C-30.7722 130.2 -30.73 130.398 -30.6888 130.705C-30.6476 131.013 -30.6393 131.31 -30.5761 131.607C-30.5128 131.904 -30.4465 131.871 -30.3817 132.003C-30.317 132.136 -30.2449 132.674 -30.1821 133.026C-30.1193 133.378 -30.0026 133.84 -29.8853 134.247C-29.7681 134.654 -29.7156 134.929 -29.6194 135.237C-29.5233 135.545 -29.2524 135.986 -29.2343 136.415C-29.2162 136.843 -28.932 137.032 -28.7917 137.318C-28.6513 137.605 -28.4246 138.068 -28.2519 138.42C-28.0792 138.773 -27.9496 139.038 -27.8093 139.324L-27.5934 139.765C-27.3991 140.162 -27.194 140.58 -26.9888 140.999C-23.5002 146.485 -18.0738 150.459 -11.784 152.134C-7.72323 153.588 -3.35946 153.997 0.905197 153.324C4.30434 152.692 7.5188 151.304 10.3104 149.264C13.0254 147.224 15.4133 144.783 17.3915 142.024C19.4515 139.184 21.3019 136.42 22.9859 133.819L26.0544 128.9C26.9338 127.491 27.9474 126.171 29.081 124.958C30.0023 123.958 31.1369 123.178 32.4005 122.676C33.5787 122.251 34.8658 122.237 36.0514 122.637L36.7857 122.905L36.8613 123.06L37.332 123.294L37.5288 123.416C37.6986 123.518 37.8627 123.629 38.0205 123.749C38.0205 123.749 38.0205 123.749 38.0745 123.859C38.2665 123.989 38.4423 124.141 38.5982 124.313C38.5982 124.313 38.6522 124.423 38.6846 124.489C38.769 124.63 38.8412 124.777 38.9004 124.93C38.9004 124.93 38.9652 125.062 39.0084 125.151C39.0948 125.299 39.1705 125.454 39.2351 125.613C39.2732 125.667 39.3024 125.727 39.3215 125.79L39.559 126.275C39.6093 126.35 39.6492 126.431 39.6777 126.517C39.8178 126.748 39.9371 126.992 40.034 127.244C40.1587 127.663 40.2576 128.089 40.3303 128.52L40.4274 128.719C40.6001 129.071 40.5304 129.488 40.5598 129.883C40.5837 129.953 40.6164 130.02 40.6569 130.082C40.6647 130.433 40.6504 130.795 40.6362 131.158L40.701 131.29C40.6694 131.696 40.6106 132.099 40.525 132.497C40.5265 132.597 40.5107 132.697 40.4783 132.793C40.4032 133.223 40.3002 133.647 40.1699 134.064L40.0118 134.524L41.6485 129.869L41.8174 129.431C41.9477 129.015 42.0507 128.59 42.1258 128.16L42.2054 127.875C42.2736 127.472 42.3213 127.065 42.3484 126.657L42.2836 126.525C42.2979 126.163 42.3122 125.8 42.3044 125.449C42.2638 125.387 42.2312 125.321 42.2072 125.251C42.1778 124.855 42.1372 124.493 42.0857 124.108C42.0857 124.108 42.0857 124.108 42.0317 123.998C41.9564 123.567 41.8575 123.141 41.7354 122.722C41.6059 122.457 41.4871 122.215 41.4788 121.918L41.0686 121.081C41.0544 121.025 41.0287 120.972 40.993 120.926C40.9259 120.759 40.8465 120.597 40.7555 120.442C40.7555 120.442 40.6907 120.309 40.6255 120.232Z" fill="url(#paint35_linear_12_2976)"/>
<path d="M-4.53451 110.625C-5.62661 111.721 -6.44493 113.058 -6.92304 114.528L-8.55973 119.183C-7.93616 117.236 -6.70257 115.539 -5.0411 114.344C-4.12195 113.73 -3.06706 113.35 -1.96801 113.235C-0.868958 113.121 0.241 113.276 1.26541 113.687L2.90206 109.032C1.8764 108.627 0.767558 108.475 -0.330345 108.59C-1.42825 108.704 -2.48279 109.081 -3.40444 109.689C-3.80525 109.971 -4.18312 110.284 -4.53451 110.625Z" fill="url(#paint36_linear_12_2976)"/>
<path d="M43.9026 158.907C37.1811 161.638 29.6883 161.784 22.8751 159.315L30.0459 136.154L28.4632 140.919L21.2925 164.08C28.1091 166.528 35.5942 166.383 42.3199 163.672C48.849 160.724 54.1541 155.604 57.3287 149.188L66.166 151.965L67.8027 147.31L58.9654 144.533C55.7668 150.924 50.4407 156.007 43.9026 158.907Z" fill="url(#paint37_linear_12_2976)"/>
<path d="M40.6255 120.232C40.526 120.096 40.4169 119.966 40.2991 119.845L40.2127 119.669C40.0535 119.506 39.8861 119.351 39.7112 119.204L39.6572 119.094C39.4994 118.974 39.3352 118.863 39.1654 118.761L38.9794 118.661L38.4979 118.405L38.3119 118.305L37.5777 118.036C36.392 117.636 35.1049 117.65 33.9267 118.075C32.6631 118.577 31.5285 119.357 30.6073 120.357C29.482 121.578 28.4691 122.897 27.5806 124.299L24.5121 129.218C22.8605 131.885 20.9993 134.628 18.9177 137.424C16.9483 140.189 14.5592 142.632 11.8367 144.663C9.04503 146.704 5.83057 148.091 2.43143 148.724C-1.8329 149.407 -6.19939 148.998 -10.2578 147.533C-16.5476 145.858 -21.974 141.884 -25.4626 136.398C-25.7325 135.847 -26.0024 135.296 -26.2831 134.723C-26.5638 134.15 -26.5746 134.128 -26.7257 133.82C-26.8768 133.511 -27.0819 133.092 -27.2547 132.74C-27.4274 132.387 -27.5569 132.123 -27.7081 131.814C-27.8592 131.506 -28.0643 131.087 -28.0932 130.636C-28.1221 130.186 -28.2742 129.987 -28.3591 129.646C-28.444 129.305 -28.5607 128.843 -28.6559 128.425C-28.751 128.007 -28.8035 127.732 -28.8555 127.403C-28.9075 127.073 -28.9904 126.512 -29.0521 126.051C-29.1139 125.589 -29.1453 125.413 -29.1752 125.072C-29.2051 124.732 -29.2325 124.117 -29.283 123.622C-29.3335 123.128 -29.3104 123.007 -29.3074 122.678C-29.3044 122.348 -29.3082 121.558 -29.3032 121.009L-29.2957 120.185C-29.2549 119.318 -29.2032 118.473 -29.0961 117.573L-37.4072 114.976L-31.8109 96.8772L-33.4475 101.532L-39.0547 119.609L-30.7327 122.228C-30.8399 123.128 -30.8915 123.973 -30.9432 124.818L-30.9507 125.641C-30.9449 126.212 -30.9719 126.772 -30.9548 127.31C-30.9377 127.849 -30.9167 127.948 -30.9197 128.277C-30.9226 128.606 -30.8516 129.255 -30.8119 129.727C-30.7722 130.2 -30.73 130.398 -30.6888 130.705C-30.6476 131.013 -30.6393 131.31 -30.5761 131.607C-30.5128 131.904 -30.4465 131.871 -30.3817 132.003C-30.317 132.136 -30.2449 132.674 -30.1821 133.026C-30.1193 133.378 -30.0026 133.84 -29.8853 134.247C-29.7681 134.654 -29.7156 134.929 -29.6194 135.237C-29.5233 135.545 -29.2524 135.986 -29.2343 136.415C-29.2162 136.843 -28.932 137.032 -28.7917 137.318C-28.6513 137.605 -28.4246 138.068 -28.2519 138.42C-28.0792 138.773 -27.9496 139.038 -27.8093 139.324L-27.5934 139.765C-27.3991 140.162 -27.194 140.58 -26.9888 140.999C-23.5002 146.485 -18.0738 150.459 -11.784 152.134C-7.72323 153.588 -3.35946 153.997 0.905197 153.324C4.30434 152.692 7.5188 151.304 10.3104 149.264C13.0254 147.224 15.4133 144.783 17.3915 142.024C19.4515 139.184 21.3019 136.42 22.9859 133.819L26.0544 128.9C26.9338 127.491 27.9474 126.171 29.081 124.958C30.0023 123.958 31.1369 123.178 32.4005 122.676C33.5787 122.251 34.8658 122.237 36.0514 122.637L36.7857 122.905L36.8613 123.06L37.332 123.294L37.5288 123.416C37.6986 123.518 37.8627 123.629 38.0205 123.749C38.0205 123.749 38.0205 123.749 38.0745 123.859C38.2665 123.989 38.4423 124.141 38.5982 124.313C38.5982 124.313 38.6522 124.423 38.6846 124.489C38.769 124.63 38.8412 124.777 38.9004 124.93C38.9004 124.93 38.9652 125.062 39.0084 125.151C39.0948 125.299 39.1705 125.454 39.2351 125.613C39.2732 125.667 39.3024 125.727 39.3215 125.79L39.559 126.275C39.6093 126.35 39.6492 126.431 39.6777 126.517C39.8178 126.748 39.9371 126.992 40.034 127.244C40.1587 127.663 40.2576 128.089 40.3303 128.52L40.4274 128.719C40.6001 129.071 40.5304 129.488 40.5598 129.883C40.5837 129.953 40.6164 130.02 40.6569 130.082C40.6647 130.433 40.6504 130.795 40.6362 131.158L40.701 131.29C40.6694 131.696 40.6106 132.099 40.525 132.497C40.5265 132.597 40.5107 132.697 40.4783 132.793C40.4032 133.223 40.3002 133.647 40.1699 134.064L40.0118 134.524L41.6485 129.869L41.8174 129.431C41.9477 129.015 42.0507 128.59 42.1258 128.16L42.2054 127.875C42.2736 127.472 42.3213 127.065 42.3484 126.657L42.2836 126.525C42.2979 126.163 42.3122 125.8 42.3044 125.449C42.2638 125.387 42.2312 125.321 42.2072 125.251C42.1778 124.855 42.1372 124.493 42.0857 124.108C42.0857 124.108 42.0857 124.108 42.0317 123.998C41.9564 123.567 41.8575 123.141 41.7354 122.722C41.6059 122.457 41.4871 122.215 41.4788 121.918L41.0686 121.081C41.0544 121.025 41.0287 120.972 40.993 120.926C40.9259 120.759 40.8465 120.597 40.7555 120.442C40.7555 120.442 40.6907 120.309 40.6255 120.232Z" fill="url(#paint38_linear_12_2976)"/>
<path d="M-7.51008 121.046C-7.8538 119.054 -7.69924 117.007 -7.0601 115.087C-6.46887 112.946 -5.16883 111.066 -3.37206 109.755C-2.45041 109.147 -1.39587 108.77 -0.297967 108.656C0.799937 108.542 1.90878 108.693 2.93444 109.098L9.84643 86.5837C3.57761 84.2979 -3.30096 84.2907 -9.58279 86.5633C-15.5968 89.1333 -20.5191 93.7303 -23.4894 99.551L-31.9321 96.9093L-37.5285 115.008L-29.2173 117.605C-30.1588 124.117 -28.9121 130.753 -25.6722 136.474C-22.1836 141.959 -16.7572 145.933 -10.4674 147.609C-6.40899 149.073 -2.04254 149.483 2.22179 148.799C5.62093 148.167 8.83543 146.779 11.627 144.739C14.3496 142.707 16.7387 140.265 18.7081 137.499C20.7681 134.659 22.6293 131.916 24.3025 129.293L27.371 124.374C28.2595 122.972 29.2724 121.653 30.3977 120.432C31.3189 119.433 32.4535 118.653 33.7171 118.15C34.8953 117.725 36.1824 117.711 37.3681 118.111C38.4188 118.41 39.3708 118.981 40.1268 119.768C40.8827 120.555 41.4155 121.529 41.6707 122.589C42.3191 124.855 42.2781 127.262 41.5528 129.506C40.869 131.884 39.3912 133.958 37.365 135.383C36.2961 136.111 35.0675 136.571 33.7837 136.724C32.4998 136.878 31.1984 136.719 29.9899 136.263L22.8192 159.424C29.6323 161.893 37.1251 161.748 43.8467 159.017C50.3828 156.078 55.6909 150.956 58.8554 144.533L67.6927 147.309L73.266 129.331L64.308 126.531C65.277 119.738 64.029 112.817 60.7488 106.795C57.0467 100.772 51.1457 96.4225 44.2885 94.6631C40.1649 93.1839 35.732 92.7702 31.4015 93.4604C27.9058 94.1505 24.6061 95.608 21.7415 97.7275C18.9306 99.8206 16.4693 102.345 14.4493 105.207C12.3775 108.135 10.4387 110.943 8.67668 113.664L5.60817 118.583C4.73405 119.978 3.72013 121.28 2.58204 122.47C1.68904 123.415 0.621683 124.179 -0.561195 124.72C-1.69559 125.186 -2.96244 125.212 -4.11346 124.793C-4.98699 124.573 -5.77541 124.1 -6.37973 123.433C-6.98404 122.767 -7.3773 121.936 -7.51008 121.046Z" fill="url(#paint39_linear_12_2976)"/>
<path style="mix-blend-mode:color-dodge" opacity="0.64" d="M-24.2958 102.378C-21.3254 96.5574 -16.4032 91.9604 -10.3892 89.3904C-4.10555 87.1282 2.76934 87.1355 9.04003 89.4108L9.87881 86.6498C3.60999 84.364 -3.26856 84.3568 -9.55039 86.6294C-15.5644 89.1995 -20.4867 93.7965 -23.457 99.6172L-31.8997 96.9754L-37.4961 115.075L-32.7385 99.7364L-24.2958 102.378Z" fill="url(#paint40_radial_12_2976)"/>
<path style="mix-blend-mode:color-dodge" opacity="0.64" d="M11.6594 144.805C14.382 142.773 16.7711 140.331 18.7405 137.565C20.8005 134.725 22.6617 131.982 24.3349 129.359L27.4034 124.44C28.2918 123.038 29.3048 121.719 30.4301 120.498C31.3513 119.499 32.4859 118.719 33.7495 118.217C34.9277 117.791 36.2148 117.777 37.4004 118.177C38.4512 118.476 39.4032 119.048 40.1592 119.834C40.9151 120.621 41.4479 121.595 41.7031 122.656C42.2769 124.59 42.3379 126.641 41.8799 128.608C42.0016 128.307 42.1072 128 42.1961 127.688C42.9098 125.442 42.9507 123.038 42.3139 120.771C42.0539 119.717 41.5205 118.75 40.7671 117.968C40.0137 117.186 39.067 116.616 38.0221 116.315C36.827 115.923 35.5345 115.941 34.3491 116.365C33.092 116.863 31.9644 117.639 31.0517 118.636C29.9106 119.853 28.8897 121.177 28.003 122.589L24.9345 127.508C23.2721 130.153 21.4109 132.896 19.3401 135.714C17.3697 138.476 14.9764 140.912 12.2482 142.931C9.46776 144.988 6.25453 146.385 2.85381 147.014C-2.48603 147.674 -7.90275 146.879 -12.8216 144.713C-17.7404 142.547 -21.9779 139.09 -25.0844 134.71C-28.3491 129.002 -29.6048 122.364 -28.6516 115.853L-36.9627 113.256L-37.5181 115.085L-29.207 117.682C-30.1485 124.194 -28.9017 130.83 -25.6619 136.551C-22.1733 142.036 -16.7469 146.01 -10.4571 147.686C-6.39868 149.15 -2.03223 149.56 2.2321 148.876C5.63987 148.243 8.8623 146.852 11.6594 144.805Z" fill="url(#paint41_linear_12_2976)"/>
<path style="mix-blend-mode:color-dodge" d="M-2.81664 107.926C-4.61341 109.237 -5.91345 111.116 -6.50468 113.257L-6.71046 114.123C-6.0543 112.37 -4.89249 110.85 -3.37206 109.755C-2.45041 109.147 -1.39587 108.77 -0.297966 108.656C0.799936 108.542 1.90878 108.693 2.93444 109.098L9.84642 86.5837L3.50165 107.181C2.46865 106.78 1.3526 106.639 0.251136 106.768C-0.85033 106.898 -1.90364 107.296 -2.81664 107.926Z" fill="url(#paint42_linear_12_2976)"/>
<path d="M68.3041 145.37L59.4889 142.583C56.2958 148.995 50.9868 154.115 44.458 157.078C37.7417 159.8 30.2579 159.941 23.4527 157.474L22.8751 159.315C29.6883 161.784 37.1811 161.639 43.9026 158.907C50.4387 155.969 55.7469 150.846 58.9114 144.423L67.7487 147.2L73.322 129.221L68.3041 145.37Z" fill="url(#paint43_linear_12_2976)"/>
<path style="mix-blend-mode:color-dodge" opacity="0.64" d="M31.4575 93.351C27.9617 94.0411 24.6621 95.4987 21.7974 97.6181C18.9866 99.7112 16.5252 102.236 14.5053 105.098C12.4335 108.026 10.4947 110.833 8.73267 113.555L5.66415 118.474C4.79004 119.868 3.77608 121.171 2.638 122.361C1.745 123.306 0.677636 124.07 -0.505242 124.611C-1.63964 125.076 -2.90649 125.103 -4.05751 124.684C-4.91328 124.458 -5.68462 123.989 -6.27789 123.334C-6.87117 122.679 -7.26085 121.865 -7.39963 120.992C-7.65115 119.511 -7.62245 117.995 -7.31503 116.524C-7.49732 116.938 -7.6554 117.362 -7.78843 117.794C-8.42756 119.714 -8.58213 121.761 -8.23841 123.753C-8.09963 124.626 -7.70994 125.44 -7.11667 126.095C-6.52339 126.75 -5.75206 127.219 -4.89629 127.445C-3.74526 127.864 -2.4784 127.838 -1.344 127.372C-0.161125 126.831 0.90622 126.067 1.79922 125.122C2.93731 123.932 3.95126 122.629 4.82537 121.235L7.89389 116.316C9.65594 113.594 11.5947 110.787 13.6665 107.859C15.6865 104.997 18.1478 102.472 20.9587 100.379C23.8233 98.2597 27.123 96.8021 30.6187 96.112C34.9492 95.4219 39.3821 95.8356 43.5057 97.3147C50.3584 99.0835 56.2563 103.431 59.966 109.447C63.2493 115.48 64.4936 122.413 63.5139 129.216L72.4498 132.026L73.3107 129.254L64.3527 126.455C65.3217 119.661 64.0736 112.741 60.7934 106.719C57.0914 100.695 51.1904 96.3459 44.3332 94.5865C40.2159 93.0983 35.787 92.6733 31.4575 93.351Z" fill="url(#paint44_linear_12_2976)"/>
<path d="M100.778 154.687C97.7995 164.342 92.9342 173.315 86.4633 181.086C79.9925 188.857 72.0446 195.272 63.0799 199.96C52.7626 205.368 41.477 208.68 29.8769 209.704C18.2767 210.728 6.59258 209.444 -4.4989 205.926C-50.4441 191.976 -77.7991 145.747 -65.4569 102.837C-62.6088 92.9102 -57.7699 83.6622 -51.2343 75.6551C-44.6987 67.6479 -36.6029 61.0488 -27.4393 56.2591C-17.1053 50.866 -5.80456 47.576 5.80599 46.5802C17.4165 45.5844 29.1053 46.9028 40.193 50.4586C86.1382 64.4083 113.504 110.659 101.173 153.537L100.778 154.687ZM-61.4422 102.701L-61.7825 103.852C-73.5237 144.746 -47.315 188.858 -3.38755 202.211C7.22108 205.579 18.3973 206.809 29.4934 205.83C40.5894 204.851 51.3845 201.684 61.253 196.51C69.7721 192.062 77.3257 185.972 83.4761 178.592C89.6264 171.212 94.2513 162.69 97.0828 153.518L97.401 152.378C109.175 111.495 82.9664 67.383 39.0061 54.0187C28.4007 50.6566 17.2294 49.4284 6.13804 50.4052C-4.95335 51.382 -15.7448 54.5442 -25.6124 59.7092C-34.1291 64.1604 -41.6807 70.2517 -47.8307 77.6311C-53.9807 85.0104 -58.607 93.5313 -61.4422 102.701Z" fill="url(#paint45_linear_12_2976)"/>
</g>
<defs>
<linearGradient id="paint0_linear_12_2976" x1="-102.751" y1="142.673" x2="110.326" y2="207.648" gradientUnits="userSpaceOnUse">
<stop offset="0.01" stop-color="#E5B034"/>
<stop offset="0.08" stop-color="#42210B"/>
<stop offset="0.25" stop-color="#CC9933"/>
<stop offset="0.36" stop-color="#DFB143"/>
<stop offset="0.46" stop-color="#EECD76"/>
<stop offset="0.6" stop-color="#CC9933"/>
<stop offset="0.75" stop-color="#92662C"/>
<stop offset="0.88" stop-color="#E6B82E"/>
<stop offset="1" stop-color="#CC9933"/>
</linearGradient>
<linearGradient id="paint1_linear_12_2976" x1="-95.5161" y1="140.934" x2="97.2306" y2="199.71" gradientUnits="userSpaceOnUse">
<stop stop-color="#FBC926"/>
<stop offset="0.05" stop-color="#FFE89B"/>
<stop offset="0.1" stop-color="#FBC926"/>
<stop offset="0.25" stop-color="#B96E2B"/>
<stop offset="0.4" stop-color="#CC9933"/>
<stop offset="0.54" stop-color="#FCE444"/>
<stop offset="0.64" stop-color="#FBCC34"/>
<stop offset="0.75" stop-color="#B96E2B"/>
<stop offset="0.92" stop-color="#843500"/>
<stop offset="0.99" stop-color="#FBCC34"/>
</linearGradient>
<linearGradient id="paint2_linear_12_2976" x1="-9.45658" y1="217.244" x2="44.1566" y2="39.9856" gradientUnits="userSpaceOnUse">
<stop stop-color="#B96E2B"/>
<stop offset="0.18" stop-color="#FBCC34"/>
<stop offset="0.36" stop-color="#FFE89B"/>
<stop offset="0.57" stop-color="#FFFAC2"/>
<stop offset="0.75" stop-color="#FBCC34"/>
<stop offset="1" stop-color="#B96E2B"/>
</linearGradient>
<linearGradient id="paint3_linear_12_2976" x1="-33.316" y1="24.9839" x2="67.081" y2="245.03" gradientUnits="userSpaceOnUse">
<stop offset="0.01" stop-color="#FBCC34"/>
<stop offset="0.08" stop-color="#843500"/>
<stop offset="0.25" stop-color="#FBCC34"/>
<stop offset="0.36" stop-color="#FBCC34"/>
<stop offset="0.46" stop-color="#FCE444"/>
<stop offset="0.6" stop-color="#FBAE17"/>
<stop offset="0.75" stop-color="#843500"/>
<stop offset="0.9" stop-color="#FBC926"/>
<stop offset="0.95" stop-color="#FFE89B"/>
<stop offset="1" stop-color="#FBC926"/>
</linearGradient>
<linearGradient id="paint4_linear_12_2976" x1="-68.4742" y1="138.769" x2="109.599" y2="118.726" gradientUnits="userSpaceOnUse">
<stop stop-color="#B96E2B"/>
<stop offset="0.18" stop-color="#FBCC34"/>
<stop offset="0.32" stop-color="#F4E09C"/>
<stop offset="0.62" stop-color="#FBCC34"/>
<stop offset="0.81" stop-color="#FBA702"/>
<stop offset="0.96" stop-color="#B96E2B"/>
</linearGradient>
<radialGradient id="paint5_radial_12_2976" cx="0" cy="0" r="1" gradientUnits="userSpaceOnUse" gradientTransform="translate(20.1415 128.526) rotate(-72.7413) scale(54.1466 55.3772)">
<stop offset="0.01" stop-color="#873713"/>
<stop offset="1" stop-color="white"/>
</radialGradient>
<radialGradient id="paint6_radial_12_2976" cx="0" cy="0" r="1" gradientUnits="userSpaceOnUse" gradientTransform="translate(-746.895 -102.086) rotate(-73.0625) scale(53.7006 53.7091)">
<stop offset="0.01" stop-color="#873713"/>
<stop offset="1" stop-color="white"/>
</radialGradient>
<radialGradient id="paint7_radial_12_2976" cx="0" cy="0" r="1" gradientUnits="userSpaceOnUse" gradientTransform="translate(-746.894 -102.085) rotate(-73.0624) scale(53.7005 53.709)">
<stop offset="0.01" stop-color="#873713"/>
<stop offset="1" stop-color="white"/>
</radialGradient>
<radialGradient id="paint8_radial_12_2976" cx="0" cy="0" r="1" gradientUnits="userSpaceOnUse" gradientTransform="translate(-746.894 -102.086) rotate(-73.0625) scale(53.7005 53.709)">
<stop offset="0.01" stop-color="#873713"/>
<stop offset="1" stop-color="white"/>
</radialGradient>
<radialGradient id="paint9_radial_12_2976" cx="0" cy="0" r="1" gradientUnits="userSpaceOnUse" gradientTransform="translate(-746.895 -102.086) rotate(-73.0625) scale(53.7006 53.7091)">
<stop offset="0.01" stop-color="#873713"/>
<stop offset="1" stop-color="white"/>
</radialGradient>
<radialGradient id="paint10_radial_12_2976" cx="0" cy="0" r="1" gradientUnits="userSpaceOnUse" gradientTransform="translate(-746.894 -102.085) rotate(-73.0624) scale(53.7005 53.709)">
<stop offset="0.01" stop-color="#873713"/>
<stop offset="1" stop-color="white"/>
</radialGradient>
<radialGradient id="paint11_radial_12_2976" cx="0" cy="0" r="1" gradientUnits="userSpaceOnUse" gradientTransform="translate(-746.894 -102.086) rotate(-73.0625) scale(53.7005 53.709)">
<stop offset="0.01" stop-color="#873713"/>
<stop offset="1" stop-color="white"/>
</radialGradient>
<radialGradient id="paint12_radial_12_2976" cx="0" cy="0" r="1" gradientUnits="userSpaceOnUse" gradientTransform="translate(-746.895 -102.086) rotate(-73.0625) scale(53.7006 53.7091)">
<stop offset="0.01" stop-color="#873713"/>
<stop offset="1" stop-color="white"/>
</radialGradient>
<radialGradient id="paint13_radial_12_2976" cx="0" cy="0" r="1" gradientUnits="userSpaceOnUse" gradientTransform="translate(-746.894 -102.085) rotate(-73.0624) scale(53.7005 53.709)">
<stop offset="0.01" stop-color="#873713"/>
<stop offset="1" stop-color="white"/>
</radialGradient>
<radialGradient id="paint14_radial_12_2976" cx="0" cy="0" r="1" gradientUnits="userSpaceOnUse" gradientTransform="translate(-746.894 -102.086) rotate(-73.0625) scale(53.7005 53.709)">
<stop offset="0.01" stop-color="#873713"/>
<stop offset="1" stop-color="white"/>
</radialGradient>
<radialGradient id="paint15_radial_12_2976" cx="0" cy="0" r="1" gradientUnits="userSpaceOnUse" gradientTransform="translate(-746.895 -102.086) rotate(-73.0625) scale(53.7005 53.709)">
<stop offset="0.01" stop-color="#873713"/>
<stop offset="1" stop-color="white"/>
</radialGradient>
<linearGradient id="paint16_linear_12_2976" x1="-836.576" y1="-86.8785" x2="-666.681" y2="-106.066" gradientUnits="userSpaceOnUse">
<stop offset="0.31" stop-color="#FBCC34"/>
<stop offset="0.99" stop-color="#FB8905"/>
</linearGradient>
<linearGradient id="paint17_linear_12_2976" x1="-836.575" y1="-86.8776" x2="-666.681" y2="-106.065" gradientUnits="userSpaceOnUse">
<stop offset="0.31" stop-color="#FBCC34"/>
<stop offset="0.99" stop-color="#FB8905"/>
</linearGradient>
<linearGradient id="paint18_linear_12_2976" x1="-836.575" y1="-86.8779" x2="-666.681" y2="-106.065" gradientUnits="userSpaceOnUse">
<stop offset="0.31" stop-color="#FBCC34"/>
<stop offset="0.99" stop-color="#FB8905"/>
</linearGradient>
<linearGradient id="paint19_linear_12_2976" x1="-11.077" y1="114.517" x2="1.08636" y2="113.138" gradientUnits="userSpaceOnUse">
<stop offset="0.01" stop-color="#FBAE17"/>
<stop offset="1" stop-color="#873713"/>
</linearGradient>
<linearGradient id="paint20_linear_12_2976" x1="18.8362" y1="152.1" x2="65.4703" y2="146.818" gradientUnits="userSpaceOnUse">
<stop offset="0.01" stop-color="#FBAE17"/>
<stop offset="1" stop-color="#873713"/>
</linearGradient>
<linearGradient id="paint21_linear_12_2976" x1="-38.3161" y1="127.642" x2="39.509" y2="118.87" gradientUnits="userSpaceOnUse">
<stop offset="0.01" stop-color="#FBAE17"/>
<stop offset="1" stop-color="#873713"/>
</linearGradient>
<linearGradient id="paint22_linear_12_2976" x1="-75.445" y1="133.274" x2="103.34" y2="113.098" gradientUnits="userSpaceOnUse">
<stop offset="0.31" stop-color="#FBCC34"/>
<stop offset="0.99" stop-color="#FB8905"/>
</linearGradient>
<linearGradient id="paint23_linear_12_2976" x1="-63.2475" y1="139.067" x2="103.409" y2="120.303" gradientUnits="userSpaceOnUse">
<stop offset="0.01" stop-color="#FBAE17"/>
<stop offset="1" stop-color="#873713"/>
</linearGradient>
<radialGradient id="paint24_radial_12_2976" cx="0" cy="0" r="1" gradientUnits="userSpaceOnUse" gradientTransform="translate(-750.483 -90.4709) rotate(-73.0625) scale(48.9212 48.9289)">
<stop offset="0.01" stop-color="#873713"/>
<stop offset="1" stop-color="white"/>
</radialGradient>
<radialGradient id="paint25_radial_12_2976" cx="0" cy="0" r="1" gradientUnits="userSpaceOnUse" gradientTransform="translate(-750.483 -90.4699) rotate(-73.0624) scale(48.9211 48.9289)">
<stop offset="0.01" stop-color="#873713"/>
<stop offset="1" stop-color="white"/>
</radialGradient>
<radialGradient id="paint26_radial_12_2976" cx="0" cy="0" r="1" gradientUnits="userSpaceOnUse" gradientTransform="translate(-750.483 -90.4703) rotate(-73.0625) scale(48.9211 48.9289)">
<stop offset="0.01" stop-color="#873713"/>
<stop offset="1" stop-color="white"/>
</radialGradient>
<radialGradient id="paint27_radial_12_2976" cx="0" cy="0" r="1" gradientUnits="userSpaceOnUse" gradientTransform="translate(-750.483 -90.4709) rotate(-73.0625) scale(48.9212 48.9289)">
<stop offset="0.01" stop-color="#873713"/>
<stop offset="1" stop-color="white"/>
</radialGradient>
<radialGradient id="paint28_radial_12_2976" cx="0" cy="0" r="1" gradientUnits="userSpaceOnUse" gradientTransform="translate(-750.483 -90.4699) rotate(-73.0624) scale(48.9211 48.9289)">
<stop offset="0.01" stop-color="#873713"/>
<stop offset="1" stop-color="white"/>
</radialGradient>
<radialGradient id="paint29_radial_12_2976" cx="0" cy="0" r="1" gradientUnits="userSpaceOnUse" gradientTransform="translate(-750.483 -90.4703) rotate(-73.0625) scale(48.9211 48.9289)">
<stop offset="0.01" stop-color="#873713"/>
<stop offset="1" stop-color="white"/>
</radialGradient>
<radialGradient id="paint30_radial_12_2976" cx="0" cy="0" r="1" gradientUnits="userSpaceOnUse" gradientTransform="translate(-750.483 -90.4709) rotate(-73.0625) scale(48.9212 48.9289)">
<stop offset="0.01" stop-color="#873713"/>
<stop offset="1" stop-color="white"/>
</radialGradient>
<radialGradient id="paint31_radial_12_2976" cx="0" cy="0" r="1" gradientUnits="userSpaceOnUse" gradientTransform="translate(-750.483 -90.4699) rotate(-73.0624) scale(48.9211 48.9289)">
<stop offset="0.01" stop-color="#873713"/>
<stop offset="1" stop-color="white"/>
</radialGradient>
<radialGradient id="paint32_radial_12_2976" cx="0" cy="0" r="1" gradientUnits="userSpaceOnUse" gradientTransform="translate(-750.483 -90.4703) rotate(-73.0625) scale(48.9211 48.9289)">
<stop offset="0.01" stop-color="#873713"/>
<stop offset="1" stop-color="white"/>
</radialGradient>
<linearGradient id="paint33_linear_12_2976" x1="-836.576" y1="-86.8785" x2="-666.681" y2="-106.066" gradientUnits="userSpaceOnUse">
<stop offset="0.31" stop-color="#FBCC34"/>
<stop offset="0.99" stop-color="#FB8905"/>
</linearGradient>
<linearGradient id="paint34_linear_12_2976" x1="-836.575" y1="-86.8776" x2="-666.681" y2="-106.065" gradientUnits="userSpaceOnUse">
<stop offset="0.31" stop-color="#FBCC34"/>
<stop offset="0.99" stop-color="#FB8905"/>
</linearGradient>
<linearGradient id="paint35_linear_12_2976" x1="-836.575" y1="-86.8779" x2="-666.681" y2="-106.065" gradientUnits="userSpaceOnUse">
<stop offset="0.31" stop-color="#FBCC34"/>
<stop offset="0.99" stop-color="#FB8905"/>
</linearGradient>
<linearGradient id="paint36_linear_12_2976" x1="-11.077" y1="114.517" x2="1.08636" y2="113.138" gradientUnits="userSpaceOnUse">
<stop offset="0.01" stop-color="#FBAE17"/>
<stop offset="1" stop-color="#873713"/>
</linearGradient>
<linearGradient id="paint37_linear_12_2976" x1="18.8362" y1="152.1" x2="65.4703" y2="146.818" gradientUnits="userSpaceOnUse">
<stop offset="0.01" stop-color="#FBAE17"/>
<stop offset="1" stop-color="#873713"/>
</linearGradient>
<linearGradient id="paint38_linear_12_2976" x1="-38.3161" y1="127.642" x2="39.509" y2="118.87" gradientUnits="userSpaceOnUse">
<stop offset="0.01" stop-color="#FBAE17"/>
<stop offset="1" stop-color="#873713"/>
</linearGradient>
<linearGradient id="paint39_linear_12_2976" x1="-73.2402" y1="133.17" x2="105.958" y2="112.981" gradientUnits="userSpaceOnUse">
<stop offset="0.31" stop-color="#FBCC34"/>
<stop offset="0.99" stop-color="#FB8905"/>
</linearGradient>
<radialGradient id="paint40_radial_12_2976" cx="0" cy="0" r="1" gradientUnits="userSpaceOnUse" gradientTransform="translate(-12.5735 88.6361) rotate(-73.0415) scale(39.7992 39.8055)">
<stop/>
<stop offset="1" stop-color="white"/>
</radialGradient>
<linearGradient id="paint41_linear_12_2976" x1="-1.10824" y1="168.975" x2="2.64459" y2="118.338" gradientUnits="userSpaceOnUse">
<stop stop-color="white"/>
<stop offset="0.57"/>
</linearGradient>
<linearGradient id="paint42_linear_12_2976" x1="-12.6865" y1="113.858" x2="9.2979" y2="95.3364" gradientUnits="userSpaceOnUse">
<stop stop-color="white"/>
<stop offset="1"/>
</linearGradient>
<linearGradient id="paint43_linear_12_2976" x1="3.31211" y1="150.857" x2="91.6314" y2="140.912" gradientUnits="userSpaceOnUse">
<stop offset="0.31" stop-color="#FBCC34"/>
<stop offset="0.99" stop-color="#FB8905"/>
</linearGradient>
<linearGradient id="paint44_linear_12_2976" x1="38.6791" y1="86.0943" x2="30.9735" y2="134.466" gradientUnits="userSpaceOnUse">
<stop stop-color="white"/>
<stop offset="0.57"/>
</linearGradient>
<linearGradient id="paint45_linear_12_2976" x1="-126.264" y1="144.467" x2="156.766" y2="112.605" gradientUnits="userSpaceOnUse">
<stop offset="0.31" stop-color="#FBCC34"/>
<stop offset="0.99" stop-color="#FB8905"/>
</linearGradient>
<clipPath id="clip0_12_2976">
<rect width="197" height="198" fill="white" transform="translate(-116 86.6575) rotate(-26.0966)"/>
</clipPath>
</defs>
</svg>
