<svg width="108" height="163" viewBox="0 0 108 163" fill="none" xmlns="http://www.w3.org/2000/svg">
<g clip-path="url(#clip0_12_3075)" filter="url(#filter0_f_12_3075)">
<path d="M21.6915 65.4706C21.2275 66.9957 20.8664 68.5501 20.6106 70.1231C20.4096 71.4619 20.0767 73.2173 19.9431 74.5565C19.8096 75.8957 19.6302 77.8273 19.6444 79.2282C19.5601 82.236 19.7517 85.2446 20.2169 88.2165C20.6553 91.1824 21.3301 94.1083 22.2348 96.9661C22.6817 98.2557 23.2594 99.984 23.7741 101.24C24.2887 102.497 25.0023 104.125 25.625 105.362C26.9586 108.076 28.4997 110.683 30.2344 113.161C33.7881 118.244 38.0737 122.775 42.9529 126.608C45.4445 128.587 48.0867 130.369 50.8556 131.939C53.6644 133.593 56.6066 135.011 59.6518 136.178C64.3068 137.963 69.1436 139.236 74.0766 139.974C77.2437 140.36 80.4293 140.578 83.6201 140.629C86.746 140.608 89.8661 140.352 92.9541 139.862C102.012 138.481 110.621 134.988 118.081 129.666C120.507 127.932 122.787 126.003 124.897 123.897C125.796 122.954 127.028 121.73 127.866 120.766C129.196 119.126 130.889 116.855 132.072 115.12C133.631 112.623 135.018 110.023 136.223 107.338C125.007 133.38 94.3268 146.882 64.4254 137.796C32.1768 127.998 13.048 95.6332 21.7114 65.5111C22.3364 63.3419 23.0945 61.213 23.9813 59.1364C23.2025 60.976 22.3156 63.5894 21.6915 65.4706Z" fill="url(#paint0_linear_12_3075)"/>
<path d="M23.9615 59.0958L25.7533 54.866C24.8592 56.9358 24.0988 59.0606 23.4767 61.2272C14.8201 91.3628 33.9286 123.721 66.1908 133.512C96.1057 142.592 126.786 129.089 137.988 103.054L136.196 107.283C124.98 133.326 94.3003 146.828 64.3989 137.742C32.1503 127.944 13.0215 95.5792 21.6849 65.457C22.3126 63.2923 23.0729 61.1679 23.9615 59.0958Z" fill="url(#paint1_linear_12_3075)"/>
<path d="M97.5914 24.388C94.4343 23.416 91.2049 22.6945 87.9333 22.23C84.7411 21.7587 81.5162 21.5393 78.2885 21.574C76.8853 21.6244 74.983 21.6847 73.6198 21.7826C72.0578 21.907 70.5029 22.1092 68.9609 22.3885C66.2787 22.9145 62.7439 23.7576 60.1274 24.4862C58.6708 24.9171 57.2407 25.4329 55.8443 26.031C54.5648 26.5739 52.8523 27.2619 51.6323 27.9265C49.3279 29.1893 46.3171 30.9993 44.1189 32.4448C41.6803 34.1398 39.4011 36.0529 37.3094 38.1602C35.1858 40.2481 33.2431 42.5118 31.502 44.9268C30.306 46.6692 28.8003 49.0827 27.7247 50.9337C27.0667 52.094 26.3909 53.7324 25.8067 54.9404C24.9126 57.0103 24.1521 59.1351 23.5301 61.3017C14.8734 91.4373 33.982 123.795 66.2441 133.586C96.1591 142.666 126.839 129.164 138.041 103.128C138.8 101.248 139.68 98.6883 140.325 96.7466C140.395 96.5114 139.65 96.0885 138.621 95.7712C130.243 124.932 98.1445 140.889 66.9384 131.402C35.7323 121.915 17.2211 90.6058 25.5992 61.4446C33.9773 32.2835 66.062 16.3331 97.2817 25.8135C128.501 35.2938 146.992 66.6302 138.621 95.7712C139.65 96.0885 140.421 96.5655 140.325 96.7466C141.222 93.7185 141.832 90.6136 142.149 87.4727C142.328 84.8205 142.455 81.2386 142.331 78.6179C142.289 77.2302 142.036 75.41 141.785 74.0747C141.333 71.1114 140.659 68.1866 139.767 65.325C139.3 64.0286 138.784 62.2873 138.228 61.0508C137.05 58.2783 135.723 55.571 134.256 52.9402C133.552 51.7431 132.561 50.2003 131.795 49.1172C131.029 48.0341 129.876 46.571 129.036 45.4402C128.197 44.3094 126.894 42.9867 125.953 41.9225C123.814 39.6526 121.512 37.5425 119.064 35.6092C117.932 34.7389 116.385 33.5693 115.225 32.8133C114.065 32.0573 112.368 31.028 111.141 30.2716C109.913 29.5151 108.134 28.694 106.845 28.0179C103.851 26.59 100.759 25.377 97.5914 24.388Z" fill="url(#paint2_linear_12_3075)"/>
<path d="M136.417 101.795C148.407 73.9516 133.799 40.968 103.788 28.1246C73.7769 15.2812 39.7283 27.4414 27.7381 55.2853C15.7478 83.1292 30.3565 116.113 60.3673 128.956C90.3782 141.8 124.427 129.639 136.417 101.795Z" fill="url(#paint3_linear_12_3075)"/>
<path d="M136.3 96.5894C134.355 102.902 131.174 108.767 126.943 113.847C122.712 118.926 117.514 123.117 111.652 126.178C104.885 129.727 97.484 131.901 89.8757 132.575C82.2675 133.249 74.6036 132.41 67.3278 130.105C37.191 120.949 19.2373 90.6406 27.3021 62.5548C27.3786 62.2994 27.4687 62.0374 27.5385 61.7685C29.491 55.4576 32.6765 49.5938 36.9109 44.5162C41.1452 39.4385 46.3443 35.248 52.2073 32.187C58.9747 28.6448 66.3755 26.4757 73.9821 25.8051C81.5887 25.1344 89.2503 25.9754 96.5241 28.2796C126.661 37.4356 144.608 67.7308 136.55 95.8302C136.447 96.0315 136.37 96.2869 136.3 96.5894Z" fill="url(#paint4_linear_12_3075)"/>
<path style="mix-blend-mode:multiply" d="M83.6329 62.0482C81.8026 63.4368 80.2052 65.1076 78.9008 66.9975C77.539 68.9272 76.2812 70.7836 75.1275 72.5666L73.1422 75.8186C72.581 76.7535 71.9317 77.6328 71.203 78.4445C70.634 79.0711 69.9463 79.5789 69.1797 79.9384C68.4684 80.2524 67.6636 80.2803 66.9332 80.0163C66.4006 79.8647 65.9234 79.5629 65.5587 79.1469C65.1941 78.7309 64.9575 78.2185 64.8774 77.6712C64.6841 76.3588 64.8049 75.0188 65.2299 73.7609C65.6248 72.3628 66.4675 71.1317 67.6289 70.256C68.208 69.8525 68.8777 69.5978 69.5785 69.5148C70.2793 69.4318 70.9895 69.5229 71.6459 69.7801L76.3186 55.038C72.3294 53.5808 67.9434 53.6207 63.976 55.1504C60.0859 56.8966 56.9129 59.9243 54.9892 63.7258L49.5627 61.9757L45.7993 73.8756L51.0512 75.5436C50.3638 79.7668 51.0801 84.0961 53.0905 87.8695C55.22 91.4076 58.6371 93.9852 62.6287 95.0641C65.1986 96.0005 67.9714 96.2436 70.6679 95.769C72.8499 95.3273 74.9052 94.4008 76.6812 93.0583C78.4436 91.6992 79.9907 90.0825 81.2703 88.2628C82.6091 86.4003 83.8057 84.5906 84.894 82.834L86.9603 79.5759C87.5326 78.6375 88.1909 77.7539 88.9265 76.9367C89.5148 76.287 90.2375 75.7729 91.0444 75.4301C91.7904 75.1398 92.6146 75.1219 93.3715 75.3796C94.0404 75.5717 94.6436 75.9431 95.1157 76.4534C95.5878 76.9638 95.9107 77.5937 96.0496 78.2748C96.4536 79.781 96.404 81.3736 95.9068 82.8534C95.4496 84.4137 94.4887 85.7801 93.1739 86.7397C92.5007 87.2302 91.7159 87.5456 90.8906 87.6572C90.0653 87.7688 89.2255 87.6731 88.4472 87.3788L83.6152 102.584C87.955 104.153 92.7332 104.012 96.9787 102.19C101.199 100.181 104.621 96.8102 106.689 92.623L112.257 94.3876L116.013 82.5752L110.351 80.7898C111.047 76.3813 110.336 71.8683 108.317 67.8915C107.205 65.9656 105.72 64.281 103.948 62.936C102.175 61.591 100.152 60.6127 97.9955 60.058C95.3864 59.1096 92.572 58.8638 89.835 59.3455C87.5945 59.78 85.4767 60.7028 83.6329 62.0482Z" fill="url(#paint5_radial_12_3075)"/>
<path d="M68.3655 67.8503C67.6957 68.5224 67.1938 69.3425 66.9006 70.244L65.8967 73.099C66.2792 71.9048 67.0358 70.8643 68.0548 70.1312C68.6186 69.7547 69.2656 69.5212 69.9397 69.451C70.6138 69.3808 71.2945 69.4759 71.9228 69.7282L72.9267 66.8733C72.2976 66.6248 71.6175 66.5317 70.9441 66.6018C70.2707 66.672 69.6239 66.9033 69.0587 67.2762C68.8128 67.449 68.5811 67.641 68.3655 67.8503Z" fill="url(#paint6_radial_12_3075)"/>
<path d="M98.0738 97.4633C93.9513 99.1384 89.3557 99.2274 85.1769 97.7131L89.575 83.5078L88.6043 86.4304L84.2062 100.636C88.3871 102.137 92.9779 102.048 97.1031 100.386C101.108 98.5772 104.361 95.4372 106.308 91.5023L111.729 93.2051L112.733 90.3502L107.312 88.6473C105.351 92.5671 102.084 95.6844 98.0738 97.4633Z" fill="url(#paint7_radial_12_3075)"/>
<path d="M96.0638 73.7424C96.0028 73.6587 95.9359 73.5795 95.8636 73.5053L95.8107 73.3971C95.713 73.297 95.6103 73.2019 95.5031 73.112L95.4699 73.0444C95.3731 72.971 95.2724 72.9028 95.1683 72.8402L95.0542 72.7788L94.7589 72.6217L94.6448 72.5603L94.1945 72.3954C93.4673 72.1502 92.6778 72.1586 91.9552 72.4195C91.1802 72.7276 90.4843 73.2059 89.9193 73.819C89.2292 74.5677 88.6079 75.377 88.0629 76.2368L86.1809 79.2537C85.1679 80.8897 84.0264 82.5718 82.7497 84.2866C81.5418 85.9829 80.0765 87.4811 78.4066 88.7269C76.6944 89.9783 74.7229 90.8294 72.6381 91.2172C70.0226 91.6366 67.3445 91.3855 64.8553 90.4872C60.9976 89.4596 57.6694 87.0223 55.5297 83.6578C55.3642 83.3198 55.1986 82.9819 55.0265 82.6304C54.8543 82.279 54.8477 82.2655 54.755 82.0762C54.6623 81.887 54.5365 81.6301 54.4306 81.4139C54.3246 81.1976 54.2452 81.0354 54.1525 80.8461C54.0598 80.6569 53.934 80.4 53.9163 80.1238C53.8986 79.8475 53.8053 79.7256 53.7532 79.5165C53.7012 79.3073 53.6295 79.0239 53.5712 78.7676C53.5128 78.5112 53.4806 78.3426 53.4487 78.1404C53.4169 77.9381 53.366 77.5943 53.3281 77.3111C53.2902 77.028 53.271 76.9201 53.2526 76.7112C53.2343 76.5023 53.2175 76.125 53.1866 75.8217C53.1556 75.5184 53.1697 75.4445 53.1716 75.2424C53.1734 75.0404 53.1711 74.5555 53.1741 74.2188L53.1787 73.7137C53.2038 73.1818 53.2355 72.6635 53.3012 72.1117L48.2037 70.519L51.6361 59.4181L50.6323 62.2731L47.1932 73.3604L52.2974 74.9667C52.2317 75.5185 52.2 76.0368 52.1683 76.5551L52.1637 77.0602C52.1672 77.4104 52.1507 77.7538 52.1611 78.0839C52.1716 78.4139 52.1846 78.4747 52.1827 78.6767C52.1809 78.8787 52.2245 79.2764 52.2488 79.5661C52.2732 79.8559 52.299 79.9773 52.3243 80.1661C52.3496 80.3549 52.3547 80.5367 52.3935 80.7188C52.4323 80.901 52.4729 80.8811 52.5126 80.9622C52.5524 81.0433 52.5966 81.3736 52.6351 81.5894C52.6736 81.8052 52.7452 82.0886 52.8171 82.3383C52.889 82.588 52.9212 82.7566 52.9802 82.9456C53.0392 83.1346 53.2053 83.4052 53.2164 83.6679C53.2275 83.9306 53.4018 84.0464 53.4879 84.2221C53.574 84.3978 53.713 84.6817 53.8189 84.898C53.9249 85.1143 54.0043 85.2765 54.0904 85.4522L54.2228 85.7226C54.342 85.9659 54.4678 86.2227 54.5936 86.4795C56.7333 89.844 60.0615 92.2814 63.9193 93.309C66.4099 94.2008 69.0863 94.4519 71.702 94.039C73.7868 93.6512 75.7583 92.8001 77.4705 91.5486C79.1358 90.2976 80.6003 88.8003 81.8136 87.1084C83.0771 85.3665 84.212 83.6709 85.2448 82.0755L87.1269 79.0586C87.6662 78.1949 88.2879 77.3852 88.9832 76.6408C89.5482 76.0277 90.2441 75.5494 91.0191 75.2413C91.7418 74.9804 92.5312 74.972 93.2584 75.2172L93.7087 75.3821L93.7551 75.4767L94.0438 75.6202L94.1645 75.6952C94.2686 75.7578 94.3693 75.826 94.4661 75.8994C94.4661 75.8994 94.4661 75.8994 94.4992 75.967C94.617 76.0468 94.7248 76.1402 94.8204 76.2455C94.8204 76.2455 94.8535 76.3131 94.8734 76.3536C94.9252 76.4398 94.9695 76.5302 95.0058 76.6239C95.0058 76.6239 95.0455 76.7051 95.072 76.7591C95.125 76.8504 95.1714 76.9452 95.211 77.043C95.2344 77.0759 95.2523 77.1125 95.264 77.1511L95.4097 77.4485C95.4405 77.4946 95.465 77.5446 95.4825 77.5972C95.5684 77.7391 95.6416 77.8884 95.701 78.0433C95.7775 78.3002 95.8382 78.5615 95.8827 78.8258L95.9423 78.9475C96.0483 79.1638 96.0055 79.4194 96.0235 79.662C96.0382 79.7049 96.0582 79.7458 96.0831 79.7836C96.0879 79.9992 96.0791 80.2213 96.0703 80.4435L96.1101 80.5247C96.0907 80.7735 96.0547 81.0206 96.0022 81.2647C96.0031 81.3264 95.9934 81.3878 95.9736 81.4463C95.9275 81.7101 95.8643 81.9706 95.7844 82.2262L95.6874 82.5083L96.6912 79.6534L96.7948 79.3847C96.8747 79.1291 96.938 78.8686 96.984 78.6049L97.0328 78.4301C97.0747 78.1828 97.1039 77.9335 97.1205 77.6832L97.0808 77.6021C97.0896 77.3799 97.0983 77.1578 97.0935 76.9422C97.0687 76.9043 97.0486 76.8634 97.034 76.8206C97.0159 76.578 96.991 76.3555 96.9594 76.1196C96.9594 76.1196 96.9594 76.1196 96.9263 76.052C96.8801 75.788 96.8194 75.5267 96.7446 75.2694C96.6651 75.1072 96.5923 74.9585 96.5872 74.7767L96.3356 74.263C96.3269 74.2286 96.3111 74.1963 96.2892 74.1684C96.248 74.0658 96.1993 73.9664 96.1436 73.871C96.1436 73.871 96.1038 73.7899 96.0638 73.7424Z" fill="url(#paint8_radial_12_3075)"/>
<path d="M68.3655 67.8503C67.6957 68.5224 67.1938 69.3425 66.9006 70.244L65.8967 73.099C66.2792 71.9048 67.0358 70.8643 68.0548 70.1312C68.6186 69.7547 69.2656 69.5212 69.9397 69.451C70.6138 69.3808 71.2945 69.4759 71.9228 69.7282L72.9267 66.8733C72.2976 66.6248 71.6175 66.5317 70.9441 66.6018C70.2707 66.672 69.6239 66.9033 69.0587 67.2762C68.8128 67.449 68.5811 67.641 68.3655 67.8503Z" fill="url(#paint9_radial_12_3075)"/>
<path d="M98.0738 97.4633C93.9513 99.1384 89.3557 99.2274 85.1769 97.7131L89.575 83.5078L88.6043 86.4304L84.2062 100.636C88.3871 102.137 92.9779 102.048 97.1031 100.386C101.108 98.5772 104.361 95.4372 106.308 91.5023L111.729 93.2051L112.733 90.3502L107.312 88.6473C105.351 92.5671 102.084 95.6844 98.0738 97.4633Z" fill="url(#paint10_radial_12_3075)"/>
<path d="M96.0638 73.7424C96.0028 73.6587 95.9359 73.5795 95.8636 73.5053L95.8107 73.3971C95.713 73.297 95.6103 73.2019 95.5031 73.112L95.4699 73.0444C95.3731 72.971 95.2724 72.9028 95.1683 72.8402L95.0542 72.7788L94.7589 72.6217L94.6448 72.5603L94.1945 72.3954C93.4673 72.1502 92.6778 72.1586 91.9552 72.4195C91.1802 72.7276 90.4843 73.2059 89.9193 73.819C89.2292 74.5677 88.6079 75.377 88.0629 76.2368L86.1809 79.2537C85.1679 80.8897 84.0264 82.5718 82.7497 84.2866C81.5418 85.9829 80.0765 87.4811 78.4066 88.7269C76.6944 89.9783 74.7229 90.8294 72.6381 91.2172C70.0226 91.6366 67.3445 91.3855 64.8553 90.4872C60.9976 89.4596 57.6694 87.0223 55.5297 83.6578C55.3642 83.3198 55.1986 82.9819 55.0265 82.6304C54.8543 82.279 54.8477 82.2655 54.755 82.0762C54.6623 81.887 54.5365 81.6301 54.4306 81.4139C54.3246 81.1976 54.2452 81.0354 54.1525 80.8461C54.0598 80.6569 53.934 80.4 53.9163 80.1238C53.8986 79.8475 53.8053 79.7256 53.7532 79.5165C53.7012 79.3073 53.6295 79.0239 53.5712 78.7676C53.5128 78.5112 53.4806 78.3426 53.4487 78.1404C53.4169 77.9381 53.366 77.5943 53.3281 77.3111C53.2902 77.028 53.271 76.9201 53.2526 76.7112C53.2343 76.5023 53.2175 76.125 53.1866 75.8217C53.1556 75.5184 53.1697 75.4445 53.1716 75.2424C53.1734 75.0404 53.1711 74.5555 53.1741 74.2188L53.1787 73.7137C53.2038 73.1818 53.2355 72.6635 53.3012 72.1117L48.2037 70.519L51.6361 59.4181L50.6323 62.2731L47.1932 73.3604L52.2974 74.9667C52.2317 75.5185 52.2 76.0368 52.1683 76.5551L52.1637 77.0602C52.1672 77.4104 52.1507 77.7538 52.1611 78.0839C52.1716 78.4139 52.1846 78.4747 52.1827 78.6767C52.1809 78.8787 52.2245 79.2764 52.2488 79.5661C52.2732 79.8559 52.299 79.9773 52.3243 80.1661C52.3496 80.3549 52.3547 80.5367 52.3935 80.7188C52.4323 80.901 52.4729 80.8811 52.5126 80.9622C52.5524 81.0433 52.5966 81.3736 52.6351 81.5894C52.6736 81.8052 52.7452 82.0886 52.8171 82.3383C52.889 82.588 52.9212 82.7566 52.9802 82.9456C53.0392 83.1346 53.2053 83.4052 53.2164 83.6679C53.2275 83.9306 53.4018 84.0464 53.4879 84.2221C53.574 84.3978 53.713 84.6817 53.8189 84.898C53.9249 85.1143 54.0043 85.2765 54.0904 85.4522L54.2228 85.7226C54.342 85.9659 54.4678 86.2227 54.5936 86.4795C56.7333 89.844 60.0615 92.2814 63.9193 93.309C66.4099 94.2008 69.0863 94.4519 71.702 94.039C73.7868 93.6512 75.7583 92.8001 77.4705 91.5486C79.1358 90.2976 80.6003 88.8003 81.8136 87.1084C83.0771 85.3665 84.212 83.6709 85.2448 82.0755L87.1269 79.0586C87.6662 78.1949 88.2879 77.3852 88.9832 76.6408C89.5482 76.0277 90.2441 75.5494 91.0191 75.2413C91.7418 74.9804 92.5312 74.972 93.2584 75.2172L93.7087 75.3821L93.7551 75.4767L94.0438 75.6202L94.1645 75.6952C94.2686 75.7578 94.3693 75.826 94.4661 75.8994C94.4661 75.8994 94.4661 75.8994 94.4992 75.967C94.617 76.0468 94.7248 76.1402 94.8204 76.2455C94.8204 76.2455 94.8535 76.3131 94.8734 76.3536C94.9252 76.4398 94.9695 76.5302 95.0058 76.6239C95.0058 76.6239 95.0455 76.7051 95.072 76.7591C95.125 76.8504 95.1714 76.9452 95.211 77.043C95.2344 77.0759 95.2523 77.1125 95.264 77.1511L95.4097 77.4485C95.4405 77.4946 95.465 77.5446 95.4825 77.5972C95.5684 77.7391 95.6416 77.8884 95.701 78.0433C95.7775 78.3002 95.8382 78.5615 95.8827 78.8258L95.9423 78.9475C96.0483 79.1638 96.0055 79.4194 96.0235 79.662C96.0382 79.7049 96.0582 79.7458 96.0831 79.7836C96.0879 79.9992 96.0791 80.2213 96.0703 80.4435L96.1101 80.5247C96.0907 80.7735 96.0547 81.0206 96.0022 81.2647C96.0031 81.3264 95.9934 81.3878 95.9736 81.4463C95.9275 81.7101 95.8643 81.9706 95.7844 82.2262L95.6874 82.5083L96.6912 79.6534L96.7948 79.3847C96.8747 79.1291 96.938 78.8686 96.984 78.6049L97.0328 78.4301C97.0747 78.1828 97.1039 77.9335 97.1205 77.6832L97.0808 77.6021C97.0896 77.3799 97.0983 77.1578 97.0935 76.9422C97.0687 76.9043 97.0486 76.8634 97.034 76.8206C97.0159 76.578 96.991 76.3555 96.9594 76.1196C96.9594 76.1196 96.9594 76.1196 96.9263 76.052C96.8801 75.788 96.8194 75.5267 96.7446 75.2694C96.6651 75.1072 96.5923 74.9585 96.5872 74.7767L96.3356 74.263C96.3269 74.2286 96.3111 74.1963 96.2892 74.1684C96.248 74.0658 96.1993 73.9664 96.1436 73.871C96.1436 73.871 96.1038 73.7899 96.0638 73.7424Z" fill="url(#paint11_radial_12_3075)"/>
<path d="M68.3655 67.8503C67.6957 68.5224 67.1938 69.3425 66.9006 70.244L65.8967 73.099C66.2792 71.9048 67.0358 70.8643 68.0548 70.1312C68.6186 69.7547 69.2656 69.5212 69.9397 69.451C70.6138 69.3808 71.2945 69.4759 71.9228 69.7282L72.9267 66.8733C72.2976 66.6248 71.6175 66.5317 70.9441 66.6018C70.2707 66.672 69.6239 66.9033 69.0587 67.2762C68.8128 67.449 68.5811 67.641 68.3655 67.8503Z" fill="url(#paint12_radial_12_3075)"/>
<path d="M98.0738 97.4633C93.9513 99.1384 89.3557 99.2274 85.1769 97.7131L89.575 83.5078L88.6043 86.4304L84.2062 100.636C88.3871 102.137 92.9779 102.048 97.1031 100.386C101.108 98.5772 104.361 95.4372 106.308 91.5023L111.729 93.2051L112.733 90.3502L107.312 88.6473C105.351 92.5671 102.084 95.6844 98.0738 97.4633Z" fill="url(#paint13_radial_12_3075)"/>
<path d="M96.0638 73.7424C96.0028 73.6587 95.9359 73.5795 95.8636 73.5053L95.8107 73.3971C95.713 73.297 95.6103 73.2019 95.5031 73.112L95.4699 73.0444C95.3731 72.971 95.2724 72.9028 95.1683 72.8402L95.0542 72.7788L94.7589 72.6217L94.6448 72.5603L94.1945 72.3954C93.4673 72.1502 92.6778 72.1586 91.9552 72.4195C91.1802 72.7276 90.4843 73.2059 89.9193 73.819C89.2292 74.5677 88.6079 75.377 88.0629 76.2368L86.1809 79.2537C85.1679 80.8897 84.0264 82.5718 82.7497 84.2866C81.5418 85.9829 80.0765 87.4811 78.4066 88.7269C76.6944 89.9783 74.7229 90.8294 72.6381 91.2172C70.0226 91.6366 67.3445 91.3855 64.8553 90.4872C60.9976 89.4596 57.6694 87.0223 55.5297 83.6578C55.3642 83.3198 55.1986 82.9819 55.0265 82.6304C54.8543 82.279 54.8477 82.2655 54.755 82.0762C54.6623 81.887 54.5365 81.6301 54.4306 81.4139C54.3246 81.1976 54.2452 81.0354 54.1525 80.8461C54.0598 80.6569 53.934 80.4 53.9163 80.1238C53.8986 79.8475 53.8053 79.7256 53.7532 79.5165C53.7012 79.3073 53.6295 79.0239 53.5712 78.7676C53.5128 78.5112 53.4806 78.3426 53.4487 78.1404C53.4169 77.9381 53.366 77.5943 53.3281 77.3111C53.2902 77.028 53.271 76.9201 53.2526 76.7112C53.2343 76.5023 53.2175 76.125 53.1866 75.8217C53.1556 75.5184 53.1697 75.4445 53.1716 75.2424C53.1734 75.0404 53.1711 74.5555 53.1741 74.2188L53.1787 73.7137C53.2038 73.1818 53.2355 72.6635 53.3012 72.1117L48.2037 70.519L51.6361 59.4181L50.6323 62.2731L47.1932 73.3604L52.2974 74.9667C52.2317 75.5185 52.2 76.0368 52.1683 76.5551L52.1637 77.0602C52.1672 77.4104 52.1507 77.7538 52.1611 78.0839C52.1716 78.4139 52.1846 78.4747 52.1827 78.6767C52.1809 78.8787 52.2245 79.2764 52.2488 79.5661C52.2732 79.8559 52.299 79.9773 52.3243 80.1661C52.3496 80.3549 52.3547 80.5367 52.3935 80.7188C52.4323 80.901 52.4729 80.8811 52.5126 80.9622C52.5524 81.0433 52.5966 81.3736 52.6351 81.5894C52.6736 81.8052 52.7452 82.0886 52.8171 82.3383C52.889 82.588 52.9212 82.7566 52.9802 82.9456C53.0392 83.1346 53.2053 83.4052 53.2164 83.6679C53.2275 83.9306 53.4018 84.0464 53.4879 84.2221C53.574 84.3978 53.713 84.6817 53.8189 84.898C53.9249 85.1143 54.0043 85.2765 54.0904 85.4522L54.2228 85.7226C54.342 85.9659 54.4678 86.2227 54.5936 86.4795C56.7333 89.844 60.0615 92.2814 63.9193 93.309C66.4099 94.2008 69.0863 94.4519 71.702 94.039C73.7868 93.6512 75.7583 92.8001 77.4705 91.5486C79.1358 90.2976 80.6003 88.8003 81.8136 87.1084C83.0771 85.3665 84.212 83.6709 85.2448 82.0755L87.1269 79.0586C87.6662 78.1949 88.2879 77.3852 88.9832 76.6408C89.5482 76.0277 90.2441 75.5494 91.0191 75.2413C91.7418 74.9804 92.5312 74.972 93.2584 75.2172L93.7087 75.3821L93.7551 75.4767L94.0438 75.6202L94.1645 75.6952C94.2686 75.7578 94.3693 75.826 94.4661 75.8994C94.4661 75.8994 94.4661 75.8994 94.4992 75.967C94.617 76.0468 94.7248 76.1402 94.8204 76.2455C94.8204 76.2455 94.8535 76.3131 94.8734 76.3536C94.9252 76.4398 94.9695 76.5302 95.0058 76.6239C95.0058 76.6239 95.0455 76.7051 95.072 76.7591C95.125 76.8504 95.1714 76.9452 95.211 77.043C95.2344 77.0759 95.2523 77.1125 95.264 77.1511L95.4097 77.4485C95.4405 77.4946 95.465 77.5446 95.4825 77.5972C95.5684 77.7391 95.6416 77.8884 95.701 78.0433C95.7775 78.3002 95.8382 78.5615 95.8827 78.8258L95.9423 78.9475C96.0483 79.1638 96.0055 79.4194 96.0235 79.662C96.0382 79.7049 96.0582 79.7458 96.0831 79.7836C96.0879 79.9992 96.0791 80.2213 96.0703 80.4435L96.1101 80.5247C96.0907 80.7735 96.0547 81.0206 96.0022 81.2647C96.0031 81.3264 95.9934 81.3878 95.9736 81.4463C95.9275 81.7101 95.8643 81.9706 95.7844 82.2262L95.6874 82.5083L96.6912 79.6534L96.7948 79.3847C96.8747 79.1291 96.938 78.8686 96.984 78.6049L97.0328 78.4301C97.0747 78.1828 97.1039 77.9335 97.1205 77.6832L97.0808 77.6021C97.0896 77.3799 97.0983 77.1578 97.0935 76.9422C97.0687 76.9043 97.0486 76.8634 97.034 76.8206C97.0159 76.578 96.991 76.3555 96.9594 76.1196C96.9594 76.1196 96.9594 76.1196 96.9263 76.052C96.8801 75.788 96.8194 75.5267 96.7446 75.2694C96.6651 75.1072 96.5923 74.9585 96.5872 74.7767L96.3356 74.263C96.3269 74.2286 96.3111 74.1963 96.2892 74.1684C96.248 74.0658 96.1993 73.9664 96.1436 73.871C96.1436 73.871 96.1038 73.7899 96.0638 73.7424Z" fill="url(#paint14_radial_12_3075)"/>
<path d="M66.5406 74.2418C66.3298 73.0199 66.4246 71.7644 66.8166 70.5869C67.1792 69.2735 67.9766 68.1208 69.0786 67.3167C69.6439 66.9439 70.2907 66.7125 70.964 66.6424C71.6374 66.5722 72.3175 66.6654 72.9466 66.9138L77.186 53.1048C73.3411 51.7028 69.1222 51.6984 65.2693 53.0922C61.5808 54.6685 58.5618 57.488 56.7399 61.0581L51.5617 59.4378L48.1293 70.5386L53.2268 72.1314C52.6494 76.1252 53.414 80.1951 55.4011 83.704C57.5408 87.0685 60.869 89.5058 64.7268 90.5334C67.2159 91.4317 69.894 91.6829 72.5095 91.2634C74.5943 90.8756 76.5659 90.0245 78.2781 88.7731C79.9479 87.5273 81.4132 86.0291 82.6211 84.3328C83.8846 82.5909 85.0261 80.9088 86.0524 79.2999L87.9344 76.283C88.4793 75.4232 89.1006 74.614 89.7907 73.8652C90.3558 73.2521 91.0516 72.7738 91.8267 72.4657C92.5493 72.2048 93.3387 72.1964 94.0659 72.4416C94.7104 72.6246 95.2943 72.9754 95.7579 73.458C96.2216 73.9406 96.5484 74.5377 96.7048 75.1883C97.1026 76.5776 97.0774 78.0543 96.6326 79.4307C96.2132 80.8892 95.3068 82.1612 94.0641 83.0353C93.4084 83.4817 92.6549 83.7638 91.8675 83.8578C91.08 83.9517 90.2819 83.8547 89.5406 83.5749L85.1426 97.7802C89.3213 99.2945 93.9169 99.2055 98.0395 97.5304C102.048 95.7281 105.304 92.5862 107.245 88.6468L112.665 90.3497L116.083 79.3229L110.589 77.606C111.183 73.4393 110.418 69.1947 108.406 65.5013C106.136 61.8069 102.516 59.1392 98.3105 58.0601C95.7813 57.1529 93.0624 56.8992 90.4064 57.3225C88.2624 57.7457 86.2386 58.6397 84.4816 59.9396C82.7576 61.2234 81.248 62.7718 80.0091 64.5272C78.7384 66.3228 77.5492 68.045 76.4685 69.7141L74.5865 72.7311C74.0504 73.5865 73.4285 74.3853 72.7305 75.1152C72.1827 75.6949 71.5281 76.1635 70.8026 76.4952C70.1068 76.7808 69.3298 76.7968 68.6239 76.54C68.0881 76.405 67.6045 76.1148 67.2339 75.7059C66.8632 75.297 66.622 74.7877 66.5406 74.2418Z" fill="url(#paint15_radial_12_3075)"/>
<path d="M68.3655 67.8503C67.6957 68.5224 67.1938 69.3425 66.9006 70.244L65.8967 73.099C66.2792 71.9048 67.0358 70.8643 68.0548 70.1312C68.6186 69.7547 69.2656 69.5212 69.9397 69.451C70.6138 69.3808 71.2945 69.4759 71.9228 69.7282L72.9267 66.8733C72.2976 66.6248 71.6175 66.5317 70.9441 66.6018C70.2707 66.672 69.6239 66.9033 69.0587 67.2762C68.8128 67.449 68.5811 67.641 68.3655 67.8503Z" fill="url(#paint16_linear_12_3075)"/>
<path d="M98.0738 97.4633C93.9513 99.1384 89.3557 99.2274 85.1769 97.7131L89.575 83.5078L88.6043 86.4304L84.2062 100.636C88.3871 102.137 92.9779 102.048 97.1031 100.386C101.108 98.5772 104.361 95.4372 106.308 91.5023L111.729 93.2051L112.733 90.3502L107.312 88.6473C105.351 92.5671 102.084 95.6844 98.0738 97.4633Z" fill="url(#paint17_linear_12_3075)"/>
<path d="M96.0638 73.7424C96.0028 73.6587 95.9359 73.5795 95.8636 73.5053L95.8107 73.3971C95.713 73.297 95.6103 73.2019 95.5031 73.112L95.4699 73.0444C95.3731 72.971 95.2724 72.9028 95.1683 72.8402L95.0542 72.7788L94.7589 72.6217L94.6448 72.5603L94.1945 72.3954C93.4673 72.1502 92.6778 72.1586 91.9552 72.4195C91.1802 72.7276 90.4843 73.2059 89.9193 73.819C89.2292 74.5677 88.6079 75.377 88.0629 76.2368L86.1809 79.2537C85.1679 80.8897 84.0264 82.5718 82.7497 84.2866C81.5418 85.9829 80.0765 87.4811 78.4066 88.7269C76.6944 89.9783 74.7229 90.8294 72.6381 91.2172C70.0226 91.6366 67.3445 91.3855 64.8553 90.4872C60.9976 89.4596 57.6694 87.0223 55.5297 83.6578C55.3642 83.3198 55.1986 82.9819 55.0265 82.6304C54.8543 82.279 54.8477 82.2655 54.755 82.0762C54.6623 81.887 54.5365 81.6301 54.4306 81.4139C54.3246 81.1976 54.2452 81.0354 54.1525 80.8461C54.0598 80.6569 53.934 80.4 53.9163 80.1238C53.8986 79.8475 53.8053 79.7256 53.7532 79.5165C53.7012 79.3073 53.6295 79.0239 53.5712 78.7676C53.5128 78.5112 53.4806 78.3426 53.4487 78.1404C53.4169 77.9381 53.366 77.5943 53.3281 77.3111C53.2902 77.028 53.271 76.9201 53.2526 76.7112C53.2343 76.5023 53.2175 76.125 53.1866 75.8217C53.1556 75.5184 53.1697 75.4445 53.1716 75.2424C53.1734 75.0404 53.1711 74.5555 53.1741 74.2188L53.1787 73.7137C53.2038 73.1818 53.2355 72.6635 53.3012 72.1117L48.2037 70.519L51.6361 59.4181L50.6323 62.2731L47.1932 73.3604L52.2974 74.9667C52.2317 75.5185 52.2 76.0368 52.1683 76.5551L52.1637 77.0602C52.1672 77.4104 52.1507 77.7538 52.1611 78.0839C52.1716 78.4139 52.1846 78.4747 52.1827 78.6767C52.1809 78.8787 52.2245 79.2764 52.2488 79.5661C52.2732 79.8559 52.299 79.9773 52.3243 80.1661C52.3496 80.3549 52.3547 80.5367 52.3935 80.7188C52.4323 80.901 52.4729 80.8811 52.5126 80.9622C52.5524 81.0433 52.5966 81.3736 52.6351 81.5894C52.6736 81.8052 52.7452 82.0886 52.8171 82.3383C52.889 82.588 52.9212 82.7566 52.9802 82.9456C53.0392 83.1346 53.2053 83.4052 53.2164 83.6679C53.2275 83.9306 53.4018 84.0464 53.4879 84.2221C53.574 84.3978 53.713 84.6817 53.8189 84.898C53.9249 85.1143 54.0043 85.2765 54.0904 85.4522L54.2228 85.7226C54.342 85.9659 54.4678 86.2227 54.5936 86.4795C56.7333 89.844 60.0615 92.2814 63.9193 93.309C66.4099 94.2008 69.0863 94.4519 71.702 94.039C73.7868 93.6512 75.7583 92.8001 77.4705 91.5486C79.1358 90.2976 80.6003 88.8003 81.8136 87.1084C83.0771 85.3665 84.212 83.6709 85.2448 82.0755L87.1269 79.0586C87.6662 78.1949 88.2879 77.3852 88.9832 76.6408C89.5482 76.0277 90.2441 75.5494 91.0191 75.2413C91.7418 74.9804 92.5312 74.972 93.2584 75.2172L93.7087 75.3821L93.7551 75.4767L94.0438 75.6202L94.1645 75.6952C94.2686 75.7578 94.3693 75.826 94.4661 75.8994C94.4661 75.8994 94.4661 75.8994 94.4992 75.967C94.617 76.0468 94.7248 76.1402 94.8204 76.2455C94.8204 76.2455 94.8535 76.3131 94.8734 76.3536C94.9252 76.4398 94.9695 76.5302 95.0058 76.6239C95.0058 76.6239 95.0455 76.7051 95.072 76.7591C95.125 76.8504 95.1714 76.9452 95.211 77.043C95.2344 77.0759 95.2523 77.1125 95.264 77.1511L95.4097 77.4485C95.4405 77.4946 95.465 77.5446 95.4825 77.5972C95.5684 77.7391 95.6416 77.8884 95.701 78.0433C95.7775 78.3002 95.8382 78.5615 95.8827 78.8258L95.9423 78.9475C96.0483 79.1638 96.0055 79.4194 96.0235 79.662C96.0382 79.7049 96.0582 79.7458 96.0831 79.7836C96.0879 79.9992 96.0791 80.2213 96.0703 80.4435L96.1101 80.5247C96.0907 80.7735 96.0547 81.0206 96.0022 81.2647C96.0031 81.3264 95.9934 81.3878 95.9736 81.4463C95.9275 81.7101 95.8643 81.9706 95.7844 82.2262L95.6874 82.5083L96.6912 79.6534L96.7948 79.3847C96.8747 79.1291 96.938 78.8686 96.984 78.6049L97.0328 78.4301C97.0747 78.1828 97.1039 77.9335 97.1205 77.6832L97.0808 77.6021C97.0896 77.3799 97.0983 77.1578 97.0935 76.9422C97.0687 76.9043 97.0486 76.8634 97.034 76.8206C97.0159 76.578 96.991 76.3555 96.9594 76.1196C96.9594 76.1196 96.9594 76.1196 96.9263 76.052C96.8801 75.788 96.8194 75.5267 96.7446 75.2694C96.6651 75.1072 96.5923 74.9585 96.5872 74.7767L96.3356 74.263C96.3269 74.2286 96.3111 74.1963 96.2892 74.1684C96.248 74.0658 96.1993 73.9664 96.1436 73.871C96.1436 73.871 96.1038 73.7899 96.0638 73.7424Z" fill="url(#paint18_linear_12_3075)"/>
<path d="M68.3655 67.8503C67.6957 68.5224 67.1938 69.3425 66.9006 70.244L65.8967 73.099C66.2792 71.9048 67.0358 70.8643 68.0548 70.1312C68.6186 69.7547 69.2656 69.5212 69.9397 69.451C70.6138 69.3808 71.2945 69.4759 71.9228 69.7282L72.9267 66.8733C72.2976 66.6248 71.6175 66.5317 70.9441 66.6018C70.2707 66.672 69.6239 66.9033 69.0587 67.2762C68.8128 67.449 68.5811 67.641 68.3655 67.8503Z" fill="url(#paint19_linear_12_3075)"/>
<path d="M98.0738 97.4633C93.9513 99.1384 89.3557 99.2274 85.1769 97.7131L89.575 83.5078L88.6043 86.4304L84.2062 100.636C88.3871 102.137 92.9779 102.048 97.1031 100.386C101.108 98.5772 104.361 95.4372 106.308 91.5023L111.729 93.2051L112.733 90.3502L107.312 88.6473C105.351 92.5671 102.084 95.6844 98.0738 97.4633Z" fill="url(#paint20_linear_12_3075)"/>
<path d="M96.0638 73.7424C96.0028 73.6587 95.9359 73.5795 95.8636 73.5053L95.8107 73.3971C95.713 73.297 95.6103 73.2019 95.5031 73.112L95.4699 73.0444C95.3731 72.971 95.2724 72.9028 95.1683 72.8402L95.0542 72.7788L94.7589 72.6217L94.6448 72.5603L94.1945 72.3954C93.4673 72.1502 92.6778 72.1586 91.9552 72.4195C91.1802 72.7276 90.4843 73.2059 89.9193 73.819C89.2292 74.5677 88.6079 75.377 88.0629 76.2368L86.1809 79.2537C85.1679 80.8897 84.0264 82.5718 82.7497 84.2866C81.5418 85.9829 80.0765 87.4811 78.4066 88.7269C76.6944 89.9783 74.7229 90.8294 72.6381 91.2172C70.0226 91.6366 67.3445 91.3855 64.8553 90.4872C60.9976 89.4596 57.6694 87.0223 55.5297 83.6578C55.3642 83.3198 55.1986 82.9819 55.0265 82.6304C54.8543 82.279 54.8477 82.2655 54.755 82.0762C54.6623 81.887 54.5365 81.6301 54.4306 81.4139C54.3246 81.1976 54.2452 81.0354 54.1525 80.8461C54.0598 80.6569 53.934 80.4 53.9163 80.1238C53.8986 79.8475 53.8053 79.7256 53.7532 79.5165C53.7012 79.3073 53.6295 79.0239 53.5712 78.7676C53.5128 78.5112 53.4806 78.3426 53.4487 78.1404C53.4169 77.9381 53.366 77.5943 53.3281 77.3111C53.2902 77.028 53.271 76.9201 53.2526 76.7112C53.2343 76.5023 53.2175 76.125 53.1866 75.8217C53.1556 75.5184 53.1697 75.4445 53.1716 75.2424C53.1734 75.0404 53.1711 74.5555 53.1741 74.2188L53.1787 73.7137C53.2038 73.1818 53.2355 72.6635 53.3012 72.1117L48.2037 70.519L51.6361 59.4181L50.6323 62.2731L47.1932 73.3604L52.2974 74.9667C52.2317 75.5185 52.2 76.0368 52.1683 76.5551L52.1637 77.0602C52.1672 77.4104 52.1507 77.7538 52.1611 78.0839C52.1716 78.4139 52.1846 78.4747 52.1827 78.6767C52.1809 78.8787 52.2245 79.2764 52.2488 79.5661C52.2732 79.8559 52.299 79.9773 52.3243 80.1661C52.3496 80.3549 52.3547 80.5367 52.3935 80.7188C52.4323 80.901 52.4729 80.8811 52.5126 80.9622C52.5524 81.0433 52.5966 81.3736 52.6351 81.5894C52.6736 81.8052 52.7452 82.0886 52.8171 82.3383C52.889 82.588 52.9212 82.7566 52.9802 82.9456C53.0392 83.1346 53.2053 83.4052 53.2164 83.6679C53.2275 83.9306 53.4018 84.0464 53.4879 84.2221C53.574 84.3978 53.713 84.6817 53.8189 84.898C53.9249 85.1143 54.0043 85.2765 54.0904 85.4522L54.2228 85.7226C54.342 85.9659 54.4678 86.2227 54.5936 86.4795C56.7333 89.844 60.0615 92.2814 63.9193 93.309C66.4099 94.2008 69.0863 94.4519 71.702 94.039C73.7868 93.6512 75.7583 92.8001 77.4705 91.5486C79.1358 90.2976 80.6003 88.8003 81.8136 87.1084C83.0771 85.3665 84.212 83.6709 85.2448 82.0755L87.1269 79.0586C87.6662 78.1949 88.2879 77.3852 88.9832 76.6408C89.5482 76.0277 90.2441 75.5494 91.0191 75.2413C91.7418 74.9804 92.5312 74.972 93.2584 75.2172L93.7087 75.3821L93.7551 75.4767L94.0438 75.6202L94.1645 75.6952C94.2686 75.7578 94.3693 75.826 94.4661 75.8994C94.4661 75.8994 94.4661 75.8994 94.4992 75.967C94.617 76.0468 94.7248 76.1402 94.8204 76.2455C94.8204 76.2455 94.8535 76.3131 94.8734 76.3536C94.9252 76.4398 94.9695 76.5302 95.0058 76.6239C95.0058 76.6239 95.0455 76.7051 95.072 76.7591C95.125 76.8504 95.1714 76.9452 95.211 77.043C95.2344 77.0759 95.2523 77.1125 95.264 77.1511L95.4097 77.4485C95.4405 77.4946 95.465 77.5446 95.4825 77.5972C95.5684 77.7391 95.6416 77.8884 95.701 78.0433C95.7775 78.3002 95.8382 78.5615 95.8827 78.8258L95.9423 78.9475C96.0483 79.1638 96.0055 79.4194 96.0235 79.662C96.0382 79.7049 96.0582 79.7458 96.0831 79.7836C96.0879 79.9992 96.0791 80.2213 96.0703 80.4435L96.1101 80.5247C96.0907 80.7735 96.0547 81.0206 96.0022 81.2647C96.0031 81.3264 95.9934 81.3878 95.9736 81.4463C95.9275 81.7101 95.8643 81.9706 95.7844 82.2262L95.6874 82.5083L96.6912 79.6534L96.7948 79.3847C96.8747 79.1291 96.938 78.8686 96.984 78.6049L97.0328 78.4301C97.0747 78.1828 97.1039 77.9335 97.1205 77.6832L97.0808 77.6021C97.0896 77.3799 97.0983 77.1578 97.0935 76.9422C97.0687 76.9043 97.0486 76.8634 97.034 76.8206C97.0159 76.578 96.991 76.3555 96.9594 76.1196C96.9594 76.1196 96.9594 76.1196 96.9263 76.052C96.8801 75.788 96.8194 75.5267 96.7446 75.2694C96.6651 75.1072 96.5923 74.9585 96.5872 74.7767L96.3356 74.263C96.3269 74.2286 96.3111 74.1963 96.2892 74.1684C96.248 74.0658 96.1993 73.9664 96.1436 73.871C96.1436 73.871 96.1038 73.7899 96.0638 73.7424Z" fill="url(#paint21_linear_12_3075)"/>
<path d="M66.5406 74.2418C66.3298 73.0199 66.4246 71.7644 66.8166 70.5869C67.1792 69.2735 67.9766 68.1208 69.0786 67.3167C69.6439 66.9439 70.2907 66.7125 70.964 66.6424C71.6374 66.5722 72.3175 66.6654 72.9466 66.9138L77.186 53.1048C73.3411 51.7028 69.1222 51.6984 65.2693 53.0922C61.5808 54.6685 58.5618 57.488 56.7399 61.0581L51.5617 59.4378L48.1293 70.5386L53.2268 72.1314C52.6494 76.1252 53.414 80.1951 55.4011 83.704C57.5408 87.0685 60.869 89.5058 64.7268 90.5334C67.2159 91.4317 69.894 91.6829 72.5095 91.2634C74.5943 90.8756 76.5659 90.0245 78.2781 88.7731C79.9479 87.5273 81.4132 86.0291 82.6211 84.3328C83.8846 82.5909 85.0261 80.9088 86.0524 79.2999L87.9344 76.283C88.4793 75.4232 89.1006 74.614 89.7907 73.8652C90.3558 73.2521 91.0516 72.7738 91.8267 72.4657C92.5493 72.2048 93.3387 72.1964 94.0659 72.4416C94.7104 72.6246 95.2943 72.9754 95.7579 73.458C96.2216 73.9406 96.5484 74.5377 96.7048 75.1883C97.1026 76.5776 97.0774 78.0543 96.6326 79.4307C96.2132 80.8892 95.3068 82.1612 94.0641 83.0353C93.4084 83.4817 92.6549 83.7638 91.8675 83.8578C91.08 83.9517 90.2819 83.8547 89.5406 83.5749L85.1426 97.7802C89.3213 99.2945 93.9169 99.2055 98.0395 97.5304C102.048 95.7281 105.304 92.5862 107.245 88.6468L112.665 90.3497L116.083 79.3229L110.589 77.606C111.183 73.4393 110.418 69.1947 108.406 65.5013C106.136 61.8069 102.516 59.1392 98.3105 58.0601C95.7813 57.1529 93.0624 56.8992 90.4064 57.3225C88.2624 57.7457 86.2386 58.6397 84.4816 59.9396C82.7576 61.2234 81.248 62.7718 80.0091 64.5272C78.7384 66.3228 77.5492 68.045 76.4685 69.7141L74.5865 72.7311C74.0504 73.5865 73.4285 74.3853 72.7305 75.1152C72.1827 75.6949 71.5281 76.1635 70.8026 76.4952C70.1068 76.7808 69.3298 76.7968 68.6239 76.54C68.0881 76.405 67.6045 76.1148 67.2339 75.7059C66.8632 75.297 66.622 74.7877 66.5406 74.2418Z" fill="url(#paint22_linear_12_3075)"/>
<path d="M132.603 95.9699C130.778 101.893 127.795 107.397 123.826 112.163C119.857 116.93 114.981 120.864 109.482 123.738C103.155 127.052 96.2346 129.084 89.1215 129.714C82.0085 130.344 74.8434 129.561 68.0401 127.41C39.8604 118.854 23.076 90.4867 30.6324 64.1751C32.3911 58.0963 35.3678 52.4355 39.3818 47.5363C43.3958 42.6371 48.3633 38.6017 53.9829 35.675C60.3047 32.3717 67.2162 30.3489 74.3194 29.7232C81.4225 29.0975 88.577 29.8812 95.3705 32.0292C123.55 40.5851 140.335 68.9525 132.765 95.2707C132.749 95.4793 132.686 95.728 132.603 95.9699ZM33.1146 64.1325L32.9127 64.818C25.7115 89.8997 41.7726 116.962 68.7284 125.145C75.2325 127.211 82.0847 127.966 88.8879 127.367C95.6911 126.768 102.31 124.826 108.361 121.655C113.589 118.931 118.224 115.197 121.997 110.67C125.77 106.143 128.605 100.914 130.337 95.2867L130.552 94.5946C137.753 69.5129 121.692 42.4505 94.7365 34.2673C88.2324 32.2019 81.3801 31.4469 74.5769 32.046C67.7737 32.6451 61.1548 34.5864 55.1038 37.7575C49.874 40.4828 45.237 44.2179 41.4621 48.7457C37.6872 53.2736 34.8497 58.5038 33.1146 64.1325Z" fill="url(#paint23_linear_12_3075)"/>
<path d="M68.3655 67.8503C67.6957 68.5224 67.1938 69.3425 66.9006 70.244L65.8967 73.099C66.2792 71.9048 67.0358 70.8643 68.0548 70.1312C68.6186 69.7547 69.2656 69.5212 69.9397 69.451C70.6138 69.3808 71.2945 69.4759 71.9228 69.7282L72.9267 66.8733C72.2976 66.6248 71.6175 66.5317 70.9441 66.6018C70.2707 66.672 69.6239 66.9033 69.0587 67.2762C68.8128 67.449 68.5811 67.641 68.3655 67.8503Z" fill="url(#paint24_radial_12_3075)"/>
<path d="M98.0738 97.4633C93.9513 99.1384 89.3557 99.2274 85.1769 97.7131L89.575 83.5078L88.6043 86.4304L84.2062 100.636C88.3871 102.137 92.9779 102.048 97.1031 100.386C101.108 98.5772 104.361 95.4372 106.308 91.5023L111.729 93.2051L112.733 90.3502L107.312 88.6473C105.351 92.5671 102.084 95.6844 98.0738 97.4633Z" fill="url(#paint25_radial_12_3075)"/>
<path d="M96.0638 73.7424C96.0028 73.6587 95.9359 73.5795 95.8636 73.5053L95.8107 73.3971C95.713 73.297 95.6103 73.2019 95.5031 73.112L95.4699 73.0444C95.3731 72.971 95.2724 72.9028 95.1683 72.8402L95.0542 72.7788L94.7589 72.6217L94.6448 72.5603L94.1945 72.3954C93.4673 72.1502 92.6778 72.1586 91.9552 72.4195C91.1802 72.7276 90.4843 73.2059 89.9193 73.819C89.2292 74.5677 88.6079 75.377 88.0629 76.2368L86.1809 79.2537C85.1679 80.8897 84.0264 82.5718 82.7497 84.2866C81.5418 85.9829 80.0765 87.4811 78.4066 88.7269C76.6944 89.9783 74.7229 90.8294 72.6381 91.2172C70.0226 91.6366 67.3445 91.3855 64.8553 90.4872C60.9976 89.4596 57.6694 87.0223 55.5297 83.6578C55.3642 83.3198 55.1986 82.9819 55.0265 82.6304C54.8543 82.279 54.8477 82.2655 54.755 82.0762C54.6623 81.887 54.5365 81.6301 54.4306 81.4139C54.3246 81.1976 54.2452 81.0354 54.1525 80.8461C54.0598 80.6569 53.934 80.4 53.9163 80.1238C53.8986 79.8475 53.8053 79.7256 53.7532 79.5165C53.7012 79.3073 53.6295 79.0239 53.5712 78.7676C53.5128 78.5112 53.4806 78.3426 53.4487 78.1404C53.4169 77.9381 53.366 77.5943 53.3281 77.3111C53.2902 77.028 53.271 76.9201 53.2526 76.7112C53.2343 76.5023 53.2175 76.125 53.1866 75.8217C53.1556 75.5184 53.1697 75.4445 53.1716 75.2424C53.1734 75.0404 53.1711 74.5555 53.1741 74.2188L53.1787 73.7137C53.2038 73.1818 53.2355 72.6635 53.3012 72.1117L48.2037 70.519L51.6361 59.4181L50.6323 62.2731L47.1932 73.3604L52.2974 74.9667C52.2317 75.5185 52.2 76.0368 52.1683 76.5551L52.1637 77.0602C52.1672 77.4104 52.1507 77.7538 52.1611 78.0839C52.1716 78.4139 52.1846 78.4747 52.1827 78.6767C52.1809 78.8787 52.2245 79.2764 52.2488 79.5661C52.2732 79.8559 52.299 79.9773 52.3243 80.1661C52.3496 80.3549 52.3547 80.5367 52.3935 80.7188C52.4323 80.901 52.4729 80.8811 52.5126 80.9622C52.5524 81.0433 52.5966 81.3736 52.6351 81.5894C52.6736 81.8052 52.7452 82.0886 52.8171 82.3383C52.889 82.588 52.9212 82.7566 52.9802 82.9456C53.0392 83.1346 53.2053 83.4052 53.2164 83.6679C53.2275 83.9306 53.4018 84.0464 53.4879 84.2221C53.574 84.3978 53.713 84.6817 53.8189 84.898C53.9249 85.1143 54.0043 85.2765 54.0904 85.4522L54.2228 85.7226C54.342 85.9659 54.4678 86.2227 54.5936 86.4795C56.7333 89.844 60.0615 92.2814 63.9193 93.309C66.4099 94.2008 69.0863 94.4519 71.702 94.039C73.7868 93.6512 75.7583 92.8001 77.4705 91.5486C79.1358 90.2976 80.6003 88.8003 81.8136 87.1084C83.0771 85.3665 84.212 83.6709 85.2448 82.0755L87.1269 79.0586C87.6662 78.1949 88.2879 77.3852 88.9832 76.6408C89.5482 76.0277 90.2441 75.5494 91.0191 75.2413C91.7418 74.9804 92.5312 74.972 93.2584 75.2172L93.7087 75.3821L93.7551 75.4767L94.0438 75.6202L94.1645 75.6952C94.2686 75.7578 94.3693 75.826 94.4661 75.8994C94.4661 75.8994 94.4661 75.8994 94.4992 75.967C94.617 76.0468 94.7248 76.1402 94.8204 76.2455C94.8204 76.2455 94.8535 76.3131 94.8734 76.3536C94.9252 76.4398 94.9695 76.5302 95.0058 76.6239C95.0058 76.6239 95.0455 76.7051 95.072 76.7591C95.125 76.8504 95.1714 76.9452 95.211 77.043C95.2344 77.0759 95.2523 77.1125 95.264 77.1511L95.4097 77.4485C95.4405 77.4946 95.465 77.5446 95.4825 77.5972C95.5684 77.7391 95.6416 77.8884 95.701 78.0433C95.7775 78.3002 95.8382 78.5615 95.8827 78.8258L95.9423 78.9475C96.0483 79.1638 96.0055 79.4194 96.0235 79.662C96.0382 79.7049 96.0582 79.7458 96.0831 79.7836C96.0879 79.9992 96.0791 80.2213 96.0703 80.4435L96.1101 80.5247C96.0907 80.7735 96.0547 81.0206 96.0022 81.2647C96.0031 81.3264 95.9934 81.3878 95.9736 81.4463C95.9275 81.7101 95.8643 81.9706 95.7844 82.2262L95.6874 82.5083L96.6912 79.6534L96.7948 79.3847C96.8747 79.1291 96.938 78.8686 96.984 78.6049L97.0328 78.4301C97.0747 78.1828 97.1039 77.9335 97.1205 77.6832L97.0808 77.6021C97.0896 77.3799 97.0983 77.1578 97.0935 76.9422C97.0687 76.9043 97.0486 76.8634 97.034 76.8206C97.0159 76.578 96.991 76.3555 96.9594 76.1196C96.9594 76.1196 96.9594 76.1196 96.9263 76.052C96.8801 75.788 96.8194 75.5267 96.7446 75.2694C96.6651 75.1072 96.5923 74.9585 96.5872 74.7767L96.3356 74.263C96.3269 74.2286 96.3111 74.1963 96.2892 74.1684C96.248 74.0658 96.1993 73.9664 96.1436 73.871C96.1436 73.871 96.1038 73.7899 96.0638 73.7424Z" fill="url(#paint26_radial_12_3075)"/>
<path d="M68.3655 67.8503C67.6957 68.5224 67.1938 69.3425 66.9006 70.244L65.8967 73.099C66.2792 71.9048 67.0358 70.8643 68.0548 70.1312C68.6186 69.7547 69.2656 69.5212 69.9397 69.451C70.6138 69.3808 71.2945 69.4759 71.9228 69.7282L72.9267 66.8733C72.2976 66.6248 71.6175 66.5317 70.9441 66.6018C70.2707 66.672 69.6239 66.9033 69.0587 67.2762C68.8128 67.449 68.5811 67.641 68.3655 67.8503Z" fill="url(#paint27_radial_12_3075)"/>
<path d="M98.0738 97.4633C93.9513 99.1384 89.3557 99.2274 85.1769 97.7131L89.575 83.5078L88.6043 86.4304L84.2062 100.636C88.3871 102.137 92.9779 102.048 97.1031 100.386C101.108 98.5772 104.361 95.4372 106.308 91.5023L111.729 93.2051L112.733 90.3502L107.312 88.6473C105.351 92.5671 102.084 95.6844 98.0738 97.4633Z" fill="url(#paint28_radial_12_3075)"/>
<path d="M96.0638 73.7424C96.0028 73.6587 95.9359 73.5795 95.8636 73.5053L95.8107 73.3971C95.713 73.297 95.6103 73.2019 95.5031 73.112L95.4699 73.0444C95.3731 72.971 95.2724 72.9028 95.1683 72.8402L95.0542 72.7788L94.7589 72.6217L94.6448 72.5603L94.1945 72.3954C93.4673 72.1502 92.6778 72.1586 91.9552 72.4195C91.1802 72.7276 90.4843 73.2059 89.9193 73.819C89.2292 74.5677 88.6079 75.377 88.0629 76.2368L86.1809 79.2537C85.1679 80.8897 84.0264 82.5718 82.7497 84.2866C81.5418 85.9829 80.0765 87.4811 78.4066 88.7269C76.6944 89.9783 74.7229 90.8294 72.6381 91.2172C70.0226 91.6366 67.3445 91.3855 64.8553 90.4872C60.9976 89.4596 57.6694 87.0223 55.5297 83.6578C55.3642 83.3198 55.1986 82.9819 55.0265 82.6304C54.8543 82.279 54.8477 82.2655 54.755 82.0762C54.6623 81.887 54.5365 81.6301 54.4306 81.4139C54.3246 81.1976 54.2452 81.0354 54.1525 80.8461C54.0598 80.6569 53.934 80.4 53.9163 80.1238C53.8986 79.8475 53.8053 79.7256 53.7532 79.5165C53.7012 79.3073 53.6295 79.0239 53.5712 78.7676C53.5128 78.5112 53.4806 78.3426 53.4487 78.1404C53.4169 77.9381 53.366 77.5943 53.3281 77.3111C53.2902 77.028 53.271 76.9201 53.2526 76.7112C53.2343 76.5023 53.2175 76.125 53.1866 75.8217C53.1556 75.5184 53.1697 75.4445 53.1716 75.2424C53.1734 75.0404 53.1711 74.5555 53.1741 74.2188L53.1787 73.7137C53.2038 73.1818 53.2355 72.6635 53.3012 72.1117L48.2037 70.519L51.6361 59.4181L50.6323 62.2731L47.1932 73.3604L52.2974 74.9667C52.2317 75.5185 52.2 76.0368 52.1683 76.5551L52.1637 77.0602C52.1672 77.4104 52.1507 77.7538 52.1611 78.0839C52.1716 78.4139 52.1846 78.4747 52.1827 78.6767C52.1809 78.8787 52.2245 79.2764 52.2488 79.5661C52.2732 79.8559 52.299 79.9773 52.3243 80.1661C52.3496 80.3549 52.3547 80.5367 52.3935 80.7188C52.4323 80.901 52.4729 80.8811 52.5126 80.9622C52.5524 81.0433 52.5966 81.3736 52.6351 81.5894C52.6736 81.8052 52.7452 82.0886 52.8171 82.3383C52.889 82.588 52.9212 82.7566 52.9802 82.9456C53.0392 83.1346 53.2053 83.4052 53.2164 83.6679C53.2275 83.9306 53.4018 84.0464 53.4879 84.2221C53.574 84.3978 53.713 84.6817 53.8189 84.898C53.9249 85.1143 54.0043 85.2765 54.0904 85.4522L54.2228 85.7226C54.342 85.9659 54.4678 86.2227 54.5936 86.4795C56.7333 89.844 60.0615 92.2814 63.9193 93.309C66.4099 94.2008 69.0863 94.4519 71.702 94.039C73.7868 93.6512 75.7583 92.8001 77.4705 91.5486C79.1358 90.2976 80.6003 88.8003 81.8136 87.1084C83.0771 85.3665 84.212 83.6709 85.2448 82.0755L87.1269 79.0586C87.6662 78.1949 88.2879 77.3852 88.9832 76.6408C89.5482 76.0277 90.2441 75.5494 91.0191 75.2413C91.7418 74.9804 92.5312 74.972 93.2584 75.2172L93.7087 75.3821L93.7551 75.4767L94.0438 75.6202L94.1645 75.6952C94.2686 75.7578 94.3693 75.826 94.4661 75.8994C94.4661 75.8994 94.4661 75.8994 94.4992 75.967C94.617 76.0468 94.7248 76.1402 94.8204 76.2455C94.8204 76.2455 94.8535 76.3131 94.8734 76.3536C94.9252 76.4398 94.9695 76.5302 95.0058 76.6239C95.0058 76.6239 95.0455 76.7051 95.072 76.7591C95.125 76.8504 95.1714 76.9452 95.211 77.043C95.2344 77.0759 95.2523 77.1125 95.264 77.1511L95.4097 77.4485C95.4405 77.4946 95.465 77.5446 95.4825 77.5972C95.5684 77.7391 95.6416 77.8884 95.701 78.0433C95.7775 78.3002 95.8382 78.5615 95.8827 78.8258L95.9423 78.9475C96.0483 79.1638 96.0055 79.4194 96.0235 79.662C96.0382 79.7049 96.0582 79.7458 96.0831 79.7836C96.0879 79.9992 96.0791 80.2213 96.0703 80.4435L96.1101 80.5247C96.0907 80.7735 96.0547 81.0206 96.0022 81.2647C96.0031 81.3264 95.9934 81.3878 95.9736 81.4463C95.9275 81.7101 95.8643 81.9706 95.7844 82.2262L95.6874 82.5083L96.6912 79.6534L96.7948 79.3847C96.8747 79.1291 96.938 78.8686 96.984 78.6049L97.0328 78.4301C97.0747 78.1828 97.1039 77.9335 97.1205 77.6832L97.0808 77.6021C97.0896 77.3799 97.0983 77.1578 97.0935 76.9422C97.0687 76.9043 97.0486 76.8634 97.034 76.8206C97.0159 76.578 96.991 76.3555 96.9594 76.1196C96.9594 76.1196 96.9594 76.1196 96.9263 76.052C96.8801 75.788 96.8194 75.5267 96.7446 75.2694C96.6651 75.1072 96.5923 74.9585 96.5872 74.7767L96.3356 74.263C96.3269 74.2286 96.3111 74.1963 96.2892 74.1684C96.248 74.0658 96.1993 73.9664 96.1436 73.871C96.1436 73.871 96.1038 73.7899 96.0638 73.7424Z" fill="url(#paint29_radial_12_3075)"/>
<path d="M68.3655 67.8503C67.6957 68.5224 67.1938 69.3425 66.9006 70.244L65.8967 73.099C66.2792 71.9048 67.0358 70.8643 68.0548 70.1312C68.6186 69.7547 69.2656 69.5212 69.9397 69.451C70.6138 69.3808 71.2945 69.4759 71.9228 69.7282L72.9267 66.8733C72.2976 66.6248 71.6175 66.5317 70.9441 66.6018C70.2707 66.672 69.6239 66.9033 69.0587 67.2762C68.8128 67.449 68.5811 67.641 68.3655 67.8503Z" fill="url(#paint30_radial_12_3075)"/>
<path d="M98.0738 97.4633C93.9513 99.1384 89.3557 99.2274 85.1769 97.7131L89.575 83.5078L88.6043 86.4304L84.2062 100.636C88.3871 102.137 92.9779 102.048 97.1031 100.386C101.108 98.5772 104.361 95.4372 106.308 91.5023L111.729 93.2051L112.733 90.3502L107.312 88.6473C105.351 92.5671 102.084 95.6844 98.0738 97.4633Z" fill="url(#paint31_radial_12_3075)"/>
<path d="M96.0638 73.7424C96.0028 73.6587 95.9359 73.5795 95.8636 73.5053L95.8107 73.3971C95.713 73.297 95.6103 73.2019 95.5031 73.112L95.4699 73.0444C95.3731 72.971 95.2724 72.9028 95.1683 72.8402L95.0542 72.7788L94.7589 72.6217L94.6448 72.5603L94.1945 72.3954C93.4673 72.1502 92.6778 72.1586 91.9552 72.4195C91.1802 72.7276 90.4843 73.2059 89.9193 73.819C89.2292 74.5677 88.6079 75.377 88.0629 76.2368L86.1809 79.2537C85.1679 80.8897 84.0264 82.5718 82.7497 84.2866C81.5418 85.9829 80.0765 87.4811 78.4066 88.7269C76.6944 89.9783 74.7229 90.8294 72.6381 91.2172C70.0226 91.6366 67.3445 91.3855 64.8553 90.4872C60.9976 89.4596 57.6694 87.0223 55.5297 83.6578C55.3642 83.3198 55.1986 82.9819 55.0265 82.6304C54.8543 82.279 54.8477 82.2655 54.755 82.0762C54.6623 81.887 54.5365 81.6301 54.4306 81.4139C54.3246 81.1976 54.2452 81.0354 54.1525 80.8461C54.0598 80.6569 53.934 80.4 53.9163 80.1238C53.8986 79.8475 53.8053 79.7256 53.7532 79.5165C53.7012 79.3073 53.6295 79.0239 53.5712 78.7676C53.5128 78.5112 53.4806 78.3426 53.4487 78.1404C53.4169 77.9381 53.366 77.5943 53.3281 77.3111C53.2902 77.028 53.271 76.9201 53.2526 76.7112C53.2343 76.5023 53.2175 76.125 53.1866 75.8217C53.1556 75.5184 53.1697 75.4445 53.1716 75.2424C53.1734 75.0404 53.1711 74.5555 53.1741 74.2188L53.1787 73.7137C53.2038 73.1818 53.2355 72.6635 53.3012 72.1117L48.2037 70.519L51.6361 59.4181L50.6323 62.2731L47.1932 73.3604L52.2974 74.9667C52.2317 75.5185 52.2 76.0368 52.1683 76.5551L52.1637 77.0602C52.1672 77.4104 52.1507 77.7538 52.1611 78.0839C52.1716 78.4139 52.1846 78.4747 52.1827 78.6767C52.1809 78.8787 52.2245 79.2764 52.2488 79.5661C52.2732 79.8559 52.299 79.9773 52.3243 80.1661C52.3496 80.3549 52.3547 80.5367 52.3935 80.7188C52.4323 80.901 52.4729 80.8811 52.5126 80.9622C52.5524 81.0433 52.5966 81.3736 52.6351 81.5894C52.6736 81.8052 52.7452 82.0886 52.8171 82.3383C52.889 82.588 52.9212 82.7566 52.9802 82.9456C53.0392 83.1346 53.2053 83.4052 53.2164 83.6679C53.2275 83.9306 53.4018 84.0464 53.4879 84.2221C53.574 84.3978 53.713 84.6817 53.8189 84.898C53.9249 85.1143 54.0043 85.2765 54.0904 85.4522L54.2228 85.7226C54.342 85.9659 54.4678 86.2227 54.5936 86.4795C56.7333 89.844 60.0615 92.2814 63.9193 93.309C66.4099 94.2008 69.0863 94.4519 71.702 94.039C73.7868 93.6512 75.7583 92.8001 77.4705 91.5486C79.1358 90.2976 80.6003 88.8003 81.8136 87.1084C83.0771 85.3665 84.212 83.6709 85.2448 82.0755L87.1269 79.0586C87.6662 78.1949 88.2879 77.3852 88.9832 76.6408C89.5482 76.0277 90.2441 75.5494 91.0191 75.2413C91.7418 74.9804 92.5312 74.972 93.2584 75.2172L93.7087 75.3821L93.7551 75.4767L94.0438 75.6202L94.1645 75.6952C94.2686 75.7578 94.3693 75.826 94.4661 75.8994C94.4661 75.8994 94.4661 75.8994 94.4992 75.967C94.617 76.0468 94.7248 76.1402 94.8204 76.2455C94.8204 76.2455 94.8535 76.3131 94.8734 76.3536C94.9252 76.4398 94.9695 76.5302 95.0058 76.6239C95.0058 76.6239 95.0455 76.7051 95.072 76.7591C95.125 76.8504 95.1714 76.9452 95.211 77.043C95.2344 77.0759 95.2523 77.1125 95.264 77.1511L95.4097 77.4485C95.4405 77.4946 95.465 77.5446 95.4825 77.5972C95.5684 77.7391 95.6416 77.8884 95.701 78.0433C95.7775 78.3002 95.8382 78.5615 95.8827 78.8258L95.9423 78.9475C96.0483 79.1638 96.0055 79.4194 96.0235 79.662C96.0382 79.7049 96.0582 79.7458 96.0831 79.7836C96.0879 79.9992 96.0791 80.2213 96.0703 80.4435L96.1101 80.5247C96.0907 80.7735 96.0547 81.0206 96.0022 81.2647C96.0031 81.3264 95.9934 81.3878 95.9736 81.4463C95.9275 81.7101 95.8643 81.9706 95.7844 82.2262L95.6874 82.5083L96.6912 79.6534L96.7948 79.3847C96.8747 79.1291 96.938 78.8686 96.984 78.6049L97.0328 78.4301C97.0747 78.1828 97.1039 77.9335 97.1205 77.6832L97.0808 77.6021C97.0896 77.3799 97.0983 77.1578 97.0935 76.9422C97.0687 76.9043 97.0486 76.8634 97.034 76.8206C97.0159 76.578 96.991 76.3555 96.9594 76.1196C96.9594 76.1196 96.9594 76.1196 96.9263 76.052C96.8801 75.788 96.8194 75.5267 96.7446 75.2694C96.6651 75.1072 96.5923 74.9585 96.5872 74.7767L96.3356 74.263C96.3269 74.2286 96.3111 74.1963 96.2892 74.1684C96.248 74.0658 96.1993 73.9664 96.1436 73.871C96.1436 73.871 96.1038 73.7899 96.0638 73.7424Z" fill="url(#paint32_radial_12_3075)"/>
<path d="M68.3655 67.8503C67.6957 68.5224 67.1938 69.3425 66.9006 70.244L65.8967 73.099C66.2792 71.9048 67.0358 70.8643 68.0548 70.1312C68.6186 69.7547 69.2656 69.5212 69.9397 69.451C70.6138 69.3808 71.2945 69.4759 71.9228 69.7282L72.9267 66.8733C72.2976 66.6248 71.6175 66.5317 70.9441 66.6018C70.2707 66.672 69.6239 66.9033 69.0587 67.2762C68.8128 67.449 68.5811 67.641 68.3655 67.8503Z" fill="url(#paint33_linear_12_3075)"/>
<path d="M98.0738 97.4633C93.9513 99.1384 89.3557 99.2274 85.1769 97.7131L89.575 83.5078L88.6043 86.4304L84.2062 100.636C88.3871 102.137 92.9779 102.048 97.1031 100.386C101.108 98.5772 104.361 95.4372 106.308 91.5023L111.729 93.2051L112.733 90.3502L107.312 88.6473C105.351 92.5671 102.084 95.6844 98.0738 97.4633Z" fill="url(#paint34_linear_12_3075)"/>
<path d="M96.0638 73.7424C96.0028 73.6587 95.9359 73.5795 95.8636 73.5053L95.8107 73.3971C95.713 73.297 95.6103 73.2019 95.5031 73.112L95.4699 73.0444C95.3731 72.971 95.2724 72.9028 95.1683 72.8402L95.0542 72.7788L94.7589 72.6217L94.6448 72.5603L94.1945 72.3954C93.4673 72.1502 92.6778 72.1586 91.9552 72.4195C91.1802 72.7276 90.4843 73.2059 89.9193 73.819C89.2292 74.5677 88.6079 75.377 88.0629 76.2368L86.1809 79.2537C85.1679 80.8897 84.0264 82.5718 82.7497 84.2866C81.5418 85.9829 80.0765 87.4811 78.4066 88.7269C76.6944 89.9783 74.7229 90.8294 72.6381 91.2172C70.0226 91.6366 67.3445 91.3855 64.8553 90.4872C60.9976 89.4596 57.6694 87.0223 55.5297 83.6578C55.3642 83.3198 55.1986 82.9819 55.0265 82.6304C54.8543 82.279 54.8477 82.2655 54.755 82.0762C54.6623 81.887 54.5365 81.6301 54.4306 81.4139C54.3246 81.1976 54.2452 81.0354 54.1525 80.8461C54.0598 80.6569 53.934 80.4 53.9163 80.1238C53.8986 79.8475 53.8053 79.7256 53.7532 79.5165C53.7012 79.3073 53.6295 79.0239 53.5712 78.7676C53.5128 78.5112 53.4806 78.3426 53.4487 78.1404C53.4169 77.9381 53.366 77.5943 53.3281 77.3111C53.2902 77.028 53.271 76.9201 53.2526 76.7112C53.2343 76.5023 53.2175 76.125 53.1866 75.8217C53.1556 75.5184 53.1697 75.4445 53.1716 75.2424C53.1734 75.0404 53.1711 74.5555 53.1741 74.2188L53.1787 73.7137C53.2038 73.1818 53.2355 72.6635 53.3012 72.1117L48.2037 70.519L51.6361 59.4181L50.6323 62.2731L47.1932 73.3604L52.2974 74.9667C52.2317 75.5185 52.2 76.0368 52.1683 76.5551L52.1637 77.0602C52.1672 77.4104 52.1507 77.7538 52.1611 78.0839C52.1716 78.4139 52.1846 78.4747 52.1827 78.6767C52.1809 78.8787 52.2245 79.2764 52.2488 79.5661C52.2732 79.8559 52.299 79.9773 52.3243 80.1661C52.3496 80.3549 52.3547 80.5367 52.3935 80.7188C52.4323 80.901 52.4729 80.8811 52.5126 80.9622C52.5524 81.0433 52.5966 81.3736 52.6351 81.5894C52.6736 81.8052 52.7452 82.0886 52.8171 82.3383C52.889 82.588 52.9212 82.7566 52.9802 82.9456C53.0392 83.1346 53.2053 83.4052 53.2164 83.6679C53.2275 83.9306 53.4018 84.0464 53.4879 84.2221C53.574 84.3978 53.713 84.6817 53.8189 84.898C53.9249 85.1143 54.0043 85.2765 54.0904 85.4522L54.2228 85.7226C54.342 85.9659 54.4678 86.2227 54.5936 86.4795C56.7333 89.844 60.0615 92.2814 63.9193 93.309C66.4099 94.2008 69.0863 94.4519 71.702 94.039C73.7868 93.6512 75.7583 92.8001 77.4705 91.5486C79.1358 90.2976 80.6003 88.8003 81.8136 87.1084C83.0771 85.3665 84.212 83.6709 85.2448 82.0755L87.1269 79.0586C87.6662 78.1949 88.2879 77.3852 88.9832 76.6408C89.5482 76.0277 90.2441 75.5494 91.0191 75.2413C91.7418 74.9804 92.5312 74.972 93.2584 75.2172L93.7087 75.3821L93.7551 75.4767L94.0438 75.6202L94.1645 75.6952C94.2686 75.7578 94.3693 75.826 94.4661 75.8994C94.4661 75.8994 94.4661 75.8994 94.4992 75.967C94.617 76.0468 94.7248 76.1402 94.8204 76.2455C94.8204 76.2455 94.8535 76.3131 94.8734 76.3536C94.9252 76.4398 94.9695 76.5302 95.0058 76.6239C95.0058 76.6239 95.0455 76.7051 95.072 76.7591C95.125 76.8504 95.1714 76.9452 95.211 77.043C95.2344 77.0759 95.2523 77.1125 95.264 77.1511L95.4097 77.4485C95.4405 77.4946 95.465 77.5446 95.4825 77.5972C95.5684 77.7391 95.6416 77.8884 95.701 78.0433C95.7775 78.3002 95.8382 78.5615 95.8827 78.8258L95.9423 78.9475C96.0483 79.1638 96.0055 79.4194 96.0235 79.662C96.0382 79.7049 96.0582 79.7458 96.0831 79.7836C96.0879 79.9992 96.0791 80.2213 96.0703 80.4435L96.1101 80.5247C96.0907 80.7735 96.0547 81.0206 96.0022 81.2647C96.0031 81.3264 95.9934 81.3878 95.9736 81.4463C95.9275 81.7101 95.8643 81.9706 95.7844 82.2262L95.6874 82.5083L96.6912 79.6534L96.7948 79.3847C96.8747 79.1291 96.938 78.8686 96.984 78.6049L97.0328 78.4301C97.0747 78.1828 97.1039 77.9335 97.1205 77.6832L97.0808 77.6021C97.0896 77.3799 97.0983 77.1578 97.0935 76.9422C97.0687 76.9043 97.0486 76.8634 97.034 76.8206C97.0159 76.578 96.991 76.3555 96.9594 76.1196C96.9594 76.1196 96.9594 76.1196 96.9263 76.052C96.8801 75.788 96.8194 75.5267 96.7446 75.2694C96.6651 75.1072 96.5923 74.9585 96.5872 74.7767L96.3356 74.263C96.3269 74.2286 96.3111 74.1963 96.2892 74.1684C96.248 74.0658 96.1993 73.9664 96.1436 73.871C96.1436 73.871 96.1038 73.7899 96.0638 73.7424Z" fill="url(#paint35_linear_12_3075)"/>
<path d="M68.3655 67.8503C67.6957 68.5224 67.1938 69.3425 66.9006 70.244L65.8967 73.099C66.2792 71.9048 67.0358 70.8643 68.0548 70.1312C68.6186 69.7547 69.2656 69.5212 69.9397 69.451C70.6138 69.3808 71.2945 69.4759 71.9228 69.7282L72.9267 66.8733C72.2976 66.6248 71.6175 66.5317 70.9441 66.6018C70.2707 66.672 69.6239 66.9033 69.0587 67.2762C68.8128 67.449 68.5811 67.641 68.3655 67.8503Z" fill="url(#paint36_linear_12_3075)"/>
<path d="M98.0738 97.4633C93.9513 99.1384 89.3557 99.2274 85.1769 97.7131L89.575 83.5078L88.6043 86.4304L84.2062 100.636C88.3871 102.137 92.9779 102.048 97.1031 100.386C101.108 98.5772 104.361 95.4372 106.308 91.5023L111.729 93.2051L112.733 90.3502L107.312 88.6473C105.351 92.5671 102.084 95.6844 98.0738 97.4633Z" fill="url(#paint37_linear_12_3075)"/>
<path d="M96.0638 73.7424C96.0028 73.6587 95.9359 73.5795 95.8636 73.5053L95.8107 73.3971C95.713 73.297 95.6103 73.2019 95.5031 73.112L95.4699 73.0444C95.3731 72.971 95.2724 72.9028 95.1683 72.8402L95.0542 72.7788L94.7589 72.6217L94.6448 72.5603L94.1945 72.3954C93.4673 72.1502 92.6778 72.1586 91.9552 72.4195C91.1802 72.7276 90.4843 73.2059 89.9193 73.819C89.2292 74.5677 88.6079 75.377 88.0629 76.2368L86.1809 79.2537C85.1679 80.8897 84.0264 82.5718 82.7497 84.2866C81.5418 85.9829 80.0765 87.4811 78.4066 88.7269C76.6944 89.9783 74.7229 90.8294 72.6381 91.2172C70.0226 91.6366 67.3445 91.3855 64.8553 90.4872C60.9976 89.4596 57.6694 87.0223 55.5297 83.6578C55.3642 83.3198 55.1986 82.9819 55.0265 82.6304C54.8543 82.279 54.8477 82.2655 54.755 82.0762C54.6623 81.887 54.5365 81.6301 54.4306 81.4139C54.3246 81.1976 54.2452 81.0354 54.1525 80.8461C54.0598 80.6569 53.934 80.4 53.9163 80.1238C53.8986 79.8475 53.8053 79.7256 53.7532 79.5165C53.7012 79.3073 53.6295 79.0239 53.5712 78.7676C53.5128 78.5112 53.4806 78.3426 53.4487 78.1404C53.4169 77.9381 53.366 77.5943 53.3281 77.3111C53.2902 77.028 53.271 76.9201 53.2526 76.7112C53.2343 76.5023 53.2175 76.125 53.1866 75.8217C53.1556 75.5184 53.1697 75.4445 53.1716 75.2424C53.1734 75.0404 53.1711 74.5555 53.1741 74.2188L53.1787 73.7137C53.2038 73.1818 53.2355 72.6635 53.3012 72.1117L48.2037 70.519L51.6361 59.4181L50.6323 62.2731L47.1932 73.3604L52.2974 74.9667C52.2317 75.5185 52.2 76.0368 52.1683 76.5551L52.1637 77.0602C52.1672 77.4104 52.1507 77.7538 52.1611 78.0839C52.1716 78.4139 52.1846 78.4747 52.1827 78.6767C52.1809 78.8787 52.2245 79.2764 52.2488 79.5661C52.2732 79.8559 52.299 79.9773 52.3243 80.1661C52.3496 80.3549 52.3547 80.5367 52.3935 80.7188C52.4323 80.901 52.4729 80.8811 52.5126 80.9622C52.5524 81.0433 52.5966 81.3736 52.6351 81.5894C52.6736 81.8052 52.7452 82.0886 52.8171 82.3383C52.889 82.588 52.9212 82.7566 52.9802 82.9456C53.0392 83.1346 53.2053 83.4052 53.2164 83.6679C53.2275 83.9306 53.4018 84.0464 53.4879 84.2221C53.574 84.3978 53.713 84.6817 53.8189 84.898C53.9249 85.1143 54.0043 85.2765 54.0904 85.4522L54.2228 85.7226C54.342 85.9659 54.4678 86.2227 54.5936 86.4795C56.7333 89.844 60.0615 92.2814 63.9193 93.309C66.4099 94.2008 69.0863 94.4519 71.702 94.039C73.7868 93.6512 75.7583 92.8001 77.4705 91.5486C79.1358 90.2976 80.6003 88.8003 81.8136 87.1084C83.0771 85.3665 84.212 83.6709 85.2448 82.0755L87.1269 79.0586C87.6662 78.1949 88.2879 77.3852 88.9832 76.6408C89.5482 76.0277 90.2441 75.5494 91.0191 75.2413C91.7418 74.9804 92.5312 74.972 93.2584 75.2172L93.7087 75.3821L93.7551 75.4767L94.0438 75.6202L94.1645 75.6952C94.2686 75.7578 94.3693 75.826 94.4661 75.8994C94.4661 75.8994 94.4661 75.8994 94.4992 75.967C94.617 76.0468 94.7248 76.1402 94.8204 76.2455C94.8204 76.2455 94.8535 76.3131 94.8734 76.3536C94.9252 76.4398 94.9695 76.5302 95.0058 76.6239C95.0058 76.6239 95.0455 76.7051 95.072 76.7591C95.125 76.8504 95.1714 76.9452 95.211 77.043C95.2344 77.0759 95.2523 77.1125 95.264 77.1511L95.4097 77.4485C95.4405 77.4946 95.465 77.5446 95.4825 77.5972C95.5684 77.7391 95.6416 77.8884 95.701 78.0433C95.7775 78.3002 95.8382 78.5615 95.8827 78.8258L95.9423 78.9475C96.0483 79.1638 96.0055 79.4194 96.0235 79.662C96.0382 79.7049 96.0582 79.7458 96.0831 79.7836C96.0879 79.9992 96.0791 80.2213 96.0703 80.4435L96.1101 80.5247C96.0907 80.7735 96.0547 81.0206 96.0022 81.2647C96.0031 81.3264 95.9934 81.3878 95.9736 81.4463C95.9275 81.7101 95.8643 81.9706 95.7844 82.2262L95.6874 82.5083L96.6912 79.6534L96.7948 79.3847C96.8747 79.1291 96.938 78.8686 96.984 78.6049L97.0328 78.4301C97.0747 78.1828 97.1039 77.9335 97.1205 77.6832L97.0808 77.6021C97.0896 77.3799 97.0983 77.1578 97.0935 76.9422C97.0687 76.9043 97.0486 76.8634 97.034 76.8206C97.0159 76.578 96.991 76.3555 96.9594 76.1196C96.9594 76.1196 96.9594 76.1196 96.9263 76.052C96.8801 75.788 96.8194 75.5267 96.7446 75.2694C96.6651 75.1072 96.5923 74.9585 96.5872 74.7767L96.3356 74.263C96.3269 74.2286 96.3111 74.1963 96.2892 74.1684C96.248 74.0658 96.1993 73.9664 96.1436 73.871C96.1436 73.871 96.1038 73.7899 96.0638 73.7424Z" fill="url(#paint38_linear_12_3075)"/>
<path d="M66.5406 74.2418C66.3298 73.0199 66.4246 71.7644 66.8166 70.5869C67.1792 69.2735 67.9766 68.1208 69.0786 67.3167C69.6439 66.9439 70.2907 66.7125 70.964 66.6424C71.6374 66.5722 72.3175 66.6654 72.9466 66.9138L77.186 53.1048C73.3411 51.7028 69.1222 51.6984 65.2693 53.0922C61.5808 54.6685 58.5618 57.488 56.7399 61.0581L51.5617 59.4378L48.1293 70.5386L53.2268 72.1314C52.6494 76.1252 53.414 80.1951 55.4011 83.704C57.5408 87.0685 60.869 89.5058 64.7268 90.5334C67.2159 91.4317 69.894 91.6829 72.5095 91.2634C74.5943 90.8756 76.5659 90.0245 78.2781 88.7731C79.9479 87.5273 81.4132 86.0291 82.6211 84.3328C83.8846 82.5909 85.0261 80.9088 86.0524 79.2999L87.9344 76.283C88.4793 75.4232 89.1006 74.614 89.7907 73.8652C90.3558 73.2521 91.0516 72.7738 91.8267 72.4657C92.5493 72.2048 93.3387 72.1964 94.0659 72.4416C94.7104 72.6246 95.2943 72.9754 95.7579 73.458C96.2216 73.9406 96.5484 74.5377 96.7048 75.1883C97.1026 76.5776 97.0774 78.0543 96.6326 79.4307C96.2132 80.8892 95.3068 82.1612 94.0641 83.0353C93.4084 83.4817 92.6549 83.7638 91.8675 83.8578C91.08 83.9517 90.2819 83.8547 89.5406 83.5749L85.1426 97.7802C89.3213 99.2945 93.9169 99.2055 98.0395 97.5304C102.048 95.7281 105.304 92.5862 107.245 88.6468L112.665 90.3497L116.083 79.3229L110.589 77.606C111.183 73.4393 110.418 69.1947 108.406 65.5013C106.136 61.8069 102.516 59.1392 98.3105 58.0601C95.7813 57.1529 93.0624 56.8992 90.4064 57.3225C88.2624 57.7457 86.2386 58.6397 84.4816 59.9396C82.7576 61.2234 81.248 62.7718 80.0091 64.5272C78.7384 66.3228 77.5492 68.045 76.4685 69.7141L74.5865 72.7311C74.0504 73.5865 73.4285 74.3853 72.7305 75.1152C72.1827 75.6949 71.5281 76.1635 70.8026 76.4952C70.1068 76.7808 69.3298 76.7968 68.6239 76.54C68.0881 76.405 67.6045 76.1148 67.2339 75.7059C66.8632 75.297 66.622 74.7877 66.5406 74.2418Z" fill="url(#paint39_linear_12_3075)"/>
<path style="mix-blend-mode:color-dodge" opacity="0.64" d="M56.2453 62.792C58.0671 59.222 61.0861 56.4025 64.7747 54.8262C68.6286 53.4387 72.8452 53.4432 76.6913 54.8387L77.2057 53.1453C73.3608 51.7433 69.142 51.7389 65.2891 53.1328C61.6005 54.7091 58.5815 57.5286 56.7597 61.0986L51.5815 59.4783L48.1491 70.5792L51.0671 61.1717L56.2453 62.792Z" fill="url(#paint40_radial_12_3075)"/>
<path style="mix-blend-mode:color-dodge" opacity="0.64" d="M78.2979 88.8136C79.9677 87.5678 81.4331 86.0697 82.6409 84.3733C83.9044 82.6315 85.0459 80.9494 86.0722 79.3405L87.9542 76.3235C88.4991 75.4637 89.1204 74.6545 89.8106 73.9058C90.3756 73.2927 91.0715 72.8144 91.8465 72.5063C92.5691 72.2454 93.3585 72.2369 94.0857 72.4821C94.7302 72.6652 95.3141 73.0159 95.7777 73.4985C96.2414 73.9811 96.5682 74.5783 96.7247 75.2289C97.0767 76.4154 97.114 77.6735 96.8331 78.8799C96.9078 78.6954 96.9725 78.507 97.0271 78.3156C97.4648 76.938 97.4899 75.4634 97.0993 74.0732C96.9399 73.4265 96.6127 72.8335 96.1506 72.3537C95.6885 71.8739 95.1079 71.5243 94.467 71.34C93.734 71.0996 92.9413 71.1105 92.2142 71.3708C91.4432 71.6759 90.7516 72.1523 90.1918 72.7636C89.492 73.5099 88.8658 74.3218 88.322 75.188L86.4399 78.205C85.4203 79.8274 84.2788 81.5095 83.0087 83.2378C81.8002 84.932 80.3323 86.4259 78.659 87.6646C76.9537 88.9263 74.9829 89.7828 72.8971 90.1685C69.622 90.5736 66.2997 90.0859 63.2828 88.7573C60.266 87.4287 57.667 85.3088 55.7616 82.6223C53.7593 79.1214 52.9891 75.0498 53.5738 71.0563L48.4762 69.4636L48.1356 70.5858L53.2331 72.1786C52.6557 76.1724 53.4203 80.2423 55.4074 83.7512C57.5471 87.1157 60.8753 89.553 64.7331 90.5806C67.2222 91.4788 69.9003 91.73 72.5158 91.3106C74.6059 90.9228 76.5823 90.0693 78.2979 88.8136Z" fill="url(#paint41_linear_12_3075)"/>
<path style="mix-blend-mode:color-dodge" d="M69.4193 66.1945C68.3172 66.9986 67.5199 68.1513 67.1572 69.4646L67.031 69.9957C67.4335 68.9206 68.1461 67.9883 69.0786 67.3167C69.6439 66.9439 70.2907 66.7125 70.964 66.6424C71.6374 66.5722 72.3175 66.6653 72.9466 66.9138L77.1859 53.1047L73.2945 65.7378C72.6609 65.492 71.9764 65.4051 71.3008 65.4847C70.6253 65.5643 69.9792 65.8081 69.4193 66.1945Z" fill="url(#paint42_linear_12_3075)"/>
<path d="M113.04 89.1604L107.633 87.4509C105.675 91.3839 102.419 94.524 98.4145 96.3411C94.2951 98.0106 89.705 98.0972 85.5311 96.5842L85.1769 97.7131C89.3557 99.2274 93.9513 99.1384 98.0738 97.4633C102.083 95.661 105.338 92.5191 107.279 88.5797L112.699 90.2826L116.118 79.2558L113.04 89.1604Z" fill="url(#paint43_linear_12_3075)"/>
<path style="mix-blend-mode:color-dodge" opacity="0.64" d="M90.4407 57.2554C88.2967 57.6786 86.2729 58.5726 84.5159 59.8726C82.7919 61.1563 81.2823 62.7047 80.0434 64.4601C78.7727 66.2558 77.5836 67.9779 76.5028 69.647L74.6208 72.664C74.0847 73.5194 73.4628 74.3182 72.7648 75.0481C72.2171 75.6278 71.5624 76.0964 70.8369 76.4282C70.1411 76.7137 69.3641 76.7297 68.6582 76.4729C68.1333 76.3346 67.6602 76.047 67.2963 75.6451C66.9325 75.2431 66.6935 74.7441 66.6083 74.2086C66.4541 73.3002 66.4717 72.3706 66.6602 71.468C66.5484 71.7219 66.4515 71.982 66.3699 72.2471C65.9779 73.4247 65.8831 74.6802 66.0939 75.9021C66.179 76.4375 66.418 76.9365 66.7819 77.3385C67.1458 77.7404 67.6189 78.028 68.1437 78.1664C68.8497 78.4231 69.6267 78.4071 70.3225 78.1216C71.048 77.7899 71.7026 77.3212 72.2503 76.7415C72.9483 76.0117 73.5702 75.2128 74.1064 74.3574L75.9884 71.3405C77.0691 69.6714 78.2582 67.9492 79.5289 66.1535C80.7678 64.3982 82.2774 62.8497 84.0014 61.566C85.7584 60.266 87.7822 59.3721 89.9263 58.9488C92.5823 58.5255 95.3012 58.7793 97.8303 59.6865C102.033 60.7713 105.651 63.4375 107.926 67.1276C109.94 70.8276 110.703 75.08 110.102 79.2525L115.583 80.976L116.111 79.2759L110.616 77.5591C111.211 73.3924 110.445 69.1478 108.433 65.4543C106.163 61.76 102.544 59.0923 98.3378 58.0132C95.8126 57.1004 93.0962 56.8397 90.4407 57.2554Z" fill="url(#paint44_linear_12_3075)"/>
<path d="M132.957 94.8747C131.131 100.797 128.147 106.3 124.178 111.066C120.209 115.833 115.334 119.767 109.836 122.642C103.508 125.959 96.5861 127.99 89.4713 128.618C82.3566 129.246 75.1903 128.459 68.3875 126.301C40.2077 117.745 23.4299 89.3915 30.9999 63.0733C32.7467 56.985 35.7146 51.3129 39.7231 46.4018C43.7316 41.4908 48.697 37.4433 54.3174 34.5056C60.6556 31.1979 67.5867 29.18 74.7078 28.5692C81.829 27.9585 88.9981 28.7671 95.7986 30.948C123.978 39.5038 140.763 67.8713 133.2 94.1693L132.957 94.8747ZM33.4622 62.9901L33.2535 63.6958C26.0522 88.7775 42.1269 115.833 69.0691 124.023C75.5757 126.089 82.4305 126.843 89.2361 126.243C96.0417 125.642 102.663 123.699 108.715 120.526C113.94 117.798 118.573 114.063 122.346 109.537C126.118 105.01 128.954 99.7831 130.691 94.1578L130.886 93.4588C138.108 68.384 122.033 41.3283 95.0706 33.1315C88.566 31.0694 81.7142 30.3162 74.9115 30.9152C68.1088 31.5143 61.49 33.4539 55.4379 36.6217C50.2143 39.3518 45.5826 43.0878 41.8106 47.6138C38.0386 52.1398 35.2011 57.366 33.4622 62.9901Z" fill="url(#paint45_linear_12_3075)"/>
</g>
<defs>
<filter id="filter0_f_12_3075" x="-5" y="-4.99999" width="171.929" height="172.21" filterUnits="userSpaceOnUse" color-interpolation-filters="sRGB">
<feFlood flood-opacity="0" result="BackgroundImageFix"/>
<feBlend mode="normal" in="SourceGraphic" in2="BackgroundImageFix" result="shape"/>
<feGaussianBlur stdDeviation="2.5" result="effect1_foregroundBlur_12_3075"/>
</filter>
<linearGradient id="paint0_linear_12_3075" x1="8.12606" y1="87.506" x2="138.813" y2="127.358" gradientUnits="userSpaceOnUse">
<stop offset="0.01" stop-color="#E5B034"/>
<stop offset="0.08" stop-color="#42210B"/>
<stop offset="0.25" stop-color="#CC9933"/>
<stop offset="0.36" stop-color="#DFB143"/>
<stop offset="0.46" stop-color="#EECD76"/>
<stop offset="0.6" stop-color="#CC9933"/>
<stop offset="0.75" stop-color="#92662C"/>
<stop offset="0.88" stop-color="#E6B82E"/>
<stop offset="1" stop-color="#CC9933"/>
</linearGradient>
<linearGradient id="paint1_linear_12_3075" x1="12.5634" y1="86.4396" x2="130.782" y2="122.489" gradientUnits="userSpaceOnUse">
<stop stop-color="#FBC926"/>
<stop offset="0.05" stop-color="#FFE89B"/>
<stop offset="0.1" stop-color="#FBC926"/>
<stop offset="0.25" stop-color="#B96E2B"/>
<stop offset="0.4" stop-color="#CC9933"/>
<stop offset="0.54" stop-color="#FCE444"/>
<stop offset="0.64" stop-color="#FBCC34"/>
<stop offset="0.75" stop-color="#B96E2B"/>
<stop offset="0.92" stop-color="#843500"/>
<stop offset="0.99" stop-color="#FBCC34"/>
</linearGradient>
<linearGradient id="paint2_linear_12_3075" x1="65.3468" y1="133.243" x2="98.2296" y2="24.5246" gradientUnits="userSpaceOnUse">
<stop stop-color="#B96E2B"/>
<stop offset="0.18" stop-color="#FBCC34"/>
<stop offset="0.36" stop-color="#FFE89B"/>
<stop offset="0.57" stop-color="#FFFAC2"/>
<stop offset="0.75" stop-color="#FBCC34"/>
<stop offset="1" stop-color="#B96E2B"/>
</linearGradient>
<linearGradient id="paint3_linear_12_3075" x1="50.713" y1="15.3235" x2="112.29" y2="150.285" gradientUnits="userSpaceOnUse">
<stop offset="0.01" stop-color="#FBCC34"/>
<stop offset="0.08" stop-color="#843500"/>
<stop offset="0.25" stop-color="#FBCC34"/>
<stop offset="0.36" stop-color="#FBCC34"/>
<stop offset="0.46" stop-color="#FCE444"/>
<stop offset="0.6" stop-color="#FBAE17"/>
<stop offset="0.75" stop-color="#843500"/>
<stop offset="0.9" stop-color="#FBC926"/>
<stop offset="0.95" stop-color="#FFE89B"/>
<stop offset="1" stop-color="#FBC926"/>
</linearGradient>
<linearGradient id="paint4_linear_12_3075" x1="29.1492" y1="85.112" x2="138.368" y2="72.819" gradientUnits="userSpaceOnUse">
<stop stop-color="#B96E2B"/>
<stop offset="0.18" stop-color="#FBCC34"/>
<stop offset="0.32" stop-color="#F4E09C"/>
<stop offset="0.62" stop-color="#FBCC34"/>
<stop offset="0.81" stop-color="#FBA702"/>
<stop offset="0.96" stop-color="#B96E2B"/>
</linearGradient>
<radialGradient id="paint5_radial_12_3075" cx="0" cy="0" r="1" gradientUnits="userSpaceOnUse" gradientTransform="translate(83.5003 78.8295) rotate(-72.7413) scale(33.2099 33.9647)">
<stop offset="0.01" stop-color="#873713"/>
<stop offset="1" stop-color="white"/>
</radialGradient>
<radialGradient id="paint6_radial_12_3075" cx="0" cy="0" r="1" gradientUnits="userSpaceOnUse" gradientTransform="translate(-386.949 -62.6129) rotate(-73.0625) scale(32.9364 32.9416)">
<stop offset="0.01" stop-color="#873713"/>
<stop offset="1" stop-color="white"/>
</radialGradient>
<radialGradient id="paint7_radial_12_3075" cx="0" cy="0" r="1" gradientUnits="userSpaceOnUse" gradientTransform="translate(-386.949 -62.6123) rotate(-73.0624) scale(32.9364 32.9416)">
<stop offset="0.01" stop-color="#873713"/>
<stop offset="1" stop-color="white"/>
</radialGradient>
<radialGradient id="paint8_radial_12_3075" cx="0" cy="0" r="1" gradientUnits="userSpaceOnUse" gradientTransform="translate(-386.949 -62.6126) rotate(-73.0625) scale(32.9364 32.9416)">
<stop offset="0.01" stop-color="#873713"/>
<stop offset="1" stop-color="white"/>
</radialGradient>
<radialGradient id="paint9_radial_12_3075" cx="0" cy="0" r="1" gradientUnits="userSpaceOnUse" gradientTransform="translate(-386.949 -62.6129) rotate(-73.0625) scale(32.9364 32.9416)">
<stop offset="0.01" stop-color="#873713"/>
<stop offset="1" stop-color="white"/>
</radialGradient>
<radialGradient id="paint10_radial_12_3075" cx="0" cy="0" r="1" gradientUnits="userSpaceOnUse" gradientTransform="translate(-386.949 -62.6123) rotate(-73.0624) scale(32.9364 32.9416)">
<stop offset="0.01" stop-color="#873713"/>
<stop offset="1" stop-color="white"/>
</radialGradient>
<radialGradient id="paint11_radial_12_3075" cx="0" cy="0" r="1" gradientUnits="userSpaceOnUse" gradientTransform="translate(-386.949 -62.6126) rotate(-73.0625) scale(32.9364 32.9416)">
<stop offset="0.01" stop-color="#873713"/>
<stop offset="1" stop-color="white"/>
</radialGradient>
<radialGradient id="paint12_radial_12_3075" cx="0" cy="0" r="1" gradientUnits="userSpaceOnUse" gradientTransform="translate(-386.949 -62.6129) rotate(-73.0625) scale(32.9364 32.9416)">
<stop offset="0.01" stop-color="#873713"/>
<stop offset="1" stop-color="white"/>
</radialGradient>
<radialGradient id="paint13_radial_12_3075" cx="0" cy="0" r="1" gradientUnits="userSpaceOnUse" gradientTransform="translate(-386.949 -62.6123) rotate(-73.0624) scale(32.9364 32.9416)">
<stop offset="0.01" stop-color="#873713"/>
<stop offset="1" stop-color="white"/>
</radialGradient>
<radialGradient id="paint14_radial_12_3075" cx="0" cy="0" r="1" gradientUnits="userSpaceOnUse" gradientTransform="translate(-386.949 -62.6126) rotate(-73.0625) scale(32.9364 32.9416)">
<stop offset="0.01" stop-color="#873713"/>
<stop offset="1" stop-color="white"/>
</radialGradient>
<radialGradient id="paint15_radial_12_3075" cx="0" cy="0" r="1" gradientUnits="userSpaceOnUse" gradientTransform="translate(-386.949 -62.6126) rotate(-73.0625) scale(32.9364 32.9416)">
<stop offset="0.01" stop-color="#873713"/>
<stop offset="1" stop-color="white"/>
</radialGradient>
<linearGradient id="paint16_linear_12_3075" x1="-441.954" y1="-53.2856" x2="-337.752" y2="-65.0539" gradientUnits="userSpaceOnUse">
<stop offset="0.31" stop-color="#FBCC34"/>
<stop offset="0.99" stop-color="#FB8905"/>
</linearGradient>
<linearGradient id="paint17_linear_12_3075" x1="-441.953" y1="-53.285" x2="-337.751" y2="-65.0532" gradientUnits="userSpaceOnUse">
<stop offset="0.31" stop-color="#FBCC34"/>
<stop offset="0.99" stop-color="#FB8905"/>
</linearGradient>
<linearGradient id="paint18_linear_12_3075" x1="-441.953" y1="-53.2852" x2="-337.751" y2="-65.0535" gradientUnits="userSpaceOnUse">
<stop offset="0.31" stop-color="#FBCC34"/>
<stop offset="0.99" stop-color="#FB8905"/>
</linearGradient>
<linearGradient id="paint19_linear_12_3075" x1="64.3528" y1="70.2371" x2="71.813" y2="69.3916" gradientUnits="userSpaceOnUse">
<stop offset="0.01" stop-color="#FBAE17"/>
<stop offset="1" stop-color="#873713"/>
</linearGradient>
<linearGradient id="paint20_linear_12_3075" x1="82.6997" y1="93.2881" x2="111.302" y2="90.0486" gradientUnits="userSpaceOnUse">
<stop offset="0.01" stop-color="#FBAE17"/>
<stop offset="1" stop-color="#873713"/>
</linearGradient>
<linearGradient id="paint21_linear_12_3075" x1="47.6462" y1="78.2872" x2="95.3791" y2="72.9071" gradientUnits="userSpaceOnUse">
<stop offset="0.01" stop-color="#FBAE17"/>
<stop offset="1" stop-color="#873713"/>
</linearGradient>
<linearGradient id="paint22_linear_12_3075" x1="24.8738" y1="81.7415" x2="134.529" y2="69.3667" gradientUnits="userSpaceOnUse">
<stop offset="0.31" stop-color="#FBCC34"/>
<stop offset="0.99" stop-color="#FB8905"/>
</linearGradient>
<linearGradient id="paint23_linear_12_3075" x1="32.3549" y1="85.2945" x2="134.571" y2="73.7861" gradientUnits="userSpaceOnUse">
<stop offset="0.01" stop-color="#FBAE17"/>
<stop offset="1" stop-color="#873713"/>
</linearGradient>
<radialGradient id="paint24_radial_12_3075" cx="0" cy="0" r="1" gradientUnits="userSpaceOnUse" gradientTransform="translate(-389.15 -55.4889) rotate(-73.0625) scale(30.005 30.0098)">
<stop offset="0.01" stop-color="#873713"/>
<stop offset="1" stop-color="white"/>
</radialGradient>
<radialGradient id="paint25_radial_12_3075" cx="0" cy="0" r="1" gradientUnits="userSpaceOnUse" gradientTransform="translate(-389.15 -55.4883) rotate(-73.0624) scale(30.005 30.0098)">
<stop offset="0.01" stop-color="#873713"/>
<stop offset="1" stop-color="white"/>
</radialGradient>
<radialGradient id="paint26_radial_12_3075" cx="0" cy="0" r="1" gradientUnits="userSpaceOnUse" gradientTransform="translate(-389.15 -55.4885) rotate(-73.0625) scale(30.005 30.0098)">
<stop offset="0.01" stop-color="#873713"/>
<stop offset="1" stop-color="white"/>
</radialGradient>
<radialGradient id="paint27_radial_12_3075" cx="0" cy="0" r="1" gradientUnits="userSpaceOnUse" gradientTransform="translate(-389.15 -55.4889) rotate(-73.0625) scale(30.005 30.0098)">
<stop offset="0.01" stop-color="#873713"/>
<stop offset="1" stop-color="white"/>
</radialGradient>
<radialGradient id="paint28_radial_12_3075" cx="0" cy="0" r="1" gradientUnits="userSpaceOnUse" gradientTransform="translate(-389.15 -55.4883) rotate(-73.0624) scale(30.005 30.0098)">
<stop offset="0.01" stop-color="#873713"/>
<stop offset="1" stop-color="white"/>
</radialGradient>
<radialGradient id="paint29_radial_12_3075" cx="0" cy="0" r="1" gradientUnits="userSpaceOnUse" gradientTransform="translate(-389.15 -55.4885) rotate(-73.0625) scale(30.005 30.0098)">
<stop offset="0.01" stop-color="#873713"/>
<stop offset="1" stop-color="white"/>
</radialGradient>
<radialGradient id="paint30_radial_12_3075" cx="0" cy="0" r="1" gradientUnits="userSpaceOnUse" gradientTransform="translate(-389.15 -55.4889) rotate(-73.0625) scale(30.005 30.0098)">
<stop offset="0.01" stop-color="#873713"/>
<stop offset="1" stop-color="white"/>
</radialGradient>
<radialGradient id="paint31_radial_12_3075" cx="0" cy="0" r="1" gradientUnits="userSpaceOnUse" gradientTransform="translate(-389.15 -55.4883) rotate(-73.0624) scale(30.005 30.0098)">
<stop offset="0.01" stop-color="#873713"/>
<stop offset="1" stop-color="white"/>
</radialGradient>
<radialGradient id="paint32_radial_12_3075" cx="0" cy="0" r="1" gradientUnits="userSpaceOnUse" gradientTransform="translate(-389.15 -55.4885) rotate(-73.0625) scale(30.005 30.0098)">
<stop offset="0.01" stop-color="#873713"/>
<stop offset="1" stop-color="white"/>
</radialGradient>
<linearGradient id="paint33_linear_12_3075" x1="-441.954" y1="-53.2856" x2="-337.752" y2="-65.0539" gradientUnits="userSpaceOnUse">
<stop offset="0.31" stop-color="#FBCC34"/>
<stop offset="0.99" stop-color="#FB8905"/>
</linearGradient>
<linearGradient id="paint34_linear_12_3075" x1="-441.953" y1="-53.285" x2="-337.751" y2="-65.0532" gradientUnits="userSpaceOnUse">
<stop offset="0.31" stop-color="#FBCC34"/>
<stop offset="0.99" stop-color="#FB8905"/>
</linearGradient>
<linearGradient id="paint35_linear_12_3075" x1="-441.953" y1="-53.2852" x2="-337.751" y2="-65.0535" gradientUnits="userSpaceOnUse">
<stop offset="0.31" stop-color="#FBCC34"/>
<stop offset="0.99" stop-color="#FB8905"/>
</linearGradient>
<linearGradient id="paint36_linear_12_3075" x1="64.3528" y1="70.2371" x2="71.813" y2="69.3916" gradientUnits="userSpaceOnUse">
<stop offset="0.01" stop-color="#FBAE17"/>
<stop offset="1" stop-color="#873713"/>
</linearGradient>
<linearGradient id="paint37_linear_12_3075" x1="82.6997" y1="93.2881" x2="111.302" y2="90.0486" gradientUnits="userSpaceOnUse">
<stop offset="0.01" stop-color="#FBAE17"/>
<stop offset="1" stop-color="#873713"/>
</linearGradient>
<linearGradient id="paint38_linear_12_3075" x1="47.6462" y1="78.2872" x2="95.3791" y2="72.9071" gradientUnits="userSpaceOnUse">
<stop offset="0.01" stop-color="#FBAE17"/>
<stop offset="1" stop-color="#873713"/>
</linearGradient>
<linearGradient id="paint39_linear_12_3075" x1="26.2261" y1="81.6777" x2="136.134" y2="69.295" gradientUnits="userSpaceOnUse">
<stop offset="0.31" stop-color="#FBCC34"/>
<stop offset="0.99" stop-color="#FB8905"/>
</linearGradient>
<radialGradient id="paint40_radial_12_3075" cx="0" cy="0" r="1" gradientUnits="userSpaceOnUse" gradientTransform="translate(63.435 54.3636) rotate(-73.0415) scale(24.4102 24.414)">
<stop/>
<stop offset="1" stop-color="white"/>
</radialGradient>
<linearGradient id="paint41_linear_12_3075" x1="70.467" y1="103.638" x2="72.7688" y2="72.5808" gradientUnits="userSpaceOnUse">
<stop stop-color="white"/>
<stop offset="0.57"/>
</linearGradient>
<linearGradient id="paint42_linear_12_3075" x1="63.3657" y1="69.8328" x2="76.8495" y2="58.4731" gradientUnits="userSpaceOnUse">
<stop stop-color="white"/>
<stop offset="1"/>
</linearGradient>
<linearGradient id="paint43_linear_12_3075" x1="73.1783" y1="92.5256" x2="127.348" y2="86.4265" gradientUnits="userSpaceOnUse">
<stop offset="0.31" stop-color="#FBCC34"/>
<stop offset="0.99" stop-color="#FB8905"/>
</linearGradient>
<linearGradient id="paint44_linear_12_3075" x1="94.87" y1="52.8046" x2="90.1439" y2="82.4725" gradientUnits="userSpaceOnUse">
<stop stop-color="white"/>
<stop offset="0.57"/>
</linearGradient>
<linearGradient id="paint45_linear_12_3075" x1="-6.29496" y1="88.6067" x2="167.297" y2="69.0647" gradientUnits="userSpaceOnUse">
<stop offset="0.31" stop-color="#FBCC34"/>
<stop offset="0.99" stop-color="#FB8905"/>
</linearGradient>
<clipPath id="clip0_12_3075">
<rect width="120.827" height="121.44" fill="white" transform="translate(0 53.15) rotate(-26.0966)"/>
</clipPath>
</defs>
</svg>
